<?xml version="1.0" encoding="utf-8"?>
<!-- Generator: Adobe Illustrator 27.9.6, SVG Export Plug-In . SVG Version: 9.03 Build 54986)  -->
<svg version="1.1" xmlns="http://www.w3.org/2000/svg" xmlns:xlink="http://www.w3.org/1999/xlink" x="0px" y="0px"
	 viewBox="0 0 792 1224" style="enable-background:new 0 0 792 1224;" xml:space="preserve">
<style type="text/css">
	.st0{fill:none;stroke:#FFFFFF;stroke-width:1.5;stroke-linecap:round;stroke-linejoin:round;}
	.st1{fill:none;stroke:#FFFFFF;stroke-width:0.25;stroke-linecap:round;stroke-linejoin:round;}
	.st2{fill:none;stroke:#FFFFFF;stroke-width:0.25;stroke-linecap:round;stroke-linejoin:round;stroke-dasharray:4.3196,4.3196;}
	.st3{fill:none;stroke:#FFFFFF;stroke-width:0.25;stroke-linecap:round;stroke-linejoin:round;stroke-dasharray:4.2281,4.2281;}
	.st4{fill:none;stroke:#FFFFFF;stroke-width:0.25;stroke-linecap:round;stroke-linejoin:round;stroke-dasharray:4.4812,4.4812;}
	.st5{fill:none;stroke:#FFFFFF;stroke-width:0.25;stroke-linecap:round;stroke-linejoin:round;stroke-dasharray:4.0227,4.0227;}
	.st6{fill:none;stroke:#FFFFFF;stroke-width:0.25;stroke-linecap:round;stroke-linejoin:round;stroke-dasharray:4.7658,4.7658;}
	.st7{fill:none;stroke:#FFFFFF;stroke-width:0.25;stroke-linecap:round;stroke-linejoin:round;stroke-dasharray:4.406,4.406;}
	.st8{fill:none;stroke:#FFFFFF;stroke-width:0.25;stroke-linecap:round;stroke-linejoin:round;stroke-dasharray:4.4238,4.4238;}
	.st9{fill:none;stroke:#FFFFFF;stroke-width:0.25;stroke-linecap:round;stroke-linejoin:round;stroke-dasharray:4.3855,4.3855;}
	.st10{fill:none;stroke:#FFFFFF;stroke-width:0.25;stroke-linecap:round;stroke-linejoin:round;stroke-dasharray:4.3927,4.3927;}
	.st11{fill:none;stroke:#FFFFFF;stroke-width:0.25;stroke-linecap:round;stroke-linejoin:round;stroke-dasharray:4.3919,4.3919;}
	.st12{fill:none;stroke:#FFFFFF;stroke-width:0.25;stroke-linecap:round;stroke-linejoin:round;stroke-dasharray:3.9407,3.9407;}
	.st13{fill:none;stroke:#FFFFFF;stroke-width:0.25;stroke-linecap:round;stroke-linejoin:round;stroke-dasharray:4.3973,4.3973;}
	.st14{fill:none;stroke:#FFFFFF;stroke-width:0.25;stroke-linecap:round;stroke-linejoin:round;stroke-dasharray:4.1914,4.1914;}
	.st15{fill:none;stroke:#FFFFFF;stroke-width:0.25;stroke-linecap:round;stroke-linejoin:round;stroke-dasharray:4.3002,4.3002;}
	.st16{fill:none;stroke:#FFFFFF;stroke-width:0.25;stroke-linecap:round;stroke-linejoin:round;stroke-dasharray:4.6838,4.6838;}
	.st17{fill:none;stroke:#FFFFFF;stroke-width:0.25;stroke-linecap:round;stroke-linejoin:round;stroke-dasharray:4.4088,4.4088;}
	.st18{fill:none;stroke:#FFFFFF;stroke-width:0.25;stroke-linecap:round;stroke-linejoin:round;stroke-dasharray:4.3706,4.3706;}
	.st19{fill:none;stroke:#FFFFFF;stroke-width:0.25;stroke-linecap:round;stroke-linejoin:round;stroke-dasharray:4.4323,4.4323;}
	.st20{fill:none;stroke:#FFFFFF;stroke-width:0.25;stroke-linecap:round;stroke-linejoin:round;stroke-dasharray:4.3831,4.3831;}
	.st21{fill:none;stroke:#FFFFFF;stroke-width:0.5;stroke-linecap:round;stroke-linejoin:round;}
</style>
<g id="Layer_1">
</g>
<g id="Layer_03">
	<polygon class="st0" points="554.79,1192.28 554.79,906.91 558.93,904.51 563.08,906.91 563.08,910.85 567.95,913.66 
		569.76,912.62 569.76,905.14 573.9,902.75 644.34,862.08 650.09,865.4 650.09,851.88 654.23,849.49 658.38,851.88 658.38,855.83 
		663.25,858.64 666.66,856.67 670.81,859.06 670.81,1144.43 654.23,1154 637.66,1144.43 637.66,1091.64 587.94,1120.35 
		587.94,1192.28 571.36,1201.85 	"/>
	<polygon class="st0" points="263.97,1024.37 247.4,1014.8 247.4,942.86 245.96,942.03 245.96,927.64 247.4,926.81 247.4,729.43 
		251.54,727.04 255.69,729.43 255.69,733.38 259.83,735.77 259.83,722.26 263.97,719.86 268.12,722.26 268.12,726.2 272.26,728.59 
		330.27,695.1 330.27,691.2 328.83,690.36 328.83,675.97 337.12,671.19 342.7,674.41 346.84,672.02 350.98,674.41 350.98,678.36 
		355.86,681.17 359.27,679.2 363.42,681.59 363.42,686.37 514.02,773.32 514.02,787.72 505.73,792.5 491.86,784.49 491.86,964.35 
		514.02,977.15 514.02,991.54 505.73,996.32 487.73,985.93 475.29,993.11 464.9,987.11 417.28,1014.61 417.28,1016.98 
		431.15,1024.99 431.15,1039.38 422.86,1044.17 404.86,1033.77 400.71,1036.17 280.55,966.8 280.55,1014.8 	"/>
	<polyline class="st0" points="408.99,696.42 408.99,696.46 400.71,701.24 	"/>
	<polyline class="st0" points="268.12,624.69 268.12,604.74 245.96,591.94 245.96,577.55 254.25,572.77 297.34,597.64 
		357.03,563.18 357.31,563.66 358.84,562.77 373.9,563.5 374.11,564.14 374.93,563.67 390.96,568.1 391.1,568.79 391.8,568.39 
		408.25,575.62 408.33,576.38 408.99,575.99 425.57,585.56 425.57,586.47 426.31,586.04 442.77,597.82 442.63,599.04 443.6,598.48 
		459.63,612.58 459.14,614.46 460.66,613.59 475.72,630.26 473.1,635.3 477.53,632.75 486.11,647.59 486.11,654.86 431.15,686.6 
		431.15,689.3 422.86,694.08 420.53,692.73 411.53,697.92 409.02,696.47 408.99,696.42 	"/>
	<polygon class="st0" points="203.63,472.17 195.34,467.39 255.4,384.57 234.62,372.56 297.11,327.06 305.4,322.27 407.16,345.1 
		415.45,349.88 384.54,367.72 454.56,408.39 556.33,431.22 564.61,436 504.29,470.83 500.88,468.86 496.01,471.67 496.01,475.61 
		525.33,530.83 517.05,535.62 454.56,499.54 421.42,518.67 418.01,516.7 413.14,519.51 413.14,523.46 352.8,558.29 344.51,553.51 
		436.49,426.67 359.47,382.2 355.13,384.71 351.71,382.74 346.84,385.55 346.84,389.49 272.26,432.55 268.84,430.58 263.97,433.39 
		263.97,437.34 	"/>
	<polygon class="st0" points="415.28,330.18 132.86,167.12 128.13,161.99 129.18,161.33 126.65,157.2 297.53,48.73 338.47,34.91 
		340.03,37.4 349.4,34.24 631.82,197.3 629.02,203.59 633.31,205.13 421.49,327.42 	"/>
	<path class="st0" d="M400.71,701.24c-1.39-2.55-2.85-5.06-4.35-7.54c-1.47-2.42-2.99-4.81-4.59-7.15
		c-1.73-2.54-3.56-5.02-5.46-7.43c-1.49-1.88-3.03-3.71-4.62-5.5c-1.35-1.51-2.73-2.99-4.15-4.44c-1.28-1.31-2.59-2.6-3.92-3.87
		c-1.46-1.39-2.94-2.76-4.44-4.1c-1.94-1.74-3.91-3.44-5.9-5.11c-2.01-1.68-4.04-3.32-6.11-4.93c-1.65-1.28-3.31-2.54-5-3.77
		c-2.31-1.68-4.65-3.32-7.02-4.91c-1.45-0.96-2.9-1.91-4.37-2.83c-2.47-1.55-4.98-3.06-7.52-4.5c-2.47-1.41-4.98-2.75-7.52-4.04
		c-2.9-1.47-5.85-2.85-8.84-4.13c-2.03-0.87-4.09-1.68-6.16-2.45c-2.55-0.94-5.14-1.8-7.75-2.56c-2.09-0.62-4.2-1.17-6.33-1.64
		c-2.32-0.51-4.67-0.92-7.03-1.14c-1.5-0.14-3.01-0.21-4.52-0.16c-1.29,0.04-2.58,0.15-3.86,0.35c-1.78,0.27-3.54,0.68-5.24,1.29
		c-1.35,0.48-2.65,1.08-3.92,1.74c-1.36,0.7-2.69,1.45-3.96,2.29"/>
</g>
<g id="Layer_04">
	<g>
		<g>
			<line class="st1" x1="525.33" y1="530.83" x2="525.28" y2="528.66"/>
			<line class="st2" x1="525.16" y1="524.34" x2="518.64" y2="276.05"/>
			<line class="st1" x1="518.59" y1="273.89" x2="518.53" y2="271.71"/>
		</g>
	</g>
	<g>
		<g>
			<line class="st1" x1="422.86" y1="1044.17" x2="424.75" y2="1045.25"/>
			<line class="st3" x1="428.41" y1="1047.37" x2="551.07" y2="1118.19"/>
			<line class="st1" x1="552.91" y1="1119.25" x2="554.79" y2="1120.33"/>
		</g>
	</g>
	<g>
		<g>
			<line class="st1" x1="422.86" y1="1029.78" x2="424.75" y2="1030.86"/>
			<line class="st3" x1="428.41" y1="1032.98" x2="551.07" y2="1103.8"/>
			<line class="st1" x1="552.91" y1="1104.86" x2="554.79" y2="1105.94"/>
		</g>
	</g>
	<g>
		<g>
			<line class="st1" x1="431.15" y1="1024.99" x2="433.03" y2="1026.09"/>
			<line class="st4" x1="436.89" y1="1028.35" x2="550.98" y2="1095.14"/>
			<line class="st1" x1="552.91" y1="1096.28" x2="554.79" y2="1097.38"/>
		</g>
	</g>
	<g>
		<g>
			<line class="st1" x1="431.15" y1="1039.38" x2="433.03" y2="1040.48"/>
			<line class="st4" x1="436.89" y1="1042.75" x2="550.98" y2="1109.53"/>
			<line class="st1" x1="552.91" y1="1110.67" x2="554.79" y2="1111.77"/>
		</g>
	</g>
	<g>
		<g>
			<line class="st1" x1="505.73" y1="996.32" x2="507.62" y2="997.41"/>
			<line class="st5" x1="511.1" y1="999.42" x2="551.16" y2="1022.55"/>
			<line class="st1" x1="552.91" y1="1023.56" x2="554.79" y2="1024.65"/>
		</g>
	</g>
	<g>
		<g>
			<line class="st1" x1="505.73" y1="981.93" x2="507.62" y2="983.02"/>
			<line class="st5" x1="511.1" y1="985.03" x2="551.16" y2="1008.16"/>
			<line class="st1" x1="552.91" y1="1009.17" x2="554.79" y2="1010.25"/>
		</g>
	</g>
	<g>
		<g>
			<line class="st1" x1="514.02" y1="977.15" x2="515.9" y2="978.25"/>
			<line class="st6" x1="520.01" y1="980.65" x2="550.86" y2="998.71"/>
			<line class="st1" x1="552.91" y1="999.92" x2="554.79" y2="1001.02"/>
		</g>
	</g>
	<g>
		<g>
			<line class="st1" x1="514.02" y1="991.54" x2="515.9" y2="992.64"/>
			<line class="st6" x1="520.01" y1="995.04" x2="550.86" y2="1013.1"/>
			<line class="st1" x1="552.91" y1="1014.31" x2="554.79" y2="1015.41"/>
		</g>
	</g>
	<g>
		<g>
			<line class="st1" x1="505.73" y1="778.11" x2="507.62" y2="779.2"/>
			<line class="st7" x1="511.43" y1="781.4" x2="654.52" y2="864.01"/>
			<line class="st1" x1="656.43" y1="865.11" x2="658.31" y2="866.2"/>
		</g>
	</g>
	<g>
		<g>
			<line class="st1" x1="514.02" y1="773.32" x2="515.9" y2="774.42"/>
			<line class="st8" x1="519.71" y1="776.66" x2="662.88" y2="860.47"/>
			<line class="st1" x1="664.79" y1="861.59" x2="666.66" y2="862.69"/>
		</g>
	</g>
	<g>
		<g>
			<line class="st1" x1="514.02" y1="787.72" x2="515.9" y2="788.82"/>
			<line class="st9" x1="519.68" y1="791.03" x2="638.9" y2="860.82"/>
			<line class="st1" x1="640.79" y1="861.93" x2="642.67" y2="863.03"/>
		</g>
	</g>
	<g>
		<g>
			<line class="st1" x1="505.73" y1="792.5" x2="507.62" y2="793.59"/>
			<line class="st10" x1="511.42" y1="795.78" x2="631.25" y2="864.97"/>
			<line class="st1" x1="633.16" y1="866.07" x2="635.04" y2="867.16"/>
		</g>
	</g>
	<g>
		<g>
			<line class="st1" x1="292.98" y1="901.34" x2="292.98" y2="903.51"/>
			<line class="st11" x1="292.98" y1="907.9" x2="292.98" y2="940.84"/>
			<line class="st1" x1="292.98" y1="943.04" x2="292.98" y2="945.22"/>
		</g>
	</g>
	<g>
		<g>
			<line class="st1" x1="276.4" y1="891.77" x2="276.4" y2="893.94"/>
			<line class="st11" x1="276.4" y1="898.34" x2="276.4" y2="931.28"/>
			<line class="st1" x1="276.4" y1="933.47" x2="276.4" y2="935.65"/>
		</g>
	</g>
	<g>
		<g>
			<line class="st1" x1="367.56" y1="858.28" x2="367.56" y2="860.45"/>
			<line class="st11" x1="367.56" y1="864.84" x2="367.56" y2="897.78"/>
			<line class="st1" x1="367.56" y1="899.98" x2="367.56" y2="902.16"/>
		</g>
	</g>
	<g>
		<g>
			<line class="st1" x1="350.98" y1="867.85" x2="350.98" y2="870.02"/>
			<line class="st12" x1="350.98" y1="873.96" x2="350.98" y2="895.64"/>
			<line class="st1" x1="350.98" y1="897.61" x2="350.98" y2="899.78"/>
		</g>
	</g>
	<g>
		<g>
			<line class="st1" x1="251.54" y1="727.04" x2="251.54" y2="724.87"/>
			<line class="st13" x1="251.54" y1="720.47" x2="251.54" y2="599.54"/>
			<line class="st1" x1="251.54" y1="597.34" x2="251.54" y2="595.17"/>
		</g>
	</g>
	<g>
		<g>
			<line class="st1" x1="268.12" y1="736.61" x2="268.12" y2="734.43"/>
			<line class="st13" x1="268.12" y1="730.04" x2="268.12" y2="609.11"/>
			<line class="st1" x1="268.12" y1="606.91" x2="268.12" y2="604.74"/>
		</g>
	</g>
	<g>
		<g>
			<line class="st1" x1="263.97" y1="719.86" x2="263.97" y2="717.69"/>
			<line class="st14" x1="263.97" y1="713.5" x2="263.97" y2="606.62"/>
			<line class="st1" x1="263.97" y1="604.52" x2="263.97" y2="602.34"/>
		</g>
	</g>
	<g>
		<g>
			<line class="st1" x1="278.01" y1="731.91" x2="278.01" y2="729.73"/>
			<line class="st15" x1="278.01" y1="725.43" x2="278.01" y2="624.38"/>
			<line class="st1" x1="278.01" y1="622.23" x2="278.01" y2="620.05"/>
		</g>
	</g>
	<g>
		<g>
			<line class="st1" x1="348.45" y1="691.24" x2="348.45" y2="689.07"/>
			<line class="st16" x1="348.45" y1="684.38" x2="348.45" y2="649.25"/>
			<line class="st1" x1="348.45" y1="646.91" x2="348.45" y2="644.74"/>
		</g>
	</g>
	<g>
		<g>
			<line class="st1" x1="413.14" y1="523.46" x2="413.12" y2="525.63"/>
			<line class="st17" x1="413.08" y1="530.04" x2="411.82" y2="668.91"/>
			<line class="st1" x1="411.8" y1="671.12" x2="411.78" y2="673.29"/>
		</g>
	</g>
	<g>
		<g>
			<line class="st1" x1="421.42" y1="518.67" x2="421.37" y2="520.85"/>
			<line class="st18" x1="421.27" y1="525.22" x2="417.93" y2="662.85"/>
			<line class="st1" x1="417.88" y1="665.04" x2="417.83" y2="667.21"/>
		</g>
	</g>
	<g>
		<g>
			<line class="st1" x1="263.97" y1="437.34" x2="263.97" y2="439.51"/>
			<line class="st19" x1="263.97" y1="443.94" x2="263.97" y2="583.56"/>
			<line class="st1" x1="263.97" y1="585.78" x2="263.97" y2="587.95"/>
		</g>
	</g>
	<g>
		<g>
			<line class="st1" x1="272.26" y1="432.55" x2="272.26" y2="434.73"/>
			<line class="st19" x1="272.26" y1="439.16" x2="272.26" y2="578.78"/>
			<line class="st1" x1="272.26" y1="580.99" x2="272.26" y2="583.17"/>
		</g>
	</g>
	<g>
		<g>
			<line class="st1" x1="234.62" y1="372.56" x2="234.57" y2="370.38"/>
			<line class="st20" x1="234.45" y1="366" x2="230.83" y2="227.98"/>
			<line class="st1" x1="230.77" y1="225.79" x2="230.71" y2="223.62"/>
		</g>
	</g>
</g>
<g id="Make2D::Visible::Curves">
	<line class="st21" x1="305.95" y1="51.58" x2="307.36" y2="48.42"/>
	<line class="st21" x1="312.42" y1="46.71" x2="310.86" y2="44.22"/>
	<line class="st21" x1="338.47" y1="34.91" x2="340.03" y2="37.4"/>
	<line class="st21" x1="326.22" y1="42.06" x2="324.66" y2="39.56"/>
	<line class="st21" x1="319.32" y1="44.39" x2="317.76" y2="41.89"/>
	<line class="st21" x1="273.49" y1="69.72" x2="270.96" y2="65.6"/>
	<line class="st21" x1="215.77" y1="106.36" x2="213.24" y2="102.24"/>
	<line class="st21" x1="244.69" y1="88" x2="242.1" y2="83.92"/>
	<line class="st21" x1="126.65" y1="157.2" x2="129.18" y2="161.33"/>
	<line class="st21" x1="158.11" y1="142.96" x2="155.51" y2="138.88"/>
	<line class="st21" x1="186.97" y1="124.64" x2="184.38" y2="120.56"/>
	<line class="st21" x1="478.02" y1="142.15" x2="475.21" y2="148.44"/>
	<line class="st21" x1="500" y1="150.03" x2="497.19" y2="156.32"/>
	<line class="st21" x1="454.33" y1="138.12" x2="456.05" y2="134.27"/>
	<line class="st21" x1="312.62" y1="46.65" x2="317.87" y2="44.88"/>
	<line class="st21" x1="478.02" y1="142.15" x2="500" y2="150.03"/>
	<line class="st21" x1="323.13" y1="43.1" x2="521.97" y2="157.88"/>
	<line class="st21" x1="328.38" y1="41.33" x2="543.94" y2="165.76"/>
	<line class="st21" x1="521.97" y1="157.88" x2="543.94" y2="165.76"/>
	<line class="st21" x1="323.13" y1="43.1" x2="328.38" y2="41.33"/>
	<line class="st21" x1="521.96" y1="157.9" x2="521.97" y2="157.88"/>
	<line class="st21" x1="543.94" y1="165.76" x2="543.93" y2="165.78"/>
	<line class="st21" x1="449.1" y1="203.43" x2="442.2" y2="234.43"/>
	<line class="st21" x1="436.3" y1="235.77" x2="441.56" y2="212.17"/>
	<line class="st21" x1="442.2" y1="234.43" x2="435.99" y2="237.18"/>
	<line class="st21" x1="517.86" y1="163.73" x2="546.72" y2="174.08"/>
	<line class="st21" x1="442.2" y1="234.43" x2="546.72" y2="174.08"/>
	<line class="st21" x1="350.98" y1="707.95" x2="350.98" y2="703.16"/>
	<line class="st21" x1="350.98" y1="688.77" x2="338.55" y2="681.59"/>
	<line class="st21" x1="359.27" y1="683.98" x2="337.12" y2="671.19"/>
	<line class="st21" x1="334.41" y1="679.2" x2="328.83" y2="675.97"/>
	<line class="st21" x1="330.27" y1="691.2" x2="328.83" y2="690.36"/>
	<line class="st21" x1="350.98" y1="703.16" x2="348.45" y2="701.69"/>
	<line class="st21" x1="328.83" y1="690.36" x2="328.83" y2="675.97"/>
	<line class="st21" x1="328.83" y1="675.97" x2="337.12" y2="671.19"/>
	<line class="st21" x1="421.42" y1="514.73" x2="413.14" y2="519.51"/>
	<line class="st21" x1="454.56" y1="499.54" x2="421.42" y2="518.67"/>
	<line class="st21" x1="504.29" y1="466.88" x2="496.01" y2="471.67"/>
	<line class="st21" x1="499.74" y1="444.75" x2="484.34" y2="453.64"/>
	<line class="st21" x1="505.73" y1="996.32" x2="483.58" y2="983.53"/>
	<line class="st21" x1="645.95" y1="863" x2="650.82" y2="865.82"/>
	<line class="st21" x1="650.09" y1="866.24" x2="654.23" y2="863.85"/>
	<line class="st21" x1="662.52" y1="859.06" x2="666.66" y2="856.67"/>
	<line class="st21" x1="658.38" y1="880.63" x2="658.38" y2="866.24"/>
	<line class="st21" x1="658.38" y1="1084.45" x2="658.38" y2="1070.06"/>
	<line class="st21" x1="454.56" y1="499.59" x2="454.56" y2="480.4"/>
	<line class="st21" x1="511.68" y1="447.43" x2="476.89" y2="439.62"/>
	<line class="st21" x1="384.12" y1="367.72" x2="313.68" y2="327.06"/>
	<line class="st21" x1="375.83" y1="372.51" x2="305.4" y2="331.84"/>
	<line class="st21" x1="375.83" y1="391.65" x2="305.4" y2="350.98"/>
	<line class="st21" x1="384.12" y1="367.72" x2="462.85" y2="413.18"/>
	<line class="st21" x1="375.83" y1="372.51" x2="446.27" y2="413.18"/>
	<line class="st21" x1="417.83" y1="667.21" x2="477.53" y2="632.75"/>
	<line class="st21" x1="371.19" y1="640.29" x2="443.6" y2="598.48"/>
	<line class="st21" x1="306.05" y1="602.68" x2="373.9" y2="563.5"/>
	<line class="st21" x1="358.84" y1="562.77" x2="297.89" y2="597.96"/>
	<line class="st21" x1="400.71" y1="1036.17" x2="268.12" y2="959.62"/>
	<line class="st21" x1="400.71" y1="1016.98" x2="268.12" y2="940.43"/>
	<line class="st21" x1="326.12" y1="964.35" x2="276.4" y2="935.65"/>
	<line class="st21" x1="392.42" y1="1002.63" x2="342.7" y2="973.92"/>
	<line class="st21" x1="268.12" y1="959.62" x2="268.12" y2="940.43"/>
	<line class="st21" x1="422.86" y1="1044.17" x2="400.71" y2="1031.37"/>
	<line class="st21" x1="431.15" y1="1024.99" x2="408.99" y2="1012.2"/>
	<line class="st21" x1="467" y1="959.57" x2="467" y2="774.94"/>
	<line class="st21" x1="350.98" y1="841.51" x2="350.98" y2="707.95"/>
	<line class="st21" x1="350.98" y1="892.59" x2="367.56" y2="902.16"/>
	<line class="st21" x1="483.58" y1="784.51" x2="350.98" y2="707.95"/>
	<line class="st21" x1="483.58" y1="765.32" x2="350.98" y2="688.77"/>
	<line class="st21" x1="491.86" y1="760.53" x2="359.27" y2="683.98"/>
	<line class="st21" x1="368.38" y1="520.59" x2="446.27" y2="413.18"/>
	<line class="st21" x1="405.73" y1="508.59" x2="454.56" y2="441.26"/>
	<line class="st21" x1="219.22" y1="434.47" x2="297.11" y2="327.06"/>
	<line class="st21" x1="227.5" y1="439.25" x2="305.4" y2="331.84"/>
	<line class="st21" x1="256.57" y1="422.47" x2="305.4" y2="355.14"/>
	<line class="st21" x1="305.4" y1="331.84" x2="297.11" y2="327.06"/>
	<path class="st21" d="M305.4,355.14c0-7.77,0-15.53,0-23.3"/>
	<line class="st21" x1="505.73" y1="792.5" x2="483.58" y2="779.71"/>
	<line class="st21" x1="475.72" y1="630.26" x2="473.13" y2="635.3"/>
	<line class="st21" x1="392.8" y1="652.76" x2="460.66" y2="613.59"/>
	<line class="st21" x1="391.8" y1="568.39" x2="319.23" y2="610.29"/>
	<line class="st21" x1="327.73" y1="731.24" x2="311.15" y2="740.81"/>
	<line class="st21" x1="313.69" y1="742.28" x2="330.27" y2="732.71"/>
	<line class="st21" x1="327.73" y1="703.2" x2="311.15" y2="712.77"/>
	<line class="st21" x1="330.27" y1="904.55" x2="330.27" y2="879.81"/>
	<line class="st21" x1="351.77" y1="629.07" x2="426.31" y2="586.04"/>
	<line class="st21" x1="338.89" y1="37.78" x2="344.15" y2="36.01"/>
	<line class="st21" x1="338.89" y1="37.78" x2="587.88" y2="181.54"/>
	<line class="st21" x1="328.38" y1="41.33" x2="543.84" y2="165.72"/>
	<line class="st21" x1="333.64" y1="39.56" x2="565.91" y2="173.66"/>
	<line class="st21" x1="328.38" y1="41.33" x2="333.64" y2="39.56"/>
	<line class="st21" x1="604.44" y1="194.78" x2="633.31" y2="205.13"/>
	<line class="st21" x1="575.58" y1="184.43" x2="604.44" y2="194.78"/>
	<line class="st21" x1="422.18" y1="299.18" x2="425.79" y2="282.97"/>
	<line class="st21" x1="428.39" y1="296.42" x2="422.18" y2="299.18"/>
	<line class="st21" x1="645.95" y1="1086.86" x2="587.94" y2="1120.35"/>
	<line class="st21" x1="645.95" y1="1067.67" x2="587.94" y2="1101.16"/>
	<line class="st21" x1="375.85" y1="993.06" x2="450.43" y2="950"/>
	<line class="st21" x1="467" y1="959.57" x2="392.42" y2="1002.63"/>
	<line class="st21" x1="342.7" y1="973.92" x2="417.28" y2="930.86"/>
	<line class="st21" x1="433.85" y1="940.43" x2="359.27" y2="983.49"/>
	<line class="st21" x1="317.87" y1="44.88" x2="500" y2="150.03"/>
	<line class="st21" x1="323.13" y1="43.1" x2="521.97" y2="157.91"/>
	<line class="st21" x1="500" y1="150.03" x2="521.97" y2="157.91"/>
	<line class="st21" x1="521.97" y1="157.91" x2="519.17" y2="164.2"/>
	<line class="st21" x1="317.87" y1="44.88" x2="323.13" y2="43.1"/>
	<line class="st21" x1="297.53" y1="48.73" x2="304.02" y2="46.59"/>
	<line class="st21" x1="297.53" y1="48.73" x2="300.09" y2="52.84"/>
	<line class="st21" x1="194.05" y1="120.15" x2="426.32" y2="254.25"/>
	<line class="st21" x1="426.32" y1="254.25" x2="421.07" y2="277.85"/>
	<line class="st21" x1="425.8" y1="282.98" x2="431.05" y2="259.38"/>
	<line class="st21" x1="194.05" y1="120.15" x2="172.08" y2="134.09"/>
	<line class="st21" x1="391.57" y1="344.53" x2="313.68" y2="327.06"/>
	<line class="st21" x1="292.98" y1="901.34" x2="276.4" y2="891.77"/>
	<line class="st21" x1="367.56" y1="858.28" x2="292.98" y2="901.34"/>
	<line class="st21" x1="276.4" y1="884.57" x2="350.98" y2="841.51"/>
	<line class="st21" x1="292.98" y1="894.14" x2="276.4" y2="884.57"/>
	<line class="st21" x1="367.56" y1="851.08" x2="292.98" y2="894.14"/>
	<line class="st21" x1="350.98" y1="841.51" x2="367.56" y2="851.08"/>
	<line class="st21" x1="450.43" y1="950" x2="450.43" y2="765.37"/>
	<line class="st21" x1="433.85" y1="940.43" x2="433.85" y2="755.8"/>
	<line class="st21" x1="483.58" y1="976.33" x2="415.22" y2="1015.8"/>
	<line class="st21" x1="408.99" y1="1012.2" x2="392.42" y2="1002.63"/>
	<line class="st21" x1="483.58" y1="969.14" x2="408.99" y2="1012.2"/>
	<line class="st21" x1="475.29" y1="993.11" x2="475.29" y2="981.12"/>
	<line class="st21" x1="361.33" y1="905.75" x2="350.98" y2="899.78"/>
	<line class="st21" x1="342.7" y1="904.57" x2="353.04" y2="910.54"/>
	<line class="st21" x1="350.98" y1="899.78" x2="342.7" y2="904.57"/>
	<line class="st21" x1="172.08" y1="134.09" x2="421.07" y2="277.85"/>
	<line class="st21" x1="421.07" y1="277.85" x2="415.81" y2="301.45"/>
	<line class="st21" x1="425.8" y1="282.98" x2="421.07" y2="277.85"/>
	<line class="st21" x1="172.08" y1="134.09" x2="150.11" y2="148.04"/>
	<line class="st21" x1="359.27" y1="679.2" x2="355.13" y2="681.59"/>
	<line class="st21" x1="348.45" y1="691.24" x2="348.45" y2="701.69"/>
	<line class="st21" x1="346.84" y1="690.32" x2="338.55" y2="685.53"/>
	<line class="st21" x1="330.27" y1="695.1" x2="330.27" y2="681.59"/>
	<line class="st21" x1="400.71" y1="921.29" x2="400.71" y2="736.66"/>
	<line class="st21" x1="384.13" y1="911.73" x2="384.13" y2="727.09"/>
	<line class="st21" x1="292.98" y1="945.22" x2="367.56" y2="902.16"/>
	<line class="st21" x1="384.13" y1="911.73" x2="309.55" y2="954.79"/>
	<line class="st21" x1="326.12" y1="964.35" x2="400.71" y2="921.29"/>
	<line class="st21" x1="342.7" y1="973.92" x2="326.12" y2="964.35"/>
	<line class="st21" x1="400.71" y1="921.29" x2="417.28" y2="930.86"/>
	<line class="st21" x1="265.21" y1="371.04" x2="249.3" y2="361.85"/>
	<line class="st21" x1="234.62" y1="372.56" x2="249.32" y2="361.86"/>
	<line class="st21" x1="265.21" y1="371.05" x2="249.32" y2="361.86"/>
	<line class="st21" x1="346.84" y1="385.55" x2="355.13" y2="380.76"/>
	<line class="st21" x1="263.97" y1="433.39" x2="272.26" y2="428.61"/>
	<line class="st21" x1="334.61" y1="367.85" x2="268.5" y2="406.01"/>
	<line class="st21" x1="311.15" y1="740.81" x2="294.58" y2="750.38"/>
	<line class="st21" x1="297.12" y1="751.84" x2="313.69" y2="742.28"/>
	<line class="st21" x1="311.15" y1="712.77" x2="294.58" y2="722.34"/>
	<line class="st21" x1="303.92" y1="50.41" x2="452.59" y2="136.23"/>
	<line class="st21" x1="452.59" y1="136.23" x2="447.34" y2="159.84"/>
	<line class="st21" x1="457.32" y1="141.37" x2="452.59" y2="136.23"/>
	<line class="st21" x1="452.06" y1="164.97" x2="457.32" y2="141.37"/>
	<line class="st21" x1="303.92" y1="50.41" x2="281.95" y2="64.35"/>
	<line class="st21" x1="462.35" y1="143.84" x2="488.99" y2="153.38"/>
	<line class="st21" x1="462.35" y1="143.84" x2="456.15" y2="146.59"/>
	<line class="st21" x1="456" y1="172.43" x2="462.35" y2="143.84"/>
	<line class="st21" x1="488.99" y1="153.38" x2="456" y2="172.43"/>
	<line class="st21" x1="441.56" y1="212.18" x2="436.83" y2="207.05"/>
	<line class="st21" x1="216.03" y1="106.2" x2="431.58" y2="230.65"/>
	<line class="st21" x1="436.31" y1="235.78" x2="431.58" y2="230.65"/>
	<line class="st21" x1="431.05" y1="259.38" x2="436.31" y2="235.78"/>
	<line class="st21" x1="216.03" y1="106.2" x2="194.05" y2="120.15"/>
	<line class="st21" x1="306.43" y1="50.5" x2="303.96" y2="46.55"/>
	<line class="st21" x1="270.96" y1="65.6" x2="242.1" y2="83.92"/>
	<path class="st21" d="M270.5,623.18c4.2-2.42,8.97-3.92,14.19-4.13c5.21-0.21,10.85,0.87,16.57,2.45
		c5.46,1.51,10.99,3.48,16.57,5.91c5.49,2.39,11.03,5.22,16.57,8.42c5.54,3.2,11.08,6.76,16.57,10.72
		c5.58,4.02,11.11,8.43,16.57,13.23c5.72,5.03,11.37,10.47,16.57,16.69c6.23,7.45,11.84,16.01,16.57,24.79"/>
	<line class="st21" x1="408.99" y1="686.07" x2="408.99" y2="696.46"/>
	<line class="st21" x1="422.86" y1="694.08" x2="400.71" y2="681.29"/>
	<line class="st21" x1="422.86" y1="679.69" x2="400.71" y2="666.9"/>
	<line class="st21" x1="431.15" y1="674.9" x2="408.99" y2="662.11"/>
	<line class="st21" x1="422.86" y1="694.08" x2="422.86" y2="679.69"/>
	<line class="st21" x1="431.15" y1="674.9" x2="431.15" y2="689.3"/>
	<line class="st21" x1="400.71" y1="666.9" x2="268.12" y2="590.35"/>
	<line class="st21" x1="408.99" y1="662.11" x2="276.4" y2="585.56"/>
	<line class="st21" x1="400.71" y1="701.24" x2="400.71" y2="681.29"/>
	<line class="st21" x1="276.4" y1="730.98" x2="268.12" y2="726.2"/>
	<line class="st21" x1="259.83" y1="736.61" x2="263.97" y2="734.22"/>
	<line class="st21" x1="255.69" y1="733.38" x2="260.56" y2="736.19"/>
	<line class="st21" x1="276.4" y1="746.22" x2="276.4" y2="763.81"/>
	<line class="st21" x1="268.12" y1="736.61" x2="268.12" y2="751"/>
	<line class="st21" x1="280.55" y1="933.26" x2="280.55" y2="894.16"/>
	<line class="st21" x1="263.97" y1="1024.37" x2="263.97" y2="739"/>
	<line class="st21" x1="247.4" y1="1014.8" x2="247.4" y2="729.43"/>
	<line class="st21" x1="449.1" y1="203.43" x2="517.86" y2="163.73"/>
	<line class="st21" x1="488.99" y1="153.38" x2="517.86" y2="163.73"/>
	<line class="st21" x1="449.79" y1="175.18" x2="456" y2="172.43"/>
	<line class="st21" x1="367.56" y1="902.16" x2="367.56" y2="858.28"/>
	<line class="st21" x1="417.28" y1="930.86" x2="417.28" y2="746.23"/>
	<line class="st21" x1="150.11" y1="148.04" x2="415.81" y2="301.45"/>
	<line class="st21" x1="128.13" y1="161.99" x2="410.56" y2="325.05"/>
	<line class="st21" x1="150.11" y1="148.04" x2="128.13" y2="161.99"/>
	<line class="st21" x1="596.22" y1="1096.37" x2="596.22" y2="896.5"/>
	<line class="st21" x1="281.95" y1="64.35" x2="447.34" y2="159.84"/>
	<line class="st21" x1="281.95" y1="64.35" x2="259.98" y2="78.3"/>
	<line class="st21" x1="259.98" y1="78.3" x2="442.08" y2="183.44"/>
	<line class="st21" x1="238" y1="92.25" x2="436.83" y2="207.04"/>
	<line class="st21" x1="441.55" y1="212.17" x2="446.81" y2="188.57"/>
	<line class="st21" x1="259.98" y1="78.3" x2="238" y2="92.25"/>
	<line class="st21" x1="583.79" y1="904.51" x2="579.65" y2="906.91"/>
	<line class="st21" x1="571.36" y1="911.69" x2="567.22" y2="914.08"/>
	<line class="st21" x1="583.79" y1="1127.51" x2="575.51" y2="1122.73"/>
	<line class="st21" x1="575.51" y1="914.08" x2="575.51" y2="928.47"/>
	<line class="st21" x1="583.79" y1="1127.51" x2="583.79" y2="1113.12"/>
	<line class="st21" x1="575.51" y1="1117.9" x2="575.51" y2="1132.3"/>
	<line class="st21" x1="583.79" y1="1113.12" x2="575.51" y2="1117.9"/>
	<line class="st21" x1="587.94" y1="1192.28" x2="587.94" y2="906.91"/>
	<line class="st21" x1="571.36" y1="1201.85" x2="571.36" y2="916.48"/>
	<line class="st21" x1="435.29" y1="265.42" x2="575.58" y2="184.43"/>
	<line class="st21" x1="546.72" y1="174.08" x2="575.58" y2="184.43"/>
	<line class="st21" x1="442.2" y1="234.43" x2="435.29" y2="265.42"/>
	<line class="st21" x1="435.29" y1="265.42" x2="429.09" y2="268.18"/>
	<line class="st21" x1="454.56" y1="446.85" x2="454.56" y2="417.96"/>
	<line class="st21" x1="480.22" y1="495.17" x2="454.56" y2="446.85"/>
	<line class="st21" x1="510.64" y1="503.16" x2="462.85" y2="413.18"/>
	<line class="st21" x1="502.35" y1="507.94" x2="454.56" y2="417.96"/>
	<line class="st21" x1="307.36" y1="48.42" x2="456.05" y2="134.27"/>
	<line class="st21" x1="312.62" y1="46.65" x2="478.02" y2="142.15"/>
	<line class="st21" x1="307.36" y1="48.42" x2="312.62" y2="46.65"/>
	<line class="st21" x1="297.12" y1="923.69" x2="297.12" y2="898.94"/>
	<line class="st21" x1="344.3" y1="721.67" x2="344.3" y2="693.63"/>
	<line class="st21" x1="344.3" y1="693.63" x2="327.73" y2="703.2"/>
	<line class="st21" x1="321.98" y1="699.89" x2="338.55" y2="690.32"/>
	<line class="st21" x1="334.41" y1="619.05" x2="408.99" y2="575.99"/>
	<line class="st21" x1="464.31" y1="465.2" x2="417.67" y2="492.13"/>
	<line class="st21" x1="541.12" y1="172.07" x2="543.93" y2="165.78"/>
	<line class="st21" x1="295.03" y1="944.03" x2="284.69" y2="938.06"/>
	<line class="st21" x1="468.2" y1="472.53" x2="462.85" y2="475.62"/>
	<line class="st21" x1="431.15" y1="679.32" x2="486.11" y2="647.59"/>
	<line class="st21" x1="431.15" y1="686.6" x2="486.11" y2="654.86"/>
	<line class="st21" x1="318.56" y1="609.9" x2="390.96" y2="568.1"/>
	<line class="st21" x1="425.79" y1="282.98" x2="425.79" y2="282.98"/>
	<line class="st21" x1="333.71" y1="618.65" x2="408.25" y2="575.62"/>
	<line class="st21" x1="247.4" y1="928.47" x2="245.96" y2="927.64"/>
	<line class="st21" x1="247.4" y1="942.86" x2="245.96" y2="942.03"/>
	<line class="st21" x1="350.98" y1="899.78" x2="350.98" y2="892.59"/>
	<line class="st21" x1="431.05" y1="259.38" x2="431.05" y2="259.38"/>
	<line class="st21" x1="333.13" y1="39.73" x2="331.57" y2="37.23"/>
	<line class="st21" x1="280.55" y1="882.18" x2="280.55" y2="761.41"/>
	<line class="st21" x1="363.42" y1="686.37" x2="363.42" y2="681.59"/>
	<line class="st21" x1="342.9" y1="372.63" x2="256.57" y2="422.47"/>
	<line class="st21" x1="255.4" y1="384.57" x2="234.62" y2="372.56"/>
	<line class="st21" x1="359.47" y1="382.2" x2="355.13" y2="384.71"/>
	<line class="st21" x1="313.69" y1="863.04" x2="313.69" y2="742.28"/>
	<line class="st21" x1="303.71" y1="46.69" x2="303.96" y2="46.55"/>
	<line class="st21" x1="367.56" y1="851.08" x2="367.56" y2="717.52"/>
	<line class="st21" x1="297.12" y1="872.61" x2="297.12" y2="751.84"/>
	<line class="st21" x1="346.84" y1="843.9" x2="346.84" y2="723.14"/>
	<line class="st21" x1="505.73" y1="981.93" x2="483.58" y2="969.14"/>
	<line class="st21" x1="462.85" y1="475.62" x2="472.92" y2="481.43"/>
	<line class="st21" x1="411.53" y1="690.65" x2="408.99" y2="686.26"/>
	<line class="st21" x1="374.93" y1="563.67" x2="306.71" y2="603.06"/>
	<line class="st21" x1="404.86" y1="1033.77" x2="400.71" y2="1036.17"/>
	<line class="st21" x1="422.86" y1="1029.78" x2="400.71" y2="1016.98"/>
	<line class="st21" x1="483.58" y1="969.14" x2="483.58" y2="784.51"/>
	<line class="st21" x1="429.09" y1="268.18" x2="429.09" y2="268.18"/>
	<line class="st21" x1="645.95" y1="867.79" x2="640.2" y2="864.47"/>
	<line class="st21" x1="629.37" y1="877.36" x2="645.95" y2="867.79"/>
	<line class="st21" x1="645.95" y1="867.79" x2="650.09" y2="870.18"/>
	<line class="st21" x1="417.28" y1="1016.98" x2="417.28" y2="1014.61"/>
	<line class="st21" x1="487.73" y1="985.93" x2="483.58" y2="988.33"/>
	<line class="st21" x1="367.76" y1="358.28" x2="391.57" y2="344.53"/>
	<line class="st21" x1="376.67" y1="525.37" x2="454.56" y2="417.96"/>
	<line class="st21" x1="454.56" y1="480.4" x2="502.35" y2="507.94"/>
	<line class="st21" x1="540.74" y1="430.65" x2="462.85" y2="413.18"/>
	<line class="st21" x1="511.68" y1="447.43" x2="488.23" y2="460.96"/>
	<line class="st21" x1="454.56" y1="480.4" x2="405.73" y2="508.59"/>
	<line class="st21" x1="376.67" y1="525.37" x2="352.8" y2="558.29"/>
	<line class="st21" x1="540.74" y1="430.65" x2="564.61" y2="436"/>
	<line class="st21" x1="418.01" y1="516.7" x2="421.42" y2="518.67"/>
	<line class="st21" x1="500.88" y1="468.86" x2="504.29" y2="470.83"/>
	<line class="st21" x1="413.14" y1="523.46" x2="352.8" y2="558.29"/>
	<line class="st21" x1="413.14" y1="519.51" x2="413.14" y2="523.46"/>
	<line class="st21" x1="421.42" y1="518.67" x2="421.42" y2="514.73"/>
	<line class="st21" x1="496.01" y1="471.67" x2="496.01" y2="475.61"/>
	<line class="st21" x1="504.29" y1="470.83" x2="504.29" y2="466.88"/>
	<line class="st21" x1="564.61" y1="436" x2="504.29" y2="470.83"/>
	<line class="st21" x1="344.51" y1="553.51" x2="368.38" y2="520.59"/>
	<line class="st21" x1="352.8" y1="558.29" x2="344.51" y2="553.51"/>
	<line class="st21" x1="556.33" y1="431.22" x2="532.45" y2="425.86"/>
	<line class="st21" x1="564.61" y1="436" x2="556.33" y2="431.22"/>
	<line class="st21" x1="505.73" y1="996.32" x2="505.73" y2="981.93"/>
	<line class="st21" x1="514.02" y1="977.15" x2="491.86" y2="964.35"/>
	<line class="st21" x1="483.58" y1="983.53" x2="483.58" y2="976.33"/>
	<line class="st21" x1="514.02" y1="991.54" x2="505.73" y2="996.32"/>
	<line class="st21" x1="514.02" y1="977.15" x2="514.02" y2="991.54"/>
	<line class="st21" x1="505.73" y1="981.93" x2="514.02" y2="977.15"/>
	<line class="st21" x1="666.66" y1="861.45" x2="662.52" y2="859.06"/>
	<line class="st21" x1="650.09" y1="870.18" x2="650.09" y2="866.24"/>
	<line class="st21" x1="650.09" y1="866.24" x2="654.23" y2="868.63"/>
	<line class="st21" x1="654.23" y1="1154" x2="654.23" y2="868.63"/>
	<line class="st21" x1="663.25" y1="858.64" x2="658.38" y2="855.83"/>
	<line class="st21" x1="658.38" y1="855.83" x2="654.23" y2="858.22"/>
	<line class="st21" x1="658.38" y1="851.88" x2="654.23" y2="854.28"/>
	<line class="st21" x1="654.23" y1="854.28" x2="650.09" y2="851.88"/>
	<line class="st21" x1="654.23" y1="858.22" x2="654.23" y2="854.28"/>
	<line class="st21" x1="662.52" y1="863" x2="654.23" y2="858.22"/>
	<line class="st21" x1="658.38" y1="851.88" x2="654.23" y2="849.49"/>
	<line class="st21" x1="658.38" y1="855.83" x2="658.38" y2="851.88"/>
	<line class="st21" x1="670.81" y1="859.06" x2="666.66" y2="856.67"/>
	<line class="st21" x1="658.38" y1="866.24" x2="654.23" y2="863.85"/>
	<line class="st21" x1="644.34" y1="862.08" x2="640.2" y2="864.47"/>
	<line class="st21" x1="645.95" y1="863" x2="644.34" y2="862.08"/>
	<line class="st21" x1="662.52" y1="859.06" x2="662.52" y2="863"/>
	<line class="st21" x1="650.09" y1="851.88" x2="650.09" y2="865.4"/>
	<line class="st21" x1="637.66" y1="1144.43" x2="637.66" y2="1091.64"/>
	<line class="st21" x1="654.23" y1="849.49" x2="650.09" y2="851.88"/>
	<line class="st21" x1="666.66" y1="875.85" x2="658.38" y2="871.06"/>
	<line class="st21" x1="666.66" y1="1079.67" x2="658.38" y2="1074.88"/>
	<line class="st21" x1="666.66" y1="861.45" x2="670.81" y2="859.06"/>
	<line class="st21" x1="666.66" y1="875.85" x2="658.38" y2="880.63"/>
	<line class="st21" x1="666.66" y1="861.45" x2="666.66" y2="875.85"/>
	<line class="st21" x1="666.66" y1="1079.67" x2="658.38" y2="1084.45"/>
	<line class="st21" x1="666.66" y1="1065.28" x2="666.66" y2="1079.67"/>
	<line class="st21" x1="658.38" y1="1070.06" x2="666.66" y2="1065.28"/>
	<line class="st21" x1="670.81" y1="1144.43" x2="670.81" y2="859.06"/>
	<line class="st21" x1="654.23" y1="868.63" x2="658.38" y2="866.24"/>
	<line class="st21" x1="637.66" y1="1144.43" x2="654.23" y2="1154"/>
	<line class="st21" x1="654.23" y1="1154" x2="670.81" y2="1144.43"/>
	<line class="st21" x1="517.05" y1="535.62" x2="502.35" y2="507.94"/>
	<line class="st21" x1="525.33" y1="530.83" x2="510.64" y2="503.16"/>
	<line class="st21" x1="454.56" y1="499.59" x2="517.05" y2="535.62"/>
	<line class="st21" x1="525.33" y1="530.83" x2="517.05" y2="535.62"/>
	<line class="st21" x1="454.56" y1="480.4" x2="462.85" y2="475.62"/>
	<line class="st21" x1="532.45" y1="425.86" x2="454.56" y2="408.39"/>
	<line class="st21" x1="540.74" y1="430.65" x2="511.68" y2="447.43"/>
	<line class="st21" x1="532.45" y1="425.86" x2="540.74" y2="430.65"/>
	<line class="st21" x1="297.11" y1="327.06" x2="305.4" y2="322.27"/>
	<line class="st21" x1="375.83" y1="391.65" x2="436.49" y2="426.67"/>
	<line class="st21" x1="280.55" y1="933.26" x2="280.55" y2="938.04"/>
	<line class="st21" x1="346.84" y1="894.98" x2="346.84" y2="902.17"/>
	<line class="st21" x1="411.53" y1="690.65" x2="411.53" y2="697.92"/>
	<line class="st21" x1="411.53" y1="690.65" x2="414.23" y2="689.09"/>
	<line class="st21" x1="486.11" y1="654.86" x2="486.11" y2="647.59"/>
	<line class="st21" x1="411.53" y1="697.92" x2="420.53" y2="692.73"/>
	<line class="st21" x1="411.53" y1="697.92" x2="409.02" y2="696.47"/>
	<line class="st21" x1="409.02" y1="696.47" x2="408.99" y2="696.42"/>
	<line class="st21" x1="477.53" y1="632.75" x2="486.11" y2="647.59"/>
	<line class="st21" x1="459.63" y1="612.58" x2="391.42" y2="651.96"/>
	<line class="st21" x1="459.63" y1="612.58" x2="459.14" y2="614.46"/>
	<line class="st21" x1="443.6" y1="598.48" x2="459.63" y2="612.58"/>
	<line class="st21" x1="373.9" y1="563.5" x2="374.11" y2="564.14"/>
	<line class="st21" x1="373.9" y1="563.5" x2="358.84" y2="562.77"/>
	<line class="st21" x1="390.96" y1="568.1" x2="391.1" y2="568.79"/>
	<line class="st21" x1="390.96" y1="568.1" x2="374.93" y2="563.67"/>
	<line class="st21" x1="400.71" y1="1036.17" x2="400.71" y2="1031.38"/>
	<line class="st21" x1="268.12" y1="940.43" x2="276.4" y2="935.65"/>
	<line class="st21" x1="422.86" y1="1044.17" x2="422.86" y2="1029.78"/>
	<line class="st21" x1="431.15" y1="1039.38" x2="422.86" y2="1044.17"/>
	<line class="st21" x1="431.15" y1="1024.99" x2="431.15" y2="1039.38"/>
	<line class="st21" x1="422.86" y1="1029.78" x2="431.15" y2="1024.99"/>
	<line class="st21" x1="491.86" y1="964.35" x2="491.86" y2="784.49"/>
	<line class="st21" x1="483.58" y1="969.14" x2="491.86" y2="964.35"/>
	<line class="st21" x1="350.98" y1="892.59" x2="350.98" y2="867.85"/>
	<line class="st21" x1="505.73" y1="778.11" x2="483.58" y2="765.32"/>
	<line class="st21" x1="487.73" y1="782.11" x2="483.58" y2="784.51"/>
	<line class="st21" x1="483.58" y1="784.51" x2="483.58" y2="779.71"/>
	<line class="st21" x1="446.27" y1="413.18" x2="454.56" y2="417.96"/>
	<line class="st21" x1="376.67" y1="525.37" x2="405.73" y2="508.59"/>
	<line class="st21" x1="368.38" y1="520.59" x2="376.67" y2="525.37"/>
	<line class="st21" x1="227.5" y1="439.25" x2="219.22" y2="434.47"/>
	<line class="st21" x1="256.57" y1="422.47" x2="227.5" y2="439.25"/>
	<line class="st21" x1="505.73" y1="792.5" x2="505.73" y2="778.11"/>
	<line class="st21" x1="514.02" y1="773.32" x2="491.86" y2="760.53"/>
	<line class="st21" x1="514.02" y1="787.72" x2="505.73" y2="792.5"/>
	<line class="st21" x1="514.02" y1="773.32" x2="514.02" y2="787.72"/>
	<line class="st21" x1="505.73" y1="778.11" x2="514.02" y2="773.32"/>
	<line class="st21" x1="330.27" y1="853.47" x2="330.27" y2="732.71"/>
	<line class="st21" x1="344.15" y1="36.01" x2="609.86" y2="189.42"/>
	<line class="st21" x1="587.88" y1="181.54" x2="609.86" y2="189.42"/>
	<line class="st21" x1="609.86" y1="189.42" x2="607.05" y2="195.71"/>
	<line class="st21" x1="565.91" y1="173.66" x2="563.1" y2="179.95"/>
	<line class="st21" x1="428.39" y1="296.42" x2="604.44" y2="194.78"/>
	<line class="st21" x1="609.86" y1="189.42" x2="631.82" y2="197.3"/>
	<line class="st21" x1="475.72" y1="630.26" x2="414.77" y2="665.45"/>
	<line class="st21" x1="460.66" y1="613.59" x2="475.72" y2="630.26"/>
	<line class="st21" x1="408.25" y1="575.62" x2="408.33" y2="576.38"/>
	<line class="st21" x1="408.25" y1="575.62" x2="391.8" y2="568.39"/>
	<line class="st21" x1="330.27" y1="732.71" x2="327.73" y2="731.24"/>
	<line class="st21" x1="327.73" y1="731.24" x2="327.73" y2="703.2"/>
	<line class="st21" x1="321.98" y1="699.89" x2="327.73" y2="703.2"/>
	<line class="st21" x1="305.41" y1="709.45" x2="321.98" y2="699.89"/>
	<line class="st21" x1="330.27" y1="904.55" x2="313.69" y2="914.12"/>
	<line class="st21" x1="442.77" y1="597.82" x2="370.2" y2="639.72"/>
	<line class="st21" x1="442.77" y1="597.82" x2="442.63" y2="599.04"/>
	<line class="st21" x1="426.31" y1="586.04" x2="442.77" y2="597.82"/>
	<line class="st21" x1="565.91" y1="173.66" x2="587.88" y2="181.54"/>
	<line class="st21" x1="587.88" y1="181.54" x2="585.07" y2="187.83"/>
	<line class="st21" x1="333.64" y1="39.56" x2="338.89" y2="37.78"/>
	<line class="st21" x1="317.76" y1="41.89" x2="324.66" y2="39.56"/>
	<line class="st21" x1="213.24" y1="102.24" x2="184.38" y2="120.56"/>
	<line class="st21" x1="310.86" y1="44.22" x2="317.76" y2="41.89"/>
	<line class="st21" x1="242.1" y1="83.92" x2="213.24" y2="102.24"/>
	<line class="st21" x1="543.93" y1="165.78" x2="565.91" y2="173.66"/>
	<line class="st21" x1="349.4" y1="34.24" x2="631.82" y2="197.3"/>
	<line class="st21" x1="631.82" y1="197.3" x2="629.02" y2="203.59"/>
	<line class="st21" x1="344.15" y1="36.01" x2="349.4" y2="34.24"/>
	<line class="st21" x1="435.29" y1="265.42" x2="428.39" y2="296.42"/>
	<line class="st21" x1="428.39" y1="296.42" x2="421.49" y2="327.42"/>
	<line class="st21" x1="421.49" y1="327.42" x2="633.31" y2="205.13"/>
	<line class="st21" x1="421.49" y1="327.42" x2="415.28" y2="330.18"/>
	<line class="st21" x1="612.8" y1="1086.81" x2="612.8" y2="886.93"/>
	<line class="st21" x1="629.37" y1="1077.24" x2="629.37" y2="877.36"/>
	<line class="st21" x1="623.62" y1="874.04" x2="607.05" y2="883.61"/>
	<line class="st21" x1="612.8" y1="886.93" x2="629.37" y2="877.36"/>
	<line class="st21" x1="645.95" y1="1067.67" x2="645.95" y2="1086.86"/>
	<line class="st21" x1="607.05" y1="883.61" x2="590.48" y2="893.18"/>
	<line class="st21" x1="612.8" y1="886.93" x2="607.05" y2="883.61"/>
	<line class="st21" x1="596.22" y1="896.5" x2="612.8" y2="886.93"/>
	<line class="st21" x1="623.62" y1="874.04" x2="629.37" y2="877.36"/>
	<line class="st21" x1="640.2" y1="864.47" x2="623.62" y2="874.04"/>
	<line class="st21" x1="645.95" y1="1067.67" x2="645.95" y2="867.79"/>
	<line class="st21" x1="284.69" y1="938.06" x2="282.64" y2="939.24"/>
	<line class="st21" x1="417.28" y1="930.86" x2="433.85" y2="940.43"/>
	<line class="st21" x1="245.96" y1="942.03" x2="245.96" y2="927.64"/>
	<line class="st21" x1="245.96" y1="927.64" x2="247.4" y2="926.81"/>
	<line class="st21" x1="304.02" y1="46.59" x2="306.44" y2="50.48"/>
	<line class="st21" x1="270.9" y1="65.56" x2="270.93" y2="65.61"/>
	<line class="st21" x1="270.9" y1="65.56" x2="297.53" y2="48.73"/>
	<line class="st21" x1="431.05" y1="259.38" x2="426.32" y2="254.25"/>
	<line class="st21" x1="383.29" y1="339.74" x2="305.4" y2="322.27"/>
	<line class="st21" x1="313.68" y1="327.06" x2="305.4" y2="322.27"/>
	<line class="st21" x1="391.57" y1="344.53" x2="383.29" y2="339.74"/>
	<line class="st21" x1="276.4" y1="884.57" x2="276.4" y2="891.77"/>
	<line class="st21" x1="292.98" y1="894.14" x2="292.98" y2="901.34"/>
	<line class="st21" x1="367.56" y1="851.08" x2="367.56" y2="858.28"/>
	<line class="st21" x1="415.81" y1="301.45" x2="420.54" y2="306.58"/>
	<line class="st21" x1="297.11" y1="389.5" x2="285.39" y2="382.72"/>
	<line class="st21" x1="305.4" y1="384.71" x2="290.29" y2="375.97"/>
	<line class="st21" x1="436.83" y1="207.05" x2="431.58" y2="230.65"/>
	<line class="st21" x1="280.55" y1="1014.8" x2="280.55" y2="966.8"/>
	<line class="st21" x1="415.81" y1="301.45" x2="410.56" y2="325.05"/>
	<line class="st21" x1="447.34" y1="159.84" x2="442.08" y2="183.44"/>
	<line class="st21" x1="456.05" y1="134.27" x2="478.02" y2="142.15"/>
	<line class="st21" x1="294.58" y1="750.38" x2="278.01" y2="759.95"/>
	<line class="st21" x1="280.55" y1="761.41" x2="297.12" y2="751.84"/>
	<line class="st21" x1="294.58" y1="722.34" x2="278.01" y2="731.91"/>
	<line class="st21" x1="344.3" y1="721.67" x2="327.73" y2="731.24"/>
	<line class="st21" x1="338.55" y1="690.32" x2="344.3" y2="693.63"/>
	<line class="st21" x1="415.81" y1="301.45" x2="415.81" y2="301.45"/>
	<line class="st21" x1="338.55" y1="690.32" x2="334.41" y2="687.92"/>
	<line class="st21" x1="436.82" y1="207.04" x2="436.83" y2="207.05"/>
	<line class="st21" x1="342.7" y1="916.51" x2="342.7" y2="904.57"/>
	<line class="st21" x1="450.43" y1="950" x2="467" y2="959.57"/>
	<line class="st21" x1="464.9" y1="987.11" x2="475.29" y2="993.11"/>
	<line class="st21" x1="483.58" y1="969.14" x2="483.58" y2="976.33"/>
	<line class="st21" x1="467" y1="959.57" x2="483.58" y2="969.14"/>
	<line class="st21" x1="483.58" y1="988.33" x2="483.58" y2="983.53"/>
	<line class="st21" x1="475.29" y1="993.11" x2="483.58" y2="988.33"/>
	<line class="st21" x1="420.54" y1="306.58" x2="422.19" y2="299.18"/>
	<line class="st21" x1="348.45" y1="719.28" x2="344.3" y2="721.67"/>
	<line class="st21" x1="348.45" y1="691.24" x2="344.3" y2="693.63"/>
	<line class="st21" x1="350.98" y1="720.75" x2="348.45" y2="719.28"/>
	<line class="st21" x1="348.45" y1="701.69" x2="348.45" y2="719.28"/>
	<line class="st21" x1="338.55" y1="685.53" x2="334.41" y2="687.92"/>
	<line class="st21" x1="338.55" y1="685.53" x2="338.55" y2="681.59"/>
	<line class="st21" x1="334.41" y1="687.92" x2="334.41" y2="683.98"/>
	<line class="st21" x1="359.27" y1="679.2" x2="363.42" y2="681.59"/>
	<line class="st21" x1="350.98" y1="678.36" x2="355.86" y2="681.17"/>
	<line class="st21" x1="346.84" y1="672.02" x2="350.98" y2="674.41"/>
	<line class="st21" x1="334.41" y1="683.98" x2="330.27" y2="681.59"/>
	<line class="st21" x1="334.41" y1="683.98" x2="338.55" y2="681.59"/>
	<line class="st21" x1="334.41" y1="679.2" x2="338.55" y2="681.59"/>
	<line class="st21" x1="346.84" y1="690.32" x2="348.45" y2="691.24"/>
	<line class="st21" x1="350.98" y1="678.36" x2="350.26" y2="678.78"/>
	<line class="st21" x1="346.84" y1="676.8" x2="350.98" y2="674.41"/>
	<line class="st21" x1="350.98" y1="674.41" x2="350.98" y2="678.36"/>
	<line class="st21" x1="346.84" y1="723.14" x2="350.98" y2="720.75"/>
	<line class="st21" x1="363.42" y1="681.59" x2="359.27" y2="683.98"/>
	<line class="st21" x1="342.7" y1="674.41" x2="346.84" y2="672.02"/>
	<line class="st21" x1="330.27" y1="681.59" x2="334.41" y2="679.2"/>
	<line class="st21" x1="367.56" y1="902.16" x2="384.13" y2="911.73"/>
	<line class="st21" x1="433.85" y1="940.43" x2="450.43" y2="950"/>
	<line class="st21" x1="384.13" y1="911.73" x2="400.71" y2="921.29"/>
	<line class="st21" x1="280.5" y1="399.09" x2="275.59" y2="396.24"/>
	<line class="st21" x1="249.3" y1="361.85" x2="297.11" y2="327.06"/>
	<line class="st21" x1="203.63" y1="472.17" x2="227.5" y2="439.25"/>
	<line class="st21" x1="415.45" y1="349.88" x2="391.57" y2="344.53"/>
	<line class="st21" x1="346.84" y1="389.49" x2="272.26" y2="432.55"/>
	<line class="st21" x1="355.13" y1="384.71" x2="351.71" y2="382.74"/>
	<line class="st21" x1="346.84" y1="389.49" x2="346.84" y2="385.55"/>
	<line class="st21" x1="355.13" y1="380.76" x2="355.13" y2="384.71"/>
	<line class="st21" x1="263.97" y1="437.34" x2="203.63" y2="472.17"/>
	<line class="st21" x1="263.97" y1="437.34" x2="263.97" y2="433.39"/>
	<line class="st21" x1="272.26" y1="428.61" x2="272.26" y2="432.55"/>
	<line class="st21" x1="272.26" y1="432.55" x2="268.84" y2="430.58"/>
	<line class="st21" x1="415.45" y1="349.88" x2="384.33" y2="367.84"/>
	<line class="st21" x1="219.22" y1="434.47" x2="195.34" y2="467.39"/>
	<line class="st21" x1="195.34" y1="467.39" x2="203.63" y2="472.17"/>
	<line class="st21" x1="383.29" y1="339.74" x2="407.16" y2="345.1"/>
	<line class="st21" x1="407.16" y1="345.1" x2="415.45" y2="349.88"/>
	<line class="st21" x1="313.69" y1="742.28" x2="311.15" y2="740.81"/>
	<line class="st21" x1="311.15" y1="740.81" x2="311.15" y2="712.77"/>
	<line class="st21" x1="313.69" y1="914.12" x2="313.69" y2="889.37"/>
	<line class="st21" x1="305.41" y1="709.45" x2="311.15" y2="712.77"/>
	<line class="st21" x1="288.83" y1="719.02" x2="305.41" y2="709.45"/>
	<line class="st21" x1="313.69" y1="914.12" x2="297.12" y2="923.69"/>
	<line class="st21" x1="449.8" y1="175.18" x2="456.15" y2="146.59"/>
	<line class="st21" x1="431.58" y1="230.65" x2="426.32" y2="254.25"/>
	<line class="st21" x1="238" y1="92.25" x2="216.03" y2="106.2"/>
	<line class="st21" x1="303.96" y1="46.55" x2="310.86" y2="44.22"/>
	<line class="st21" x1="324.66" y1="39.56" x2="331.57" y2="37.23"/>
	<line class="st21" x1="184.38" y1="120.56" x2="155.51" y2="138.88"/>
	<line class="st21" x1="331.57" y1="37.23" x2="338.47" y2="34.91"/>
	<line class="st21" x1="155.51" y1="138.88" x2="126.65" y2="157.2"/>
	<line class="st21" x1="268.12" y1="741.43" x2="273.86" y2="744.75"/>
	<line class="st21" x1="268.12" y1="751" x2="276.4" y2="746.22"/>
	<line class="st21" x1="456" y1="172.43" x2="449.1" y2="203.43"/>
	<line class="st21" x1="573.9" y1="902.75" x2="579.65" y2="906.06"/>
	<line class="st21" x1="446.81" y1="188.57" x2="452.06" y2="164.97"/>
	<line class="st21" x1="583.79" y1="923.69" x2="575.51" y2="918.91"/>
	<line class="st21" x1="575.51" y1="928.47" x2="583.79" y2="923.69"/>
	<line class="st21" x1="579.65" y1="906.06" x2="580.38" y2="906.49"/>
	<line class="st21" x1="297.34" y1="597.64" x2="357.03" y2="563.18"/>
	<line class="st21" x1="268.12" y1="590.35" x2="245.96" y2="577.55"/>
	<line class="st21" x1="268.12" y1="604.74" x2="245.96" y2="591.94"/>
	<line class="st21" x1="276.4" y1="585.56" x2="254.25" y2="572.77"/>
	<line class="st21" x1="245.96" y1="591.94" x2="245.96" y2="577.55"/>
	<line class="st21" x1="245.96" y1="577.55" x2="254.25" y2="572.77"/>
	<line class="st21" x1="431.15" y1="689.3" x2="422.86" y2="694.08"/>
	<line class="st21" x1="422.86" y1="679.69" x2="431.15" y2="674.9"/>
	<path class="st21" d="M268.12,624.69c0.77-0.54,1.56-1.04,2.38-1.51"/>
	<line class="st21" x1="268.12" y1="624.69" x2="268.12" y2="604.74"/>
	<line class="st21" x1="268.12" y1="624.69" x2="272.97" y2="621.89"/>
	<line class="st21" x1="400.71" y1="701.24" x2="408.99" y2="696.46"/>
	<line class="st21" x1="259.83" y1="736.61" x2="263.97" y2="739"/>
	<line class="st21" x1="259.83" y1="740.55" x2="259.83" y2="736.61"/>
	<line class="st21" x1="251.54" y1="735.77" x2="259.83" y2="740.55"/>
	<line class="st21" x1="276.4" y1="760.87" x2="278.01" y2="759.95"/>
	<line class="st21" x1="259.83" y1="735.77" x2="259.83" y2="722.26"/>
	<line class="st21" x1="263.97" y1="728.59" x2="268.12" y2="726.2"/>
	<line class="st21" x1="273.86" y1="734.3" x2="273.86" y2="744.75"/>
	<line class="st21" x1="263.97" y1="728.59" x2="263.97" y2="724.65"/>
	<line class="st21" x1="272.26" y1="733.38" x2="263.97" y2="728.59"/>
	<line class="st21" x1="263.97" y1="734.22" x2="268.12" y2="736.61"/>
	<line class="st21" x1="251.54" y1="727.04" x2="255.69" y2="729.43"/>
	<line class="st21" x1="278.01" y1="731.91" x2="276.4" y2="730.98"/>
	<line class="st21" x1="278.01" y1="759.95" x2="280.55" y2="761.41"/>
	<line class="st21" x1="278.01" y1="731.91" x2="278.01" y2="759.95"/>
	<line class="st21" x1="268.12" y1="726.2" x2="268.12" y2="722.26"/>
	<line class="st21" x1="247.4" y1="729.43" x2="251.54" y2="731.83"/>
	<line class="st21" x1="268.12" y1="722.26" x2="263.97" y2="719.86"/>
	<line class="st21" x1="268.12" y1="722.26" x2="263.97" y2="724.65"/>
	<line class="st21" x1="259.83" y1="722.26" x2="263.97" y2="724.65"/>
	<line class="st21" x1="273.86" y1="734.3" x2="278.01" y2="731.91"/>
	<line class="st21" x1="272.26" y1="733.38" x2="273.86" y2="734.3"/>
	<line class="st21" x1="251.54" y1="735.77" x2="255.69" y2="733.38"/>
	<line class="st21" x1="255.69" y1="729.43" x2="251.54" y2="731.83"/>
	<line class="st21" x1="255.69" y1="729.43" x2="255.69" y2="733.38"/>
	<line class="st21" x1="251.54" y1="731.83" x2="251.54" y2="735.77"/>
	<line class="st21" x1="280.55" y1="761.41" x2="276.4" y2="763.81"/>
	<line class="st21" x1="263.97" y1="739" x2="268.12" y2="736.61"/>
	<line class="st21" x1="273.86" y1="744.75" x2="276.4" y2="746.22"/>
	<line class="st21" x1="251.54" y1="727.04" x2="247.4" y2="729.43"/>
	<line class="st21" x1="263.97" y1="719.86" x2="259.83" y2="722.26"/>
	<line class="st21" x1="263.97" y1="1024.37" x2="280.55" y2="1014.8"/>
	<line class="st21" x1="247.4" y1="1014.8" x2="263.97" y2="1024.37"/>
	<line class="st21" x1="449.1" y1="203.43" x2="442.89" y2="206.18"/>
	<line class="st21" x1="132.86" y1="167.12" x2="415.28" y2="330.18"/>
	<line class="st21" x1="415.28" y1="330.18" x2="420.54" y2="306.58"/>
	<line class="st21" x1="410.56" y1="325.05" x2="415.28" y2="330.18"/>
	<line class="st21" x1="128.13" y1="161.99" x2="132.86" y2="167.12"/>
	<line class="st21" x1="590.48" y1="893.18" x2="573.9" y2="902.75"/>
	<line class="st21" x1="596.22" y1="896.5" x2="590.48" y2="893.18"/>
	<line class="st21" x1="579.65" y1="906.06" x2="596.22" y2="896.5"/>
	<line class="st21" x1="442.08" y1="183.44" x2="436.83" y2="207.04"/>
	<line class="st21" x1="452.06" y1="164.97" x2="447.34" y2="159.84"/>
	<line class="st21" x1="446.81" y1="188.57" x2="442.08" y2="183.44"/>
	<line class="st21" x1="436.83" y1="207.04" x2="436.84" y2="207.05"/>
	<line class="st21" x1="571.36" y1="906.06" x2="579.65" y2="910.85"/>
	<line class="st21" x1="575.51" y1="914.08" x2="571.36" y2="911.69"/>
	<line class="st21" x1="567.22" y1="918.03" x2="558.93" y2="913.24"/>
	<line class="st21" x1="571.36" y1="916.48" x2="567.22" y2="914.08"/>
	<line class="st21" x1="583.79" y1="909.3" x2="579.65" y2="906.91"/>
	<line class="st21" x1="567.22" y1="914.08" x2="567.22" y2="918.03"/>
	<line class="st21" x1="575.51" y1="914.08" x2="571.36" y2="916.48"/>
	<line class="st21" x1="567.95" y1="913.66" x2="563.08" y2="910.85"/>
	<line class="st21" x1="558.93" y1="913.24" x2="563.08" y2="910.85"/>
	<line class="st21" x1="558.93" y1="909.3" x2="563.08" y2="906.91"/>
	<line class="st21" x1="569.76" y1="905.14" x2="569.76" y2="912.62"/>
	<line class="st21" x1="579.65" y1="910.85" x2="579.65" y2="906.91"/>
	<line class="st21" x1="563.08" y1="906.91" x2="558.93" y2="904.51"/>
	<line class="st21" x1="563.08" y1="910.85" x2="563.08" y2="906.91"/>
	<line class="st21" x1="558.93" y1="909.3" x2="554.79" y2="906.91"/>
	<line class="st21" x1="558.93" y1="913.24" x2="558.93" y2="909.3"/>
	<line class="st21" x1="583.79" y1="904.51" x2="587.94" y2="906.91"/>
	<line class="st21" x1="569.76" y1="905.14" x2="573.9" y2="902.75"/>
	<line class="st21" x1="571.36" y1="906.06" x2="569.76" y2="905.14"/>
	<line class="st21" x1="554.79" y1="1192.28" x2="554.79" y2="906.91"/>
	<line class="st21" x1="554.79" y1="906.91" x2="558.93" y2="904.51"/>
	<line class="st21" x1="583.79" y1="923.69" x2="583.79" y2="909.3"/>
	<line class="st21" x1="575.51" y1="1132.3" x2="583.79" y2="1127.51"/>
	<line class="st21" x1="587.94" y1="906.91" x2="583.79" y2="909.3"/>
	<line class="st21" x1="571.36" y1="1201.85" x2="554.79" y2="1192.28"/>
	<line class="st21" x1="587.94" y1="1192.28" x2="571.36" y2="1201.85"/>
	<line class="st21" x1="429.09" y1="268.18" x2="431.05" y2="259.38"/>
	<line class="st21" x1="462.85" y1="413.18" x2="454.56" y2="417.96"/>
	<line class="st21" x1="480.22" y1="495.17" x2="502.35" y2="507.94"/>
	<line class="st21" x1="502.35" y1="507.94" x2="510.64" y2="503.16"/>
	<line class="st21" x1="297.12" y1="751.84" x2="294.58" y2="750.38"/>
	<line class="st21" x1="294.58" y1="750.38" x2="294.58" y2="722.34"/>
	<line class="st21" x1="288.83" y1="719.02" x2="294.58" y2="722.34"/>
	<line class="st21" x1="272.26" y1="728.59" x2="288.83" y2="719.02"/>
	<line class="st21" x1="297.12" y1="923.69" x2="280.55" y2="933.26"/>
	<line class="st21" x1="330.27" y1="732.71" x2="346.84" y2="723.14"/>
	<line class="st21" x1="346.84" y1="723.14" x2="344.3" y2="721.67"/>
	<line class="st21" x1="346.84" y1="894.98" x2="346.84" y2="870.24"/>
	<line class="st21" x1="346.84" y1="894.98" x2="330.27" y2="904.55"/>
	<line class="st21" x1="348.45" y1="568.11" x2="297.31" y2="597.63"/>
	<line class="st21" x1="357.03" y1="563.18" x2="357.31" y2="563.66"/>
	<line class="st21" x1="357.03" y1="563.18" x2="348.45" y2="568.11"/>
	<line class="st21" x1="425.57" y1="585.56" x2="350.98" y2="628.62"/>
	<line class="st21" x1="425.57" y1="585.56" x2="425.57" y2="586.47"/>
	<line class="st21" x1="408.99" y1="575.99" x2="425.57" y2="585.56"/>
</g>
</svg>
