<?xml version="1.0" encoding="utf-8"?>
<!-- Generator: Adobe Illustrator 27.9.6, SVG Export Plug-In . SVG Version: 9.03 Build 54986)  -->
<svg version="1.1" id="Layer_2" xmlns="http://www.w3.org/2000/svg" xmlns:xlink="http://www.w3.org/1999/xlink" x="0px" y="0px"
	 viewBox="0 0 792 612" style="enable-background:new 0 0 792 612;" xml:space="preserve">
<style type="text/css">
	.st0{fill:#FFFFFF;stroke:#000000;stroke-width:16;stroke-miterlimit:10;}
	.st1{fill:#FFFFFF;}
	.st2{fill:#070707;}
</style>
<path class="st0" d="M518.83,326.03c0-69.54-57.26-125.91-127.9-125.91s-127.9,56.37-127.9,125.91s47.1,115.94,127.9,115.94
	C461.57,441.97,518.83,395.56,518.83,326.03z"/>
<path d="M489.84,309.36c-13.41,57.97-45.59,82.71-91.91,77.8c-47.04-4.98-64.79-44.3-62.92-87.61c0.67-15.63-0.88-82.85,28.23-99.43
	c15.26-8.69,33.58-2.6,63.99,7.53C456.24,217.31,509.39,224.82,489.84,309.36z"/>
<ellipse class="st1" cx="453.43" cy="294.91" rx="29.17" ry="34.1"/>
<ellipse transform="matrix(0.5703 -0.8214 0.8214 0.5703 -106.0025 502.6849)" class="st1" cx="427.51" cy="352.67" rx="23.02" ry="14.56"/>
<path class="st2" d="M502.5,238.96c0,0,13.58,10.62,19.45,14.9c7.63,5.56,19.09,12.66,35.44,18.9c-8.91-0.64-22.59-2.19-38.8-6.48
	c-10.58-2.8-17.02-5.39-26.58-8.97c-65.27-24.43-69.26-21.57-85.04-31.48c-17.15-10.77-20.75-18.28-38.68-19.5
	c-16.77-1.15-64.12,27.34-68.56,29.75c-1.22,0.66-3.88,1.87-4.64,1.05c-1.23-1.34,0.94-6.13,2.3-7.94
	c13.12-17.51,9.71-17.02,29.37-41.93c21.57-27.34,43.87-46.68,43.03-45.79c-4.45,4.72-12.54,14.67-15.72,29.52
	c-1.49,6.95-1.51,13.09-1.1,17.79c4.41-3.5,11.06-8.69,19.31-14.76c38.07-28,53.53-33.03,72.55-50.21
	c9.88-8.93,22.76-22.97,34.21-44.69c-1.54,6.62-4.44,16.95-10.11,28.69c-2.91,6.03-7.13,13.61-25.56,38.07
	c-5.45,7.23-13.09,17.19-22.54,28.97c15.68-2.84,36.23-8.3,58.48-19.31c14.84-7.34,27.04-15.47,36.69-22.9
	c-8.13,9.06-18.59,19.35-31.72,29.52c-14.05,10.88-27.5,18.8-38.9,24.55c15.14,4.64,40.52,10.31,71.82,7.31
	c26.29-2.52,46.97-10.21,60.31-16.41c-6.02,6.1-14.28,13.22-25.1,19.59c-19.79,11.64-38.66,15.21-50.38,16.41
	c8.93,4.32,20.56,8.88,34.58,11.86c22.76,4.85,42.27,3.51,55.25,1.52c-6.1,2.39-15.33,5.6-26.89,8
	C534.43,241.31,502.5,238.96,502.5,238.96z"/>
<path class="st2" d="M480.61,416.35c12.28-6.35,29.48-13.67,50.93-18.28c23.14-4.98,43.16-5.07,57.56-4.05
	c-9.2-3.05-21.17-5.94-35.31-6.62c-6.56-0.32-12.61-0.12-18.02,0.37c5.14-4.4,12.33-9.61,21.7-13.98
	c14.58-6.79,27.9-8.47,36.41-8.83c-11.33,0.34-25.04,1.67-40.28,5.15c-19.15,4.38-34.87,10.82-46.71,16.74
	C498.14,396.68,489.37,406.52,480.61,416.35z"/>
<path class="st2" d="M312.89,246.31"/>
</svg>
