<?xml version="1.0" encoding="UTF-8"?>
<svg id="Layer_1" data-name="Layer 1" xmlns="http://www.w3.org/2000/svg" viewBox="0 0 630.93 523.84">
  <defs>
    <style>
      .cls-1, .cls-2, .cls-3 {
        fill: none;
        stroke: #fff;
        stroke-linecap: round;
        stroke-linejoin: round;
      }

      .cls-2 {
        stroke-width: .25px;
      }

      .cls-3 {
        stroke-width: .5px;
      }
    </style>
  </defs>
  <rect class="cls-2" x=".12" y=".12" width="518.4" height="518.4"/>
  <rect class="cls-2" x="129.73" y="129.72" width="259.2" height="259.2"/>
  <rect class="cls-2" x="167.68" y="167.68" width="183.28" height="183.28" transform="translate(-107.42 259.33) rotate(-45)"/>
  <rect class="cls-2" x="76.04" y="76.04" width="366.56" height="366.56" transform="translate(-107.42 259.33) rotate(-45)"/>
  <rect class="cls-2" x="226.92" y="226.93" width="64.8" height="64.8"/>
  <path class="cls-1" d="m482.92,374.19c-1.16.05-5.21.69-8.09.94-1.64.14-2.9.17-6.27.97"/>
  <path class="cls-1" d="m475.22,371.13c-1.71,2.19-3.01,3.14-3.68,3.53-.59.34-.68.25-1.46.61-.44.2-1.1.55-1.52.83"/>
  <path class="cls-1" d="m527.89,447.56c.12-1.84.63-4.27,1.98-5.17,1.71-1.14,4.77.17,7.21,1.91,4.19,2.99,6.56,7.25,8.75,10.94,3.89,6.56,7.19,11.31,12.2,15.03,4.23,3.14,9.67,5.54,20.93,6.89"/>
  <path class="cls-1" d="m516.02,186.93c-1.45-.57-2.97-.98-4.52-1.15-3.6-.38-7.29.63-10.86,2.15-9.3,3.96-17.71,11.43-24.29,18.9-5.97,6.77-10.43,13.54-11.19,21.09"/>
  <path class="cls-1" d="m515.97,189.47c-1.86-1.56-3.94-1.71-5.72-1.31-5.84,1.29-8.51,8.44-11.93,14.57-6.44,11.54-15.55,19.45-26.65,23.39-2.11.75-4.3,1.35-6.5,1.81"/>
  <path class="cls-1" d="m527.85,439.64c1.9-.97,3.99-1.67,6.13-1.9,3.62-.39,7.41.55,10.61,1.89,4.21,1.77,7.4,4.25,10.89,6.89,4.8,3.64,10.18,7.58,15.2,13.8,2.47,3.06,4.86,6.67,6.25,9.71,1.01,2.19,1.5,4.08,2.04,7.12"/>
  <path class="cls-1" d="m572.92,476.24c9.4,3.53,12.76,6.14,16.12,8.75"/>
  <path class="cls-1" d="m578.37,474.2c1.8,1.9,3.84,2.98,5.78,4.75,1.74,1.58,3.4,3.72,4.9,6.03"/>
  <path class="cls-1" d="m534.95,160.36c4.72-3.78,11.32-6.06,17.34-5.67,8.71.57,16.19,6.76,23.92,11.06,8.24,4.58,16.76,7.02,24.82,10.6,9.67,4.3,18.67,10.24,24.39,20.61,2.19,3.97,3.9,8.6,4.62,12.88"/>
  <path class="cls-1" d="m524.02,179.6c.77-.06,1.6-.2,2.27-.51,2.89-1.32,2.91-5.72,3.73-9.29.99-4.3,3.16-7.39,4.92-9.43"/>
  <path class="cls-1" d="m417.63,195.73c1.13-4.75,2.81-9.33,4.96-13.78,4.39-9.1,10.72-17.66,19.4-22.79,6.74-3.98,14.89-5.9,20.67-10.6,6.46-5.25,9.96-13.97,16.96-19.61,6.77-5.46,16.82-8.04,24.6-4.98,5.56,2.19,9.96,7.25,15.18,20.59"/>
  <path class="cls-1" d="m519.07,147.23c-5.13-7.39-8.44-10.65-12.53-12.58-6.06-2.86-13.8-2.78-19.7,0-8.03,3.79-12.64,12.59-19.21,18.72-6.59,6.15-15.16,9.59-22.66,14.53-10.87,7.16-19.49,17.46-27.34,27.83"/>
  <path class="cls-1" d="m506.54,134.65c1.93,2.9,3.59,6,4.9,9.24,1.83,4.53,2.98,9.34,5.95,16.86"/>
  <path class="cls-1" d="m521.69,500.75c-1.57,3.59-3.73,7.01-6.56,9.77-4.76,4.64-11.41,7.42-17.94,8.4"/>
  <path class="cls-1" d="m514.25,402.23c-.2,6.9-.44,13.8-.58,20.71-.35,16.62-.19,33.27.27,49.86.43,15.66,1.1,31.27-16.74,46.11"/>
  <path class="cls-1" d="m503.79,242.42c1.48.49,2.99,1.15,4.18,2.08,3.99,3.11,4.47,9.22,5.94,14.41,1.02,3.59,2.51,6.73,5.74,13.64"/>
  <path class="cls-1" d="m575.44,330.88c.19.51.4,1.01.64,1.5.31.63.68,1.23,1.03,1.84.55.94,1.07,1.89,2.41,4.63"/>
  <path class="cls-1" d="m573.91,333.42c.66.36,1.3.77,1.88,1.24.64.52,1.23,1.1,1.78,1.71.36.4.7.8,1.03,1.22.32.41.62.82.92,1.25"/>
  <path class="cls-1" d="m525.86,294.45c1.89-1.52,3.98-1.63,5.75-1.2,5.82,1.41,8.34,8.61,11.63,14.81,6.21,11.67,15.16,19.76,26.18,23.92,2.1.79,4.27,1.44,6.46,1.94"/>
  <path class="cls-1" d="m525.86,291.91c1.46-.54,2.99-.92,4.54-1.06,3.6-.3,7.28.77,10.82,2.37,9.22,4.15,17.48,11.78,23.91,19.38,5.83,6.89,10.16,13.75,10.76,21.31"/>
  <path class="cls-1" d="m474.68,373.32c1.33.37,2.7.65,4.07.8,5.34.58,10.73-.89,15.89-2.95,5.32-2.12,10.39-4.86,14.23-8.65,1.15-1.14,2.19-2.37,3.55-3.51.65-.55,1.38-1.08,2.14-1.07.72,0,1.48.49,2.01,1.03"/>
  <path class="cls-1" d="m516.83,355.68c-.6-1.03-1.36-2.04-2.27-2.77-3.01-2.4-7.7-1.75-11.79-.67-5.75,1.52-10.3,3.88-15.19,6.69-4.61,2.66-9.52,5.72-11.68,10.42-.57,1.24-.95,2.6-1.22,3.96"/>
  <path class="cls-1" d="m519.33,478.78c-.99,9.23.2,19.36,4.92,27.41,4.51,7.68,12.23,13.47,20.28,17.15"/>
  <path class="cls-1" d="m527.05,475.25c-1.78,10.27-1.02,21.61,3.51,31.09,3.19,6.67,8.25,12.42,13.98,17.01"/>
  <path class="cls-1" d="m522.12,357.09c-.32-7.37-.32-14.75,0-22.12.47-10.9,1.64-21.77,3.48-32.51"/>
  <path class="cls-1" d="m518.42,394.55c-.06-21.62-.56-43.19-.17-64.85.3-16.64,1.12-33.33,1.35-48.63.24-16.07-.19-30.61-1.27-44.96-1.49-19.76-4.23-39.18-1.94-65.62,2.52-29.13,11.13-66.79,2.84-93.46-1.48-4.77-3.5-9.19-4.11-26.16"/>
  <path class="cls-1" d="m522.67,75.28v.56"/>
  <path class="cls-1" d="m517.64,71.9c.53.22,1.05.5,1.5.87.69.56,1.22,1.3,1.7,2.07.53.86.99,1.74,1.45,2.64.46.91.91,1.82,1.35,2.74.74,1.54,1.45,3.09,2.14,4.65"/>
  <path class="cls-1" d="m518.31,59.6c.03.08.04.17.04.26"/>
  <path class="cls-1" d="m524.91,9.41c.13.54.16,1.07.04,1.77-.08.46-.22.99-.53,1.39-.18.24-.42.42-.41.62.02.29.57.59.48.84-.06.17-.42.32-.45.48-.04.22.58.46.6.71.02.2-.35.4-.41.63-.09.38.68.86.52,1.13-.08.13-.38.22-.49.36-.22.27.31.73.36,1.15.06.48-.53.9-.44,1.32.06.3.45.59.45.87,0,.31-.51.6-.53.97-.03.4.5.9.34,1.14-.14.21-.82.22-.95.44-.16.28.48.88.31,1.23-.1.21-.47.33-.53.51-.12.32.81.82.74,1.13-.06.28-.92.41-.95.75-.03.27.45.66.34.89-.08.18-.53.24-.62.42-.11.21.32.58.28.87-.04.24-.42.42-.46.63-.07.33.78.72.66,1.09-.06.17-.33.34-.36.49-.05.3.98.49,1.04.72.06.25-1.07.55-1.06.9,0,.28.72.58.74.81.02.21-.57.36-.81.63-.17.19-.16.45-.26.68-.12.28-.41.53-.36.78.06.34.76.65.68.97-.07.27-.67.55-.62.78.05.22.71.38.74.6.02.19-.46.43-.47.69-.02.23.33.48.32.67-.02.21-.45.36-.51.6-.06.22.2.51.12.71-.08.2-.49.31-.54.48-.05.17.23.39.3.62.1.33-.25.67-.18.98.07.32.58.59.49.91-.05.18-.29.36-.24.52.06.18.51.3.49.44-.02.13-.46.26-.48.41-.02.13.28.27.36.41.15.25-.44.46-.63.77-.25.39.13.91-.09,1.25-.11.18-.4.31-.44.51-.09.38.75,1,.51,1.23-.12.11-.49.12-.59.25-.21.26.75,1.01.52,1.22-.11.1-.5.09-.59.24-.09.15.09.45.06.6-.04.26-.65.12-.66.29,0,.08.11.23.11.34,0,.22-.52.26-.63.4-.16.2.54.62.27.85-.14.12-.54.19-.62.35-.15.27.61.79.46.94-.14.14-1.08-.05-1.18.12-.08.14.35.5.17.53-.12.02-.5-.09-.57-.01-.1.11.35.58.23.75-.09.14-.54.09-.59.21-.05.11.23.36.23.53,0,.2-.41.29-.52.46-.14.21.21.54.23.85.01.15-.05.3-.12.44"/>
  <path class="cls-1" d="m491.5,28.3c.44.34.79.74,1.13,1.36.22.41.44.92.45,1.42,0,.3-.07.59.06.74.19.22.82.11.9.36.06.17-.13.51-.06.66.11.2.74,0,.91.18.14.14-.03.53.07.74.17.36,1.06.25,1.11.57.02.15-.16.41-.16.58,0,.35.7.39.99.68.34.34.15,1.03.48,1.31.23.19.72.19.89.4.19.25-.03.78.18,1.09.23.33.96.4.98.68.02.25-.5.68-.47.94.05.32.92.39,1.01.78.05.22-.16.55-.1.73.11.33,1.15.14,1.29.43.12.26-.47.89-.28,1.18.14.23.76.24.82.48.04.19-.27.52-.23.71.05.23.61.26.76.51.12.21-.07.59.03.78.15.3,1.06.08,1.19.45.06.17-.05.48.02.61.14.27,1.07-.23,1.26-.08.21.16-.5,1.1-.27,1.37.18.21.93,0,1.08.18.15.16-.23.64-.25.99-.01.25.15.45.22.7.08.29.01.67.2.83.26.22.99.04,1.13.34.12.25-.19.85,0,.99.18.14.8-.15.95.01.13.14-.09.62.06.83.13.19.56.17.67.33.11.17-.13.56-.03.78.09.21.48.28.54.49.06.21-.2.54-.13.71.06.16.42.16.62.3.28.2.22.68.46.88.25.2.82.1.95.41.07.17,0,.47.14.55.16.1.59-.08.66.04.07.11-.2.49-.12.62.07.11.39.04.54.1.27.1-.05.64-.02,1,.05.45.67.63.71,1.04.02.21-.12.49-.03.67.17.35,1.21.32,1.16.65-.03.16-.31.4-.31.56,0,.33,1.21.32,1.16.64-.02.15-.34.38-.31.55.02.17.35.29.42.43.12.23-.43.49-.34.64.04.07.23.11.3.2.13.18-.25.53-.25.71,0,.26.81.15.74.5-.04.18-.3.48-.27.66.05.3.97.24.94.45-.02.2-.88.63-.85.83.02.16.58.17.46.31-.08.09-.45.23-.46.35-.01.15.63.24.65.44.02.16-.37.4-.34.53.03.12.4.14.51.27.13.16-.14.48-.12.68.02.25.5.3.71.53.23.26.14.74.38.9.11.08.28.08.43.14.1.04.19.11.26.2"/>
  <path class="cls-1" d="m491.5,28.3c2.13,1.18,2.48,2.19,3.3,3.14.55.64,1.3,1.25,2.2,1.41.34.06.7.06.91.19.43.28.14,1.16.39,1.78.24.61.98.98,1.46,1.41,1.23,1.12.67,2.66,1.27,3.17.2.17.54.23.79.37.32.18.5.51.65,1.03.28,1,.42,2.72,1.45,3.37.51.32,1.23.39,1.81.63.78.32,1.3.98,1.16,2.02-.06.43-.23.92-.22,1.31.02,1.07,1.39,1.37,2.09,2.04,1.12,1.07.57,3.05,2.37,4.38.44.33,1.02.61,1.42.97,1.01.91.84,2.26,1.37,3.16.29.51.81.87,1.28,1.31.19.18.38.37.55.58"/>
  <path class="cls-1" d="m486.56,54.93c.51.22.95.52,1.43,1.04.32.34.66.78.79,1.26.08.29.08.59.24.7.24.16.82-.1.96.12.1.15,0,.53.11.65.15.17.72-.18.93-.05.17.1.1.52.25.7.25.31,1.09-.02,1.21.27.06.14-.05.43-.01.61.08.34.77.2,1.13.41.42.25.4.96.79,1.15.27.13.74,0,.96.17.25.19.17.76.45,1.01.3.26,1.02.15,1.12.42.08.24-.32.78-.22,1.02.12.29.99.15,1.17.5.1.2-.02.57.08.73.19.29,1.15-.15,1.35.1.19.22-.23.98.02,1.21.2.18.8.04.91.26.09.17-.13.57-.04.75.11.21.66.09.86.3.17.18.08.59.22.75.22.25,1.05-.18,1.26.14.1.15.07.47.17.58.21.22.98-.49,1.2-.39.24.1-.21,1.19.08,1.39.22.16.9-.22,1.09-.1.18.12-.06.67,0,1.02.05.25.26.39.39.62.15.27.18.65.4.76.31.15.97-.21,1.18.05.18.22.03.87.25.96.2.09.73-.34.92-.22.17.1.07.62.26.79.17.15.58.02.73.15.15.14.02.57.17.77.14.18.53.15.64.34.11.18-.05.58.05.72.1.14.45.05.68.14.32.12.39.6.67.74.29.14.82-.11,1.02.16.11.15.12.45.27.5.18.06.55-.22.65-.13.09.09-.07.52.04.63.09.09.39-.06.54-.04.28.03.11.63.23.97.16.43.8.45.95.83.08.2,0,.51.14.66.25.3,1.25,0,1.28.34.01.16-.2.46-.16.62.08.32,1.25,0,1.29.33.01.15-.23.45-.17.61.06.16.41.2.52.31.18.19-.3.58-.17.7.06.06.25.05.34.12.17.14-.11.57-.06.75.07.25.82-.06.84.3,0,.18-.17.54-.1.71.13.28,1,0,1.03.2.03.19-.69.83-.61,1.01.06.15.61.02.52.19-.06.11-.37.34-.36.45.02.15.67.07.74.27.06.15-.25.48-.19.6.06.11.42.03.56.14.16.12-.01.5.05.69.08.24.55.16.82.33.27.18.32.62.55.76"/>
  <path class="cls-1" d="m486.56,54.93c2.36.61,2.95,1.5,3.98,2.21.69.48,1.57.88,2.49.82.35-.02.7-.12.93-.04.49.16.43,1.09.82,1.63.38.53,1.2.7,1.77,1,1.47.78,1.31,2.41,2.02,2.75.24.12.58.08.86.16.36.09.61.36.88.83.52.9,1.09,2.52,2.24,2.9.57.19,1.29.07,1.91.15.84.12,1.51.62,1.62,1.66.05.43,0,.95.11,1.32.29,1.03,1.69.98,2.54,1.46,1.35.75,1.31,2.81,3.39,3.65.51.21,1.14.34,1.61.58,1.21.63,1.38,1.97,2.11,2.72.41.42,1,.64,1.57.95.76.41,1.48.96,1.79,1.77.36.95.15,2.25.63,2.94.23.33.62.53.89.78.53.5.58,1.24.82,1.98"/>
  <path class="cls-1" d="m545.43,30.43c-.07.55-.24,1.06-.6,1.66-.24.4-.57.85-1,1.11-.25.15-.55.24-.61.43-.09.27.32.76.15.96-.12.14-.51.15-.6.28-.12.19.37.64.3.88-.05.19-.47.24-.61.44-.23.32.32,1.04.07,1.24-.12.1-.43.07-.58.16-.3.17.02.79-.08,1.2-.12.47-.82.65-.89,1.08-.05.3.21.71.1.97-.12.29-.69.37-.85.71-.17.36.14,1.02-.09,1.19-.21.14-.84-.09-1.04.07-.25.2.13.99-.16,1.26-.17.16-.56.14-.68.28-.23.26.46,1.06.28,1.33-.16.24-1,.05-1.16.35-.12.24.18.78,0,.95-.14.13-.59.04-.73.17-.18.16.09.66-.05.91-.12.21-.55.24-.66.42-.18.28.46.95.22,1.25-.12.14-.44.2-.51.32-.16.26.74.81.71,1.04-.03.26-1.2.13-1.32.46-.09.26.46.8.4,1.02-.06.2-.66.13-.98.29-.23.12-.31.36-.49.54-.22.22-.57.35-.62.6-.06.34.47.88.28,1.15-.16.23-.83.27-.86.5-.03.22.53.61.47.82-.05.19-.58.24-.69.47-.1.21.14.56.05.74-.09.19-.55.18-.69.38-.13.19,0,.55-.15.71-.15.16-.57.11-.68.25-.11.14.07.45.05.69-.03.34-.47.54-.52.85-.05.32.33.76.13,1.02-.11.14-.4.24-.41.4,0,.19.37.47.3.58-.06.11-.52.08-.6.21-.06.11.16.36.19.51.05.28-.58.28-.87.49-.37.27-.21.9-.53,1.14-.17.13-.48.15-.6.31-.22.32.34,1.21.03,1.33-.15.06-.5-.06-.64.02-.29.17.34,1.21.04,1.33-.14.06-.5-.1-.64.01-.13.1-.08.45-.16.58-.13.22-.64-.12-.72.03-.04.07.02.26-.02.36-.08.2-.58.05-.74.15-.22.13.28.77-.06.89-.17.06-.57-.02-.71.1-.23.2.28.95.09,1.04-.18.08-.99-.44-1.14-.31-.12.1.15.59-.03.55-.12-.02-.43-.27-.53-.22-.14.06.11.66-.05.78-.13.1-.53-.11-.63-.02-.09.08.08.42.02.57-.08.19-.49.13-.65.24-.07.05-.09.13-.1.23"/>
  <path class="cls-1" d="m527.28,113.12c.97-4.59,1.59-9.28,1.35-13.98-.48-9.22-4.31-18.47-6.72-25.47-1.66-4.84-2.65-8.61-3.31-12.28-.77-4.33-1.09-8.54-2.24-12.22"/>
  <path class="cls-1" d="m524.91,9.41c.94,2.25.59,3.26.64,4.51.03.84.25,1.79.85,2.48.23.26.51.48.59.71.17.49-.61,1-.8,1.64-.19.63.16,1.38.27,2.01.27,1.64-1.13,2.5-.97,3.27.05.26.28.51.39.78.14.34.08.71-.13,1.21-.4.95-1.35,2.39-.96,3.54.2.57.72,1.06,1.03,1.61.41.74.42,1.57-.34,2.3-.31.3-.75.58-.99.89-.64.85.24,1.94.37,2.9.22,1.53-1.44,2.74-.86,4.91.14.53.42,1.11.51,1.64.23,1.34-.74,2.29-.89,3.32-.08.58.09,1.18.19,1.82.13.85.13,1.76-.33,2.49-.54.86-1.7,1.47-1.96,2.28-.12.38-.04.82-.08,1.18-.12,1.09-1.31,1.62-1.93,3.69-.33,1.09-.5,2.62-.76,3.55"/>
  <path class="cls-1" d="m503.44.55c1.67,1.77,1.7,2.84,2.19,3.99.33.77.86,1.59,1.67,2.02.31.16.65.27.81.46.33.4-.22,1.15-.18,1.82.04.65.64,1.23.96,1.79.83,1.44-.17,2.74.25,3.4.14.23.44.38.64.59.25.27.32.63.3,1.18-.04,1.03-.42,2.72.35,3.65.38.46,1.05.74,1.53,1.15.65.55.95,1.33.49,2.27-.19.39-.5.8-.61,1.18-.3,1.02.9,1.73,1.37,2.58.74,1.36-.39,3.07.93,4.9.32.44.78.89,1.05,1.35.69,1.17.12,2.41.34,3.42.13.57.5,1.07.82,1.64.42.75.74,1.6.57,2.45-.2,1-1.07,1.98-1.03,2.83.02.4.25.78.34,1.14.27,1.06-.65,1.98-.43,3.3.12.7.56,1.51.56,1.51"/>
  <path class="cls-1" d="m503.44.55c.31.46.52.95.66,1.64.09.46.14,1.01,0,1.49-.09.28-.25.54-.17.72.12.26.75.35.75.62,0,.18-.28.45-.26.61.04.22.7.23.81.45.09.18-.19.49-.16.73.05.39.94.56.88.88-.03.15-.28.34-.33.51-.11.33.55.58.74.95.22.43-.17,1.03.06,1.39.16.26.63.4.73.65.11.29-.26.74-.16,1.09.12.39.79.67.72.95-.06.25-.69.49-.73.75-.05.32.76.65.73,1.05-.02.23-.32.48-.32.66,0,.35,1.05.48,1.09.8.04.28-.71.71-.63,1.04.07.26.66.46.63.71-.02.19-.41.42-.43.61-.02.24.51.43.57.71.05.24-.24.55-.21.75.05.33.98.4,1,.79,0,.18-.19.44-.17.58.05.3,1.09.11,1.23.3.15.21-.81.89-.67,1.22.1.26.88.29.98.5.09.19-.41.54-.54.87-.09.24.01.47,0,.73-.02.3-.19.64-.06.85.18.29.93.34.98.67.03.28-.44.75-.3.94.13.18.8.1.9.3.09.17-.28.56-.2.81.07.22.48.33.53.52.06.2-.29.49-.26.74.02.23.37.41.36.63,0,.21-.35.46-.34.64.01.17.35.29.5.48.21.28,0,.72.17.98.18.27.75.35.78.68.01.18-.14.44-.04.57.12.14.58.1.62.23.03.12-.34.4-.3.55.03.13.36.16.48.26.22.18-.24.59-.32.94-.09.45.44.81.36,1.2-.04.21-.26.43-.23.63.05.39,1.06.67.91.97-.07.14-.41.29-.46.44-.1.32,1.06.68.91.96-.07.14-.44.26-.47.43-.03.17.24.39.27.54.05.25-.56.34-.52.51.02.08.19.18.23.28.07.21-.4.43-.45.6-.08.25.73.39.55.7-.09.16-.44.37-.46.54-.04.3.85.52.76.71-.08.18-1.03.33-1.06.53-.03.16.5.34.34.44-.1.06-.5.09-.54.19-.06.14.53.42.48.62-.03.16-.47.27-.48.4,0,.12.34.25.4.41.07.19-.28.42-.32.61-.06.24.38.43.51.72.15.31-.09.75.09.97.08.1.24.17.36.26.29.25.3.73.23,1.09"/>
  <path class="cls-1" d="m545.43,30.43c.06,2.43-.62,3.25-1.03,4.44-.27.8-.42,1.76-.1,2.62.12.33.3.64.3.88-.02.51-.93.71-1.34,1.24-.4.51-.35,1.34-.48,1.97-.34,1.62-1.95,1.93-2.09,2.7-.05.26.08.58.08.87,0,.37-.18.69-.56,1.08-.72.74-2.13,1.74-2.17,2.96-.02.6.29,1.25.38,1.87.12.84-.18,1.62-1.15,2.02-.4.16-.91.27-1.24.47-.91.56-.48,1.89-.7,2.84-.35,1.51-2.34,2.03-2.57,4.27-.06.54-.01,1.19-.12,1.71-.27,1.33-1.52,1.87-2.03,2.78-.29.51-.34,1.14-.48,1.77-.18.84-.52,1.69-1.2,2.21-.81.61-2.12.76-2.65,1.42-.25.31-.33.75-.5,1.07-.5.97-1.81,1.04-2.52,2.17-.38.6-.59,1.5-.59,1.5"/>
  <path class="cls-1" d="m517.99,336.74c-.81-2.61-2.21-5.18-4.2-7.04-1.62-1.5-3.62-2.54-5.67-3.46-4.23-1.92-8.63-3.36-13.18-3.92"/>
  <path class="cls-1" d="m420.64,352.73c3.43-3.21,7.22-5.88,11.12-8.65,5.72-4.06,11.68-8.32,18.77-8.61,3.95-.16,8.24.9,11.49-.23,4.98-1.74,7.5-8.67,11.73-13.17,7.68-8.17,21-8.33,31.62-5.05,4.84,1.49,9.11,3.7,13.01,6.61"/>
  <path class="cls-1" d="m518.25,329.7c-2.33-1.93-4.89-3.57-7.71-4.8-7.79-3.42-17.56-3.76-25.12,0-7.71,3.84-13.13,11.96-20.56,15.29-8.76,3.92-20.33,1.19-29.92,4.17-5.26,1.63-9.93,4.99-14.28,8.37"/>
  <path class="cls-1" d="m526.28,354.4c.59-31.03-1.63-46.97-.21-65.9.71-9.54,2.35-19.84,8.07-23.92,6.62-4.72,18.7-1.1,30.89,2.55,12.79,3.83,25.69,7.71,32.15,16.9,6.47,9.21,6.47,23.77,13.54,32.43,3.44,4.22,8.56,7.04,13.51,9.38"/>
  <path class="cls-1" d="m525.73,186.12c0,6.95.19,13.89,0,20.86-.24,8.64-1.05,17.33,0,25.87.91,7.39,3.23,14.66,6.16,21.53"/>
  <path class="cls-1" d="m528.63,99.14c4.13-2.17,11.99-7.13,16.85-7.62,8.74-.87,18.91,1.18,23.92,7.92,2.62,3.52,3.82,8.32,6.46,11.47,4.18,4.98,11.97,5.84,19.39,7.59,6.05,1.43,11.86,3.46,14.99,8,1.77,2.57,2.68,5.93,2.97,9.12"/>
  <path class="cls-1" d="m525.73,186.12c-1.07-3.63-2.02-7.37-2.56-11.06-2-13.8,1.85-27.02,2.56-42.34.47-10.13-.43-21.18,5.68-27.47,5.32-5.47,15.94-7.34,23.92-4.85,10.09,3.15,15.92,13.29,25.37,17.61,9.13,4.18,21.64,2.93,28.12,10.02,1.9,2.08,3.28,4.88,4.38,7.59"/>
  <path class="cls-1" d="m525.73,186.12c3.33-7.41,8.93-15.55,15.81-18.55,10.27-4.47,23.37,2.53,35.57,7.6,12.65,5.26,24.33,8.44,34.36,15.51,7.1,5,13.37,11.93,18.55,19.16"/>
  <path class="cls-1" d="m531.89,253.97c7.64-1.38,20.88-2.51,28.15-.19,6.29,2.01,11.75,5.91,18.02,9.01,11.61,5.75,25.99,8.78,32.66,18.02,5.44,7.54,5.74,19.2,8.26,29.28,1.38,5.51,3.42,10.54,5.26,15.77"/>
  <path class="cls-1" d="m630.43,422.65c-1.97-6.14-4.76-11.66-7.76-17.72-3.17-6.42-6.56-13.44-12.05-16.58-6.64-3.8-16.35-1.9-24.59-3.4-11.12-2.02-19.57-10.22-28.28-17.94-5.72-5.07-11.55-9.93-18.55-11.86-4.45-1.22-9.37-1.26-13.99-.61"/>
  <path class="cls-1" d="m527.05,475.25c.82-15.99,1.13-33.01.61-48.04-.44-12.87-1.49-24.29-2.43-41.05-.55-9.9-1.07-21.67,3.65-24.02,4.44-2.21,13.5,3.9,20.68,9.73,10.56,8.59,17.02,16.58,26.76,20.37,11.94,4.65,28.79,2.99,39.83,10.64,6.53,4.53,11.03,12.32,14.29,19.76"/>
  <path class="cls-1" d="m403.15,315.69c.39-6.01,1.75-11.86,3.95-17.64,3.95-10.36,10.63-20.51,20.68-24.93,7.49-3.3,16.85-3.42,22.8-7.91,5.45-4.11,8.05-11.87,12.47-18.24,3.24-4.67,7.46-8.61,12.47-10.34,8.51-2.94,19.29.47,26.97,5.49"/>
  <path class="cls-1" d="m503.79,242.42c-4.93-1.15-10.67-1.67-15.2,0-8.09,2.97-12.37,12.88-18.75,19.6-8.95,9.43-22.03,12.61-32.96,19.03-13.89,8.16-24.31,21.57-33.73,34.65"/>
  <path class="cls-1" d="m513.47,389.84c1.12-8.99,2.02-18,2.79-27.02,1.38-16.17,2.32-32.36,2.13-48.65-.18-15.35-1.38-30.78-5.17-45.61-2.3-8.98-5.55-17.73-9.43-26.15"/>
  <path class="cls-1" d="m381.6,452.02c2.51-6.99,6.21-13.69,11.15-19.31,7.92-9,19.05-15.22,30.81-18.09,11.1-2.71,22.77-2.42,33.2-6,7.17-2.46,13.77-6.74,20.09-11.6,5.96-4.58,11.68-9.67,18.95-10.94,8.03-1.4,17.96,1.85,22.63,8.47,3.2,4.54,3.93,10.66,3.59,16.17"/>
  <path class="cls-1" d="m519.33,478.78c.53-13.37-1.62-25.13.3-40.14,1.68-13.09,6.46-28.64-1.82-34.97-3.26-2.49-8.56-3.56-13.38-3.34-8.31.36-15.23,4.52-22.2,8.51-7.65,4.39-15.35,8.6-23.72,10.95-12.03,3.37-25.44,2.89-36.79,7.6-7.93,3.29-14.86,9.11-22.2,13.99-5.83,3.88-11.92,7.17-17.94,10.64"/>
  <path class="cls-1" d="m465.66,224.9c-.2.5-.42,1-.67,1.49-.32.62-.7,1.22-1.07,1.82-.57.93-1.11,1.87-2.5,4.58"/>
  <path class="cls-1" d="m246.35,294.8c-.36,6.14-.81,12.04-1.29,17.62-.45,5.2-.95,10.1-.57,15.97.22,3.38.72,7.07-.65,9.21-.5.79-1.26,1.36-2.35,1.66"/>
  <path class="cls-1" d="m241.48,339.27c-1.41-1.17-2.69-2.63-3.44-4.29-1.05-2.31-1.07-4.99-.92-7.62.48-8.28,2.69-16.04,5.75-23.49,1.2-2.93,2.54-5.82,3.47-9.07"/>
  <path class="cls-1" d="m241.48,339.27c.12-2.13.25-4.27.36-6.4.23-4.54.37-9.09.77-13.62.71-8.09,2.26-16.12,3.73-24.44"/>
  <path class="cls-1" d="m248,314.86c.1.15.31.2.47.14.22-.09.34-.4.14-.69"/>
  <path class="cls-1" d="m244.81,320.41c.1.15.31.2.47.14.22-.09.34-.4.14-.69"/>
  <path class="cls-1" d="m244.47,323.05c.1.15.31.2.47.14.22-.09.34-.4.14-.69"/>
  <path class="cls-1" d="m244.36,322.37c.16.07.37.13.52.07.22-.09.34-.4.18-.68"/>
  <polyline class="cls-1" points="167.57 226.11 205.6 183.11 313.09 183.1 351.12 226.11 351.12 230.54 316.83 230.54 316.83 236.41 313.09 236.41 313.2 343.03 316.83 343.03 316.83 351.13 313.2 351.13 313.2 388.92 302.43 388.92 302.43 353.83 216.26 353.83 216.26 388.92 205.48 388.92"/>
  <path class="cls-1" d="m246.16,310.45c.1.15.31.2.47.14.22-.09.34-.4.14-.69"/>
  <path class="cls-1" d="m245.08,311.07c.16.07.37.13.52.07.22-.09.34-.4.18-.68"/>
  <path class="cls-1" d="m245.68,311.1c.1.15.31.2.47.14.22-.09.34-.4.14-.69"/>
  <path class="cls-1" d="m246.15,311.24c.16.07.37.13.52.07.22-.09.34-.4.18-.68"/>
  <path class="cls-1" d="m246.75,311.27c.1.15.31.2.47.14.22-.09.34-.4.14-.69"/>
  <path class="cls-1" d="m248.63,308.15c.1.15.31.2.47.14.22-.09.34-.4.14-.69"/>
  <path class="cls-1" d="m245.65,305.09c.16.07.37.13.52.07.22-.09.34-.4.18-.68"/>
  <path class="cls-1" d="m249.11,304.52c.1.15.31.2.47.14.22-.09.34-.4.14-.69"/>
  <path class="cls-1" d="m248.27,305.53c.16.07.37.13.52.07.22-.09.34-.4.18-.68"/>
  <path class="cls-1" d="m248.86,305.55c.1.15.31.2.47.14.22-.09.34-.4.14-.69"/>
  <path class="cls-1" d="m246.2,300.56c.16.07.37.13.52.07.22-.09.34-.4.18-.68"/>
  <path class="cls-1" d="m249.67,300c.1.15.31.2.47.14.22-.09.34-.4.14-.69"/>
  <path class="cls-1" d="m248.72,303.56c.1.15.31.2.47.14.22-.09.34-.4.14-.69"/>
  <path class="cls-1" d="m248.88,298.02c.1.15.31.2.47.14.22-.09.34-.4.14-.69"/>
  <path class="cls-1" d="m249.42,298.12c.16.07.37.13.52.07.22-.09.34-.4.18-.68"/>
  <path class="cls-1" d="m250.02,298.14c.1.15.31.2.47.14.22-.09.34-.4.14-.69"/>
  <path class="cls-1" d="m247.77,294.26c.16.07.37.13.52.07.22-.09.34-.4.18-.68"/>
  <path class="cls-1" d="m251.68,295.53c.16.07.37.13.52.07.22-.09.34-.4.18-.68"/>
  <path class="cls-1" d="m252.28,295.55c.1.15.31.2.47.14.22-.09.34-.4.14-.69"/>
  <path class="cls-1" d="m248.59,292.9c.16.07.37.13.52.07.22-.09.34-.4.18-.68"/>
  <path class="cls-1" d="m248.11,293.55c.16.07.37.13.52.07.22-.09.34-.4.18-.68"/>
  <path class="cls-1" d="m254.43,292.19c.1.15.31.2.47.14.22-.09.34-.4.14-.69"/>
  <path class="cls-1" d="m467.14,227.47c-.67.34-1.31.74-1.91,1.2-.65.5-1.25,1.08-1.81,1.68-.37.39-.72.79-1.06,1.2-.33.4-.64.81-.94,1.23"/>
  <path class="cls-1" d="m274.62,339.51c1.01-.11,2.02-.38,2.94-.85,1.64-.83,3-2.3,3.8-3.92,1.77-3.58.79-7.92-.27-12.07-2.25-8.82-4.85-16.78-10.25-26.43"/>
  <path class="cls-1" d="m270.84,296.25c.37,3.4,2.21,8.63,3.68,13.46,1.86,6.16,3.11,11.69,3,16.73-.05,2.38-.41,4.65-2.33,7.37"/>
  <path class="cls-1" d="m268.54,311.7c.16.08.37.03.48-.1.15-.18.11-.51-.2-.67"/>
  <path class="cls-1" d="m269.49,314.7c.16.08.37.03.48-.1.15-.18.11-.51-.2-.67"/>
  <path class="cls-1" d="m267.69,315.31c.16.08.37.03.48-.1.15-.18.11-.51-.2-.67"/>
  <path class="cls-1" d="m268.16,315.21c.18-.01.38-.07.49-.19.15-.18.11-.51-.17-.68"/>
  <path class="cls-1" d="m268.7,314.95c.16.08.37.03.48-.1.15-.18.11-.51-.2-.67"/>
  <path class="cls-1" d="m267.04,316.37c.18-.01.38-.07.49-.19.15-.18.11-.51-.17-.68"/>
  <path class="cls-1" d="m268.59,315.75c.16.08.37.03.48-.1.15-.18.11-.51-.2-.67"/>
  <path class="cls-1" d="m267.52,318.95c.16.08.37.03.48-.1.15-.18.11-.51-.2-.67"/>
  <path class="cls-1" d="m268.11,318.05c.18-.01.38-.07.49-.19.15-.18.11-.51-.17-.68"/>
  <path class="cls-1" d="m267.63,318.15c.16.08.37.03.48-.1.15-.18.11-.51-.2-.67"/>
  <path class="cls-1" d="m267.63,314.11c.16.08.37.03.48-.1.15-.18.11-.51-.2-.67"/>
  <path class="cls-1" d="m269.68,320.18c.16.08.37.03.48-.1.15-.18.11-.51-.2-.67"/>
  <path class="cls-1" d="m268.6,319.35c.16.08.37.03.48-.1.15-.18.11-.51-.2-.67"/>
  <path class="cls-1" d="m271.42,317.68c.16.08.37.03.48-.1.15-.18.11-.51-.2-.67"/>
  <path class="cls-1" d="m270.86,317.95c.18-.01.38-.07.49-.19.15-.18.11-.51-.17-.68"/>
  <path class="cls-1" d="m260.84,302.98c.16.08.37.03.48-.1.15-.18.11-.51-.2-.67"/>
  <path class="cls-1" d="m260.3,303.24c.18-.01.38-.07.49-.19.15-.18.11-.51-.17-.68"/>
  <path class="cls-1" d="m260.41,302.44c.18-.01.38-.07.49-.19.15-.18.11-.51-.17-.68"/>
  <path class="cls-1" d="m261.35,301.61c.16.08.37.03.48-.1.15-.18.11-.51-.2-.67"/>
  <path class="cls-1" d="m258.68,296.95c.18-.01.38-.07.49-.19.15-.18.11-.51-.17-.68"/>
  <path class="cls-1" d="m258.57,297.75c.18-.01.38-.07.49-.19.15-.18.11-.51-.17-.68"/>
  <path class="cls-1" d="m258.75,295.37c.18-.01.38-.07.49-.19.15-.18.11-.51-.17-.68"/>
  <path class="cls-1" d="m258.64,296.17c.18-.01.38-.07.49-.19.15-.18.11-.51-.17-.68"/>
  <path class="cls-1" d="m251.55,297.53c.22-3.07.63-3.27.76-3.64.13-.38,0-.93.09-1.3.1-.37.45-.54.52-.77.07-.23-.13-.51,0-.78.13-.27.58-.53.76-.91s.1-.87.41-1.21c.31-.34,1.02-.53,1.36-.93.34-.4.31-1,.91-1.43.61-.44,1.85-.7,2.64-.31.79.39,1.14,1.43,1.4,1.88.26.44.44.29.8.93.36.64.9,2.08,1.08,2.89s0,1,.11,1.24c.12.24.54.53.66.88.12.34-.06.74,0,1.07.05.33.34.6.44.96s.02.83.13,1.16c.11.34.42.55.36.79-.07.24-.51.51.08,1.23"/>
  <path class="cls-1" d="m257.21,339.14c1.01.14,2.05.13,3.06-.09,1.79-.4,3.48-1.48,4.65-2.85,2.6-3.03,2.72-7.48,2.72-11.76,0-9.11-.55-17.46-3.39-28.14"/>
  <path class="cls-1" d="m257.21,339.14c-1.66-.79-3.25-1.89-4.38-3.31-1.58-1.98-2.26-4.58-2.76-7.17-1.56-8.15-1.32-16.21-.17-24.18.45-3.14,1.04-6.26,1.14-9.64"/>
  <path class="cls-1" d="m258.2,310.69c.14.12.35.12.49.03.19-.14.23-.47-.03-.7"/>
  <path class="cls-1" d="m254.99,315.64c.14.12.35.12.49.03.19-.14.23-.47-.03-.7"/>
  <path class="cls-1" d="m255.83,320.04c.14.12.35.12.49.03.19-.14.23-.47-.03-.7"/>
  <path class="cls-1" d="m256.14,322.68c.14.12.35.12.49.03.19-.14.23-.47-.03-.7"/>
  <path class="cls-1" d="m256.45,321.94c.14.12.35.12.49.02.19-.14.23-.47-.03-.7"/>
  <path class="cls-1" d="m255.86,322.06c.17.03.39.03.52-.06.19-.14.23-.47,0-.7"/>
  <path class="cls-1" d="m258.22,305.34c.17.03.39.03.52-.07.19-.14.23-.47,0-.7"/>
  <path class="cls-1" d="m258.83,305.22c.14.12.35.12.49.03.19-.14.23-.47-.03-.7"/>
  <path class="cls-1" d="m253.8,310.92c.17.03.39.03.52-.07.19-.14.23-.47,0-.7"/>
  <path class="cls-1" d="m254.39,310.8c.14.12.35.12.49.03.19-.14.23-.47-.03-.7"/>
  <path class="cls-1" d="m252.89,304.98c.17.03.39.03.52-.07.19-.14.23-.47,0-.7"/>
  <path class="cls-1" d="m252.9,300.34c.14.12.35.12.49.03.19-.14.23-.47-.03-.7"/>
  <path class="cls-1" d="m252.32,300.46c.17.03.39.03.52-.06.19-.14.23-.47,0-.7"/>
  <path class="cls-1" d="m252.62,299.71c.17.03.39.03.52-.06.19-.14.23-.47,0-.7"/>
  <path class="cls-1" d="m256.61,298.97c.14.12.35.12.49.02.19-.14.23-.47-.03-.7"/>
  <path class="cls-1" d="m256.5,297.08c.14.12.35.12.49.02.19-.14.23-.47-.03-.7"/>
  <path class="cls-1" d="m252.29,293.97c.17.03.39.03.52-.07.19-.14.23-.47,0-.7"/>
  <path class="cls-1" d="m256.21,293.46c.14.12.35.12.49.03.19-.14.23-.47-.03-.7"/>
  <path class="cls-1" d="m256.7,293.49c.17.03.39.03.52-.07.19-.14.23-.47,0-.7"/>
  <path class="cls-1" d="m257.28,293.37c.14.12.35.12.49.03.19-.14.23-.47-.03-.7"/>
  <path class="cls-1" d="m251.99,294.71c.17.03.39.03.52-.06.19-.14.23-.47,0-.7"/>
  <path class="cls-1" d="m255.32,294.33c.17.03.39.03.52-.07.19-.14.23-.47,0-.7"/>
  <path class="cls-1" d="m255.9,294.21c.14.12.35.12.49.03.19-.14.23-.47-.03-.7"/>
  <path class="cls-1" d="m256.39,294.24c.17.03.39.03.52-.07.19-.14.23-.47,0-.7"/>
  <path class="cls-1" d="m256.98,294.12c.14.12.35.12.49.03.19-.14.23-.47-.03-.7"/>
  <path class="cls-1" d="m252.76,292.45c.17.03.39.03.52-.06.19-.14.23-.47,0-.7"/>
  <path class="cls-1" d="m253.83,292.35c.17.03.39.03.52-.06.19-.14.23-.47,0-.7"/>
  <path class="cls-1" d="m252.45,293.19c.17.03.39.03.52-.06.19-.14.23-.47,0-.7"/>
  <path class="cls-1" d="m256.02,290.58c.14.12.35.12.49.03.19-.14.23-.47-.03-.7"/>
  <path class="cls-1" d="m253.53,291.55c.14.12.35.12.49.03.19-.14.23-.47-.03-.7"/>
  <path class="cls-1" d="m254.02,291.57c.17.03.39.03.52-.07.19-.14.23-.47,0-.7"/>
  <path class="cls-1" d="m257.21,339.14c-.41-2.1-.8-4.2-1.22-6.3-.88-4.46-1.86-8.91-2.59-13.4-1.29-8.02-1.75-16.18-2.37-24.61"/>
  <path class="cls-1" d="m251.04,294.84c1.15,6.04,2.17,11.88,3.06,17.4.83,5.15,1.55,10.03,3.36,15.63,1.04,3.22,2.43,6.68,1.63,9.09-.29.89-.88,1.63-1.87,2.19"/>
  <path class="cls-1" d="m264.26,296.29c-.48,3.39,0,8.91.23,13.95.28,6.43.12,12.1-1.23,16.95-.64,2.29-1.55,4.41-4.08,6.56"/>
  <path class="cls-1" d="m241.48,339.27c.95.38,1.96.63,2.99.66,1.84.05,3.73-.59,5.21-1.63,1.13-.8,2.02-1.84,2.74-3.03"/>
  <path class="cls-1" d="m250.2,329.29c-1.17,2.02-2.57,3.8-5.49,5.24"/>
  <path class="cls-1" d="m274.62,339.51c-.91-1.93-1.81-3.87-2.74-5.8-1.41-2.95-2.86-5.87-4.24-8.83"/>
  <path class="cls-1" d="m267.6,320.21c1.26,2.71,2.66,5.44,4.47,8.32,1.8,2.86,4.01,5.87,3.83,8.4-.07.93-.45,1.8-1.27,2.58"/>
  <path class="cls-1" d="m274.62,339.51c-1.8-.35-3.62-1.03-5.07-2.13-1.28-.97-2.27-2.27-3.11-3.69"/>
  <path class="cls-1" d="m246.18,297.54c.96-2.92,1.41-3.01,1.63-3.35s.22-.9.41-1.24c.19-.33.57-.42.7-.62.13-.2,0-.53.19-.76.19-.23.69-.37.96-.69.27-.32.31-.82.69-1.07.39-.25,1.12-.27,1.55-.57.43-.3.54-.89,1.24-1.17.48-.19,1.24-.23,1.88-.04"/>
  <path class="cls-1" d="m260.91,288.64c.53-.52,1.56-.99,2.36-.83.86.18,1.46,1.11,1.82,1.47.36.37.49.17,1,.7.51.53,1.39,1.79,1.76,2.53s.24.97.41,1.17c.17.2.66.38.86.69.2.3.13.73.26,1.03.13.31.47.5.66.83.19.33.22.8.41,1.1.19.3.55.43.54.68,0,.25-.37.62.38,1.18"/>
  <path class="cls-1" d="m242.21,339.53c-.02.33-.05.66-.14.98-.1.37-.29.73-.37,1.1-.07.3-.08.6-.16.86-.04.15-.1.28-.03.36.11.14.56.17,1.19.18.31,0,.66,0,.91-.03.59-.08.64-.34.71-.6.12-.43.32-.84.46-1.36.06-.24.12-.5.16-.75.02-.12.04-.24.06-.35"/>
  <path class="cls-1" d="m257.98,339.22c.06.32.11.65.11.98,0,.39-.1.78-.09,1.16,0,.31.07.6,0,.93-.03.19-.11.38.02.51.21.2.95.22,1.65.21.34,0,.67,0,.89-.08.5-.18.36-.73.29-1.17-.11-.73-.03-1.18-.02-1.72,0-.25,0-.51-.03-.76,0-.12-.02-.24-.03-.36"/>
  <path class="cls-1" d="m275.39,339.39c.14.3.27.61.35.93.09.38.1.78.2,1.14.08.29.21.57.28.86.04.16.05.33.14.46.15.2.5.27,1.21.09.35-.09.78-.24,1.05-.41.63-.4.36-.9.18-1.31-.29-.68-.32-1.13-.44-1.66-.06-.24-.14-.49-.21-.73-.04-.12-.07-.23-.11-.34"/>
  <polyline class="cls-1" points="205.48 388.92 205.49 351.13 201.86 351.13 201.86 343.03 205.48 343.03 205.48 236.41 201.86 236.41 201.86 230.54 167.57 230.54 167.57 226.11"/>
  <path class="cls-1" d="m245.71,309.22c.1.15.31.2.47.14.22-.09.34-.4.14-.69"/>
  <path class="cls-3" d="m521.88,89.68c1.75,1.63,3.36,3.65,4.14,5.88,1.01,2.89.65,6.14.68,9.28.03,2.8.39,5.52.57,8.28"/>
  <path class="cls-3" d="m530.7,442.05c1.71-.39,4.44-.8,6.78-.53,5.03.57,8.26,4.25,11.02,7.65,3.41,4.21,6.1,7.98,8.19,12.33,1.24,2.57,2.26,5.34,12.39,13.88"/>
  <path class="cls-3" d="m507.93,189.04c-2.27.66-4.55,1.79-6.19,3.47-1.6,1.64-2.57,3.82-3.64,5.91-2.07,4.06-4.47,7.81-7.34,11.27-2.28,2.75-4.84,5.3-7.72,7.39-2.68,1.94-5.64,3.47-8.64,4.95-2.64,1.29-5.32,2.54-7.58,4.38-.58.47-1.14.99-1.68,1.52"/>
  <path class="cls-3" d="m497.74,199.13c-11.09,9-17.47,10.04-21.83,12.72-3.1,1.9-5.19,4.64-7.73,6.37"/>
  <path class="cls-3" d="m543.89,304.47c10.91,9.22,17.26,10.39,21.57,13.16,3.06,1.97,5.1,4.74,7.6,6.53"/>
  <path class="cls-3" d="m549.74,442.39c3.09,3.03,6.08,6.15,9.25,9.12,3.11,2.92,6.39,5.7,9.04,9.04,2.31,2.91,4.14,6.25,5.47,9.74.79,2.07,1.41,4.21,1.84,6.37"/>
  <path class="cls-3" d="m630.02,209.84c-2.06-5.08-4.82-9.86-8.22-14.24-4.73-6.09-10.71-11.38-17.51-14.73-9.04-4.44-19.56-5.44-28.6-10.34-5.59-3.03-10.62-7.54-16.9-9.75-3.59-1.26-7.59-1.77-11.13-.79-7.29,2.03-12.6,10.43-16.51,16.7"/>
  <path class="cls-3" d="m519.25,145.84c-4.57-9.28-7.66-12.86-11.52-15.09-3.82-2.21-8.39-3.1-12.83-2.76-4.74.37-9.32,2.15-13.15,4.88-3.11,2.21-5.71,5.05-7.85,8.27-1.8,2.71-3.26,5.7-5.41,7.95-3.29,3.45-8.19,5.18-12.83,7.21-7.71,3.36-14.72,7.52-20.67,13.04-7.69,7.14-13.62,16.55-17.37,26.39"/>
  <path class="cls-3" d="m533.9,294.18c2.26.71,4.52,1.88,6.12,3.59,1.56,1.68,2.5,3.87,3.52,5.98,1.98,4.1,4.31,7.9,7.11,11.42,2.22,2.79,4.73,5.4,7.57,7.54,2.64,2,5.56,3.59,8.54,5.12,2.61,1.35,5.26,2.65,7.49,4.53.58.49,1.12,1.01,1.65,1.55"/>
  <path class="cls-3" d="m477.46,373.94c5.25-2.92,10.52-6.32,14.11-11.19,1.87-2.54,3.28-5.47,5.62-7.5,1.38-1.2,3.08-2.08,4.78-2.78"/>
  <path class="cls-3" d="m485.83,373.82c3.75-1.78,7.32-4.18,10.14-7.23,1.89-2.04,3.43-4.38,4.99-6.69,1.88-2.79,3.78-5.56,5.53-8.43"/>
  <path class="cls-3" d="m522.12,357.09v54.1"/>
  <path class="cls-3" d="m518.31,326.43c-2.27-1.84-4.77-3.44-7.44-4.65-4.44-2.01-9.34-2.98-14.26-3.09-4.24-.1-8.49.43-12.45,1.8-4.46,1.54-8.56,4.14-11.68,7.99-2.6,3.21-4.51,7.29-7.73,8.93-3,1.53-7.15.95-11.43.52-4.94-.49-10.07-.78-28.79,11.9"/>
  <path class="cls-3" d="m381.6,452.02c5.19-6.5,11.08-12.26,17.34-17.96,5.48-4.99,11.25-9.94,17.75-12.77,8.78-3.81,18.9-3.76,29.13-4.79,7.35-.74,14.75-2.03,21.26-6.17,8.37-5.32,15.26-15.35,23.87-18.56,3.71-1.38,7.75-1.5,28.54,4.48"/>
  <path class="cls-3" d="m525.55,367.94c.03-2.38.49-4.78,1.43-6.98.88-2.04,2.18-3.89,3.73-5.46"/>
  <path class="cls-3" d="m529.66,259c-.97,1.34-1.83,2.78-2.48,4.29-1.49,3.49-1.84,7.4-1.9,11.25-.09,5.86.5,11.59.57,17.36.05,3.51-.1,7.04-.26,10.56"/>
  <path class="cls-3" d="m529.66,259c-4.96-9.32-8.8-19.85-8.95-30.39-.09-6.79,1.35-13.59,1.48-20.36.24-11.86-3.52-23.63-4.03-35.52-.58-13.54,3.04-27.21,7.56-40.01"/>
  <path class="cls-3" d="m528.9,102.42c3.18-2.58,9.05-6.33,13.1-7.3,4.53-1.08,9.44-.91,13.75.68,4.25,1.57,7.91,4.52,11.1,7.83,2.35,2.43,4.43,5.06,7.04,7.1,2.17,1.69,4.71,2.98,7.28,4.01"/>
  <path class="cls-3" d="m536.77,253.03c-1.38-.12-2.9.03-4.08.73-1.72,1.03-2.69,3.25-3.02,5.24"/>
  <path class="cls-3" d="m624.23,325.86c-5.25-4.82-10.24-10.61-12.63-17.25-2.06-5.72-2.2-12.08-4.32-17.93-2.19-6.04-6.49-11.55-11.92-14.82-4.93-2.97-10.78-4.09-16.09-6.25-4.95-2.01-9.44-4.92-14.27-7.46-6.93-3.65-14.57-6.54-22.25-6.28-4.47.15-8.97,1.37-13.09,3.14"/>
  <path class="cls-3" d="m622.57,409.04c-1.13-4.49-3.47-8.92-6.95-12.03-2.1-1.88-4.61-3.28-7.22-4.25-5.22-1.93-10.86-2.12-16.49-2.69-6.05-.62-12.1-1.69-17.44-4.18-6.99-3.26-12.77-8.96-18.47-14.46-5.42-5.23-10.76-10.28-17.69-13.54-3.98-1.87-8.47-3.16-12.6-2.18-1.24.29-2.46.79-3.59,1.39"/>
  <path class="cls-3" d="m403.15,315.69c3.26-9.89,8.6-19.4,15.63-27.07,3.36-3.66,7.1-6.91,11.2-9.88,4.63-3.36,9.72-6.35,15.48-6.79,3.74-.28,7.77.52,10.97-.45,5.31-1.61,8.33-8.13,11.08-14.5,3.12-7.21,5.92-14.23,11.45-17.18,6.69-3.56,17.39-1.14,24.84,2.57"/>
  <line class="cls-3" x1="205.6" y1="183.11" x2="313.09" y2="183.1"/>
  <line class="cls-3" x1="205.6" y1="183.11" x2="200.16" y2="189.25"/>
  <line class="cls-3" x1="313.09" y1="183.1" x2="318.52" y2="189.25"/>
  <line class="cls-3" x1="200.16" y1="189.25" x2="318.52" y2="189.25"/>
  <line class="cls-3" x1="302.43" y1="388.92" x2="302.43" y2="230.54"/>
  <line class="cls-3" x1="313.2" y1="388.92" x2="313.2" y2="230.54"/>
  <line class="cls-3" x1="302.43" y1="343.03" x2="216.26" y2="343.03"/>
  <path class="cls-3" d="m216.26,247.64c3.08-3.4,6.72-6.4,10.77-8.56,3.38-1.81,7.05-3.04,10.77-4.01,3.55-.93,7.14-1.61,10.77-2.06,3.57-.44,7.17-.65,10.77-.65s7.2.21,10.77.65c3.63.45,7.22,1.14,10.77,2.06,3.72.97,7.39,2.2,10.77,4.01,4.05,2.17,7.69,5.16,10.77,8.56"/>
  <line class="cls-3" x1="183.87" y1="207.68" x2="334.82" y2="207.68"/>
  <line class="cls-3" x1="334.82" y1="207.68" x2="340.26" y2="213.83"/>
  <line class="cls-3" x1="183.87" y1="207.68" x2="178.43" y2="213.83"/>
  <line class="cls-3" x1="194.73" y1="195.4" x2="323.96" y2="195.39"/>
  <line class="cls-3" x1="216.26" y1="388.92" x2="216.26" y2="230.54"/>
  <line class="cls-3" x1="205.48" y1="388.92" x2="205.48" y2="230.54"/>
  <line class="cls-3" x1="178.43" y1="213.83" x2="340.26" y2="213.83"/>
  <line class="cls-3" x1="205.49" y1="351.13" x2="201.86" y2="351.13"/>
  <line class="cls-3" x1="194.73" y1="195.4" x2="323.96" y2="195.4"/>
  <line class="cls-3" x1="323.96" y1="195.4" x2="329.39" y2="201.54"/>
  <line class="cls-3" x1="194.73" y1="195.4" x2="189.3" y2="201.54"/>
  <line class="cls-3" x1="189.3" y1="201.54" x2="329.39" y2="201.54"/>
  <line class="cls-3" x1="329.39" y1="201.54" x2="334.82" y2="207.68"/>
  <line class="cls-3" x1="189.3" y1="201.54" x2="183.87" y2="207.68"/>
  <line class="cls-3" x1="345.69" y1="219.97" x2="345.69" y2="219.97"/>
  <line class="cls-3" x1="216.45" y1="247.42" x2="219.3" y2="244.58"/>
  <line class="cls-3" x1="313.2" y1="388.92" x2="302.43" y2="388.92"/>
  <line class="cls-3" x1="302.43" y1="353.83" x2="216.26" y2="353.83"/>
  <line class="cls-3" x1="290.82" y1="238.64" x2="288.46" y2="237.56"/>
  <line class="cls-3" x1="302.23" y1="247.42" x2="299.39" y2="244.58"/>
  <line class="cls-3" x1="227.87" y1="238.64" x2="230.22" y2="237.56"/>
  <line class="cls-3" x1="316.83" y1="236.41" x2="313.2" y2="236.41"/>
  <line class="cls-3" x1="316.83" y1="236.41" x2="316.83" y2="230.54"/>
  <line class="cls-3" x1="318.52" y1="189.25" x2="323.96" y2="195.39"/>
  <line class="cls-3" x1="323.96" y1="195.39" x2="323.96" y2="195.4"/>
  <line class="cls-3" x1="200.16" y1="189.25" x2="194.73" y2="195.4"/>
  <line class="cls-3" x1="205.49" y1="343.03" x2="201.86" y2="343.03"/>
  <line class="cls-3" x1="205.48" y1="236.41" x2="201.86" y2="236.41"/>
  <line class="cls-3" x1="205.48" y1="388.92" x2="216.26" y2="388.92"/>
  <line class="cls-3" x1="340.26" y1="213.83" x2="345.69" y2="219.97"/>
  <line class="cls-3" x1="178.43" y1="213.83" x2="173" y2="219.97"/>
  <line class="cls-3" x1="201.86" y1="236.41" x2="201.86" y2="230.54"/>
  <line class="cls-3" x1="201.86" y1="351.13" x2="201.86" y2="343.03"/>
  <line class="cls-3" x1="316.83" y1="351.13" x2="313.2" y2="351.13"/>
  <line class="cls-3" x1="316.83" y1="343.03" x2="313.2" y2="343.03"/>
  <line class="cls-3" x1="316.83" y1="351.13" x2="316.83" y2="343.03"/>
  <line class="cls-3" x1="173" y1="219.97" x2="345.69" y2="219.97"/>
  <line class="cls-3" x1="167.57" y1="226.11" x2="351.12" y2="226.11"/>
  <line class="cls-3" x1="167.57" y1="230.54" x2="351.12" y2="230.54"/>
  <line class="cls-3" x1="345.69" y1="219.97" x2="351.12" y2="226.11"/>
  <line class="cls-3" x1="173" y1="219.97" x2="167.57" y2="226.11"/>
  <line class="cls-3" x1="167.57" y1="226.11" x2="167.57" y2="230.54"/>
  <line class="cls-3" x1="351.12" y1="226.11" x2="351.12" y2="230.54"/>
</svg>