<?xml version="1.0" encoding="utf-8"?>
<!-- Generator: Adobe Illustrator 27.9.6, SVG Export Plug-In . SVG Version: 9.03 Build 54986)  -->
<svg version="1.1" id="Layer_1" xmlns="http://www.w3.org/2000/svg" xmlns:xlink="http://www.w3.org/1999/xlink" x="0px" y="0px"
	 viewBox="0 0 466.76 324.41" style="enable-background:new 0 0 466.76 324.41;" xml:space="preserve">
<style type="text/css">
	.st0{fill:none;stroke:#FFFFFF;stroke-width:0.2;stroke-linecap:round;stroke-linejoin:round;stroke-dasharray:2;}
	.st1{fill:none;stroke:#FFFFFF;stroke-width:0.3;stroke-linecap:round;stroke-linejoin:round;}
	.st2{fill:none;stroke:#FFFFFF;stroke-linecap:round;stroke-linejoin:round;}
</style>
<g>
	<path class="st0" d="M172.45,172.98c1.45,4.09,2.89,8.19,4.34,12.28"/>
	<path class="st0" d="M175.09,173.65c1.23,3.49,2.46,6.97,3.69,10.46"/>
	<path class="st0" d="M176.78,185.26c-1.01-0.58-2.01-1.16-3.02-1.74"/>
	<line class="st0" x1="176.78" y1="185.26" x2="178.78" y2="184.11"/>
	<line class="st0" x1="105.07" y1="142.38" x2="106.97" y2="141.29"/>
	<path class="st0" d="M124.85,146.79c-0.06,0.79-0.12,1.58-0.18,2.38"/>
	<path class="st0" d="M152.86,153.91c-9.34-2.37-18.68-4.74-28.02-7.11"/>
	<path class="st0" d="M124.81,157.56c9.26,2.35,18.51,4.7,27.77,7.05"/>
	<path class="st0" d="M117.97,153.62c2.28,1.32,4.56,2.63,6.84,3.95"/>
	<path class="st0" d="M121.29,146.8c-0.13-0.34-0.27-0.68-0.4-1.01"/>
	<path class="st0" d="M162.69,181.74c-1.47-4.16-2.94-8.32-4.4-12.48"/>
	<path class="st0" d="M172.79,187.57c-3.37-1.94-6.73-3.89-10.1-5.83"/>
	<line class="st0" x1="172.79" y1="187.57" x2="174.78" y2="186.42"/>
	<path class="st0" d="M104.97,142.44c-1.03,0.59-1.32,1.87-1.32,2.91"/>
	<path class="st0" d="M103.66,145.35c3.36,1.94,6.72,3.88,10.08,5.82"/>
	<path class="st0" d="M108.94,141.09c-0.65-0.17-1.36-0.16-1.97,0.19"/>
	<path class="st0" d="M120.89,145.79c-4.65-1.18-9.3-2.36-13.96-3.54"/>
	<path class="st0" d="M124.67,149.17c-0.02,0.31-0.13,0.66-0.43,0.83"/>
	<line class="st0" x1="126.84" y1="145.64" x2="124.85" y2="146.79"/>
	<line class="st0" x1="133.66" y1="139.66" x2="136.76" y2="137.87"/>
	<line class="st0" x1="133.66" y1="143.83" x2="138.66" y2="140.94"/>
	<line class="st0" x1="198.91" y1="184.77" x2="183.09" y2="175.68"/>
	<line class="st0" x1="154.93" y1="158.37" x2="156.84" y2="157.27"/>
	<path class="st0" d="M136.76,137.87c0.38-0.22,0.84-0.04,1.16,0.17c0.36,0.23,0.62,0.53,0.85,0.88c0.23,0.35,0.39,0.71,0.49,1.12
		c0.08,0.37,0.11,0.84-0.09,1.2"/>
	<path class="st0" d="M156.53,162.33c0.41-0.24,0.92-0.01,1.24,0.23c0.36,0.26,0.66,0.62,0.87,1c0.22,0.38,0.38,0.82,0.43,1.26
		c0.04,0.4-0.01,0.95-0.43,1.19"/>
	<path class="st0" d="M123.12,145.75c0.36-0.21,0.79-0.06,1.1,0.13c0.34,0.21,0.6,0.48,0.83,0.8"/>
	<line class="st0" x1="122.89" y1="144.64" x2="123.19" y2="145.72"/>
	<path class="st0" d="M133.66,147.3c0-14.1,0-28.2,0-42.3"/>
	<path class="st0" d="M131.67,146.86c0-15.79,0-31.57,0-47.36"/>
	<path class="st0" d="M122.68,71.19c0,24.02,0,48.05,0,72.07"/>
	<path class="st0" d="M154.53,158.63c-3.18-9-6.36-18.01-9.53-27.01"/>
	<path class="st0" d="M119.75,60.09c-0.4-1.13-0.8-2.26-1.19-3.38"/>
	<path class="st0" d="M158.8,157.07c1.12,0.28,2.24,0.57,3.36,0.85"/>
	<path class="st0" d="M156.8,158.23c2.49,0.63,4.98,1.26,7.47,1.9"/>
	<line class="st0" x1="158.65" y1="166" x2="110.06" y2="194.06"/>
	<path class="st0" d="M159.23,169.62c-1.23-0.31-2.35-1.23-3.15-2.13"/>
	<line class="st0" x1="124.24" y1="150" x2="91.6" y2="168.85"/>
	<line class="st0" x1="89.64" y1="165.08" x2="123.12" y2="145.75"/>
	<line class="st0" x1="214.89" y1="180.43" x2="158.57" y2="212.95"/>
	<path class="st0" d="M215.33,179.5c-0.01,0.34-0.11,0.74-0.44,0.94"/>
	<path class="st0" d="M214.26,178.35c0.22,0.38,0.38,0.82,0.43,1.26c0.04,0.4-0.01,0.95-0.43,1.19"/>
	<line class="st0" x1="211.79" y1="182.97" x2="226.47" y2="191.41"/>
	<path class="st0" d="M218.48,182.86c-0.21,0.38-0.47,0.67-0.86,0.89"/>
	<path class="st0" d="M218.48,182.86c-0.61,1.08-1.69,1.38-2.83,1.09"/>
	<line class="st0" x1="218.72" y1="183.12" x2="217.62" y2="183.76"/>
	<line class="st0" x1="245.09" y1="211.31" x2="203.15" y2="187.21"/>
	<path class="st0" d="M106.86,225.63c-1.01-0.58-2.01-1.16-3.02-1.74"/>
	<path class="st0" d="M102.87,227.94c-3.37-1.94-6.73-3.89-10.1-5.83"/>
	<line class="st0" x1="102.87" y1="227.94" x2="104.87" y2="226.78"/>
	<path class="st0" d="M92.77,222.1c-0.93-2.62-1.85-5.25-2.78-7.87"/>
	<path class="st0" d="M100.08,220.03c0.93,2.64,1.86,5.27,2.79,7.91"/>
	<path class="st0" d="M103.1,221.76c0.59,1.67,1.18,3.35,1.77,5.02"/>
	<path class="st0" d="M106.11,223.5c0.25,0.71,0.5,1.42,0.75,2.13"/>
	<line class="st0" x1="106.86" y1="225.63" x2="108.34" y2="224.78"/>
	<path class="st0" d="M54.9,197.93c4.02,1.02,8.03,2.04,12.05,3.06"/>
	<path class="st0" d="M43.82,191.54c5.11,2.95,8.8,5.08,11.08,6.4"/>
	<path class="st0" d="M153.96,163.82c-0.3-0.91-0.49-1.93-0.42-2.89c0.07-0.93,0.4-1.99,1.3-2.51"/>
	<path class="st0" d="M215.65,183.95c-1.59-0.4-3.17-0.8-4.76-1.21"/>
	<path class="st0" d="M205.01,181.25c-15.26-3.87-30.52-7.75-45.78-11.62"/>
	<path class="st0" d="M154.84,158.42c0.61-0.35,1.32-0.36,1.97-0.19"/>
	<path class="st0" d="M156.84,157.27c0.61-0.35,1.32-0.36,1.97-0.19"/>
	<line class="st0" x1="138.66" y1="140.94" x2="150.74" y2="147.89"/>
	<path class="st0" d="M122.68,143.26c0,0.48,0.05,0.94,0.15,1.41"/>
	<path class="st0" d="M152.22,152.08c-8.46-2.15-16.92-4.29-25.38-6.44"/>
	<line class="st0" x1="122.89" y1="144.64" x2="120.89" y2="145.79"/>
	<path class="st0" d="M122.89,144.64c-4.65-1.18-9.3-2.36-13.96-3.54"/>
	<path class="st0" d="M106.94,142.25c-0.65-0.17-1.36-0.16-1.97,0.19"/>
	<path class="st0" d="M167.16,171.64c1.87,5.31,3.75,10.62,5.62,15.93"/>
	<path class="st0" d="M169.8,172.31c1.66,4.7,3.32,9.4,4.98,14.11"/>
	<line class="st0" x1="106.93" y1="190.97" x2="156.53" y2="162.33"/>
	<line class="st1" x1="219.62" y1="182.6" x2="218.72" y2="183.12"/>
	<path class="st1" d="M218.92,180.42c0.05,0.8-0.03,1.71-0.44,2.44"/>
	<path class="st1" d="M213.23,172.55c1.02,0.26,1.96,0.94,2.69,1.65c0.78,0.76,1.38,1.6,1.89,2.55c0.49,0.92,0.87,1.96,1.04,3
		c0.16,0.98,0.15,2.18-0.37,3.11"/>
	<path class="st1" d="M212.14,177.13c0.41-0.24,0.92-0.01,1.24,0.23c0.36,0.26,0.66,0.62,0.87,1"/>
	<path class="st1" d="M212.78,176.77c0.33-0.19,0.72-0.08,1.02,0.08c0.32,0.18,0.57,0.41,0.8,0.7c0.41,0.52,0.75,1.27,0.74,1.96"/>
	<line class="st1" x1="157.69" y1="211.02" x2="214.26" y2="178.35"/>
	<line class="st1" x1="214.26" y1="178.35" x2="267.93" y2="235.72"/>
	<path class="st1" d="M267.93,235.72c0.41-0.24,0.92-0.01,1.24,0.23c0.36,0.26,0.66,0.62,0.87,1c0.22,0.38,0.38,0.82,0.43,1.26
		c0.04,0.4-0.01,0.95-0.43,1.19"/>
	<line class="st1" x1="209.86" y1="269.25" x2="270.4" y2="234.3"/>
	<path class="st1" d="M270.4,234.3c0.41-0.24,0.92-0.01,1.24,0.23c0.36,0.26,0.66,0.62,0.87,1c0.22,0.38,0.38,0.82,0.43,1.26
		c0.04,0.4-0.01,0.95-0.43,1.19"/>
	<line class="st1" x1="272.52" y1="237.97" x2="212.85" y2="272.42"/>
	<line class="st1" x1="156.45" y1="209.29" x2="212.78" y2="176.77"/>
	<path class="st1" d="M278.51,248.61c-2.87-3.04-5.73-6.09-8.6-9.13"/>
	<path class="st1" d="M222.17,171.01c24.56,26.07,49.13,52.15,73.69,78.22"/>
	<path class="st1" d="M218.18,173.31c24.56,26.07,49.13,52.15,73.69,78.22"/>
	<path class="st1" d="M220.17,172.16c24.56,26.07,49.13,52.15,73.69,78.22"/>
	<path class="st1" d="M224.17,169.85c24.56,26.07,49.13,52.15,73.69,78.22"/>
	<path class="st1" d="M227.94,288.44c-24.56-26.07-49.13-52.15-73.69-78.22"/>
	<path class="st1" d="M225.95,289.59c-24.56-26.07-49.13-52.15-73.69-78.22"/>
	<path class="st1" d="M154.25,210.22c-0.62-0.66-1.39-1.28-2.23-1.66c-0.82-0.37-1.83-0.56-2.69-0.06"/>
	<path class="st1" d="M149.3,209.46c1.66,0.42,3.11,1.91,3.99,3.22c0.93,1.38,1.66,3.17,1.71,4.88"/>
	<path class="st1" d="M159,215.26c-0.05-1.71-0.78-3.5-1.71-4.89c-0.88-1.31-2.34-2.81-3.99-3.23"/>
	<line class="st1" x1="88.19" y1="165.92" x2="89.64" y2="165.08"/>
	<line class="st1" x1="91.6" y1="168.85" x2="89.63" y2="169.98"/>
	<path class="st1" d="M63.05,88.75c1.86,8.31,3.94,15.96,6.49,24.28c6.6,21.6,16.34,47.73,27.45,65.08
		c5.15,8.05,10.6,14.2,16.55,18.95"/>
	<path class="st1" d="M118.88,56.52c1.97,8.25,4.05,15.9,6.59,24.22c6.6,21.6,16.34,47.73,27.45,65.08
		c11.29,17.63,24.01,26.18,40.28,30.77c5.05,1.42,10.44,2.47,15.22,2.7"/>
	<path class="st1" d="M60.93,85.08c0.41-0.24,0.92-0.01,1.24,0.23c0.36,0.26,0.66,0.62,0.87,1c0.22,0.38,0.38,0.82,0.43,1.26
		c0.04,0.4-0.01,0.95-0.43,1.19"/>
	<path class="st1" d="M116.76,52.85c0.41-0.24,0.92-0.01,1.24,0.23c0.36,0.26,0.66,0.62,0.87,1c0.22,0.38,0.38,0.82,0.43,1.26
		c0.04,0.4-0.01,0.95-0.43,1.19"/>
	<line class="st1" x1="101.63" y1="194.03" x2="106.93" y2="190.97"/>
	<line class="st1" x1="110.06" y1="194.06" x2="107.52" y2="195.53"/>
	<path class="st1" d="M164.27,160.12c16.32,4.14,32.64,8.29,48.95,12.43"/>
	<path class="st1" d="M162.16,157.93c17.69,4.49,35.38,8.98,53.07,13.47"/>
	<path class="st1" d="M145,131.63c-8.42-23.85-16.83-47.69-25.25-71.54"/>
	<path class="st1" d="M122.68,68.38c0,0.94,0,1.88,0,2.81"/>
	<path class="st1" d="M131.67,99.51c0-1.89,0-3.77,0-5.66"/>
	<path class="st1" d="M133.66,105c0-1.83,0-3.66,0-5.49"/>
	<line class="st1" x1="203.12" y1="278.04" x2="192.33" y2="284.26"/>
	<path class="st1" d="M201,274.37c0.41-0.24,0.92-0.01,1.24,0.23c0.36,0.26,0.66,0.62,0.87,1c0.22,0.38,0.38,0.82,0.43,1.26
		c0.04,0.4-0.01,0.95-0.43,1.19"/>
	<path class="st1" d="M119.12,51.48c0.41-0.24,0.92-0.01,1.24,0.23c0.36,0.26,0.66,0.62,0.87,1c0.22,0.38,0.38,0.82,0.43,1.26
		c0.04,0.4-0.01,0.95-0.43,1.19"/>
	<path class="st1" d="M40.61,197.57c-0.59-0.34-1.06-1-1.3-1.62c-0.13-0.34-0.21-0.67-0.2-1.03c0.01-0.33,0.11-0.72,0.44-0.91"/>
	<path class="st1" d="M41.67,197.67c-0.34,0.2-0.76,0.07-1.06-0.1"/>
	<path class="st1" d="M294.63,257.91c-5.37-3.1-10.75-6.2-16.12-9.31"/>
	<line class="st1" x1="294.63" y1="257.91" x2="296.62" y2="256.76"/>
	<path class="st1" d="M298.62,255.61c-0.82-0.47-1.64-0.95-2.47-1.42"/>
	<line class="st1" x1="298.62" y1="255.61" x2="300.62" y2="254.45"/>
	<path class="st1" d="M297.86,248.07c1.51,1.6,2.76,4.09,2.76,6.38"/>
	<path class="st1" d="M219.25,168.13c0.85-0.49,1.87-0.3,2.69,0.06c0.84,0.38,1.6,1,2.23,1.66"/>
	<path class="st1" d="M295.86,249.23c1.51,1.6,2.76,4.09,2.76,6.38"/>
	<path class="st1" d="M291.87,251.53c1.51,1.6,2.76,4.09,2.76,6.38"/>
	<line class="st1" x1="214.09" y1="171.11" x2="215.26" y2="170.44"/>
	<path class="st1" d="M147.58,219.3c-0.34,0.2-0.76,0.07-1.06-0.1"/>
	<path class="st1" d="M50.32,96.1c-0.18,0.1-0.38,0.12-0.57,0.08"/>
	<line class="st1" x1="120.09" y1="46.03" x2="121.99" y2="44.93"/>
	<path class="st1" d="M133.66,50.72c0-2.05-1.01-4.27-2.26-5.81c-0.65-0.8-1.47-1.57-2.39-2.06c-0.88-0.47-2.05-0.79-3.03-0.23"/>
	<line class="st1" x1="124.09" y1="43.72" x2="125.99" y2="42.62"/>
	<line class="st1" x1="42.77" y1="196.3" x2="42.77" y2="196.42"/>
	<path class="st1" d="M48.2,92.43c0.01-0.01,0.02-0.01,0.03-0.02"/>
	<line class="st1" x1="265.72" y1="213.96" x2="285.72" y2="225.45"/>
	<line class="st1" x1="43.3" y1="196.73" x2="41.67" y2="197.67"/>
	<path class="st1" d="M287.43,224.46c0.41-0.24,0.92-0.01,1.24,0.23c0.36,0.26,0.66,0.62,0.87,1c0.22,0.38,0.38,0.82,0.43,1.26
		c0.04,0.4-0.01,0.95-0.43,1.19"/>
	<path class="st1" d="M192.33,284.26c-0.34,0.2-0.76,0.07-1.06-0.1"/>
	<line class="st1" x1="289.55" y1="228.13" x2="282.76" y2="232.05"/>
	<path class="st1" d="M90.1,204.87c-0.59-0.34-1.06-1-1.3-1.62c-0.13-0.34-0.21-0.67-0.2-1.03c0.01-0.33,0.11-0.72,0.44-0.91"/>
	<path class="st1" d="M91.16,204.97c-0.34,0.2-0.76,0.07-1.06-0.1"/>
	<line class="st1" x1="118.1" y1="47.18" x2="120" y2="46.08"/>
	<path class="st1" d="M230.7,294.82c0-2.28-1.25-4.77-2.76-6.38"/>
	<line class="st1" x1="230.7" y1="294.82" x2="228.7" y2="295.97"/>
	<path class="st1" d="M228.7,295.97c0-2.28-1.25-4.77-2.76-6.38"/>
	<line class="st1" x1="48.18" y1="87.55" x2="50.08" y2="86.45"/>
	<path class="st1" d="M55.76,192.28c0,0.68-0.12,1.41-0.46,2.02"/>
	<path class="st1" d="M44.77,91.67c0-1.04,0.29-2.32,1.32-2.91"/>
	<line class="st1" x1="46.18" y1="88.7" x2="48.08" y2="87.6"/>
	<line class="st1" x1="218.09" y1="168.8" x2="219.25" y2="168.13"/>
	<line class="st1" x1="189.94" y1="280.87" x2="42.77" y2="196.3"/>
	<path class="st1" d="M117.12,52.64c-0.3-0.91-0.49-1.93-0.42-2.89c0.07-0.93,0.4-1.99,1.3-2.51"/>
	<path class="st1" d="M45.21,190.73c-0.27-0.82-0.44-1.62-0.44-2.49"/>
	<line class="st1" x1="76.96" y1="177.3" x2="60.36" y2="186.88"/>
	<path class="st1" d="M49.75,96.18c-0.76-0.14-1.39-0.96-1.68-1.57c-0.17-0.37-0.29-0.73-0.3-1.14c-0.01-0.36,0.07-0.83,0.44-1.04"
		/>
	<path class="st1" d="M125.18,52.69c12.39,35.09,24.77,70.19,37.16,105.28"/>
	<path class="st1" d="M48.2,189c0.32-0.19,0.71-0.08,1.01,0.08c0.32,0.17,0.57,0.4,0.79,0.68c0.42,0.51,0.75,1.24,0.76,1.93"/>
	<path class="st1" d="M123.99,43.78c0.76-0.44,1.65-0.34,2.41-0.05c0.77,0.29,1.49,0.8,2.08,1.35c1.19,1.11,2.15,2.62,2.69,4.15"/>
	<line class="st1" x1="122.09" y1="44.88" x2="123.99" y2="43.78"/>
	<line class="st1" x1="50.18" y1="86.4" x2="52.08" y2="85.3"/>
	<path class="st1" d="M33.74,185.72c0-1.04,0.29-2.32,1.32-2.91"/>
	<path class="st1" d="M37.02,182.61c2.58,0.66,5.16,1.31,7.75,1.97"/>
	<path class="st1" d="M39.02,181.46c1.92,0.49,3.83,0.97,5.75,1.46"/>
	<path class="st1" d="M37.05,181.65c0.61-0.35,1.32-0.36,1.97-0.19"/>
	<line class="st1" x1="35.15" y1="182.75" x2="37.05" y2="181.65"/>
	<line class="st1" x1="226.72" y1="297.13" x2="224.72" y2="298.29"/>
	<path class="st1" d="M144.79,221.25c16.76,17.79,33.52,35.58,50.27,53.36"/>
	<path class="st1" d="M208.6,288.98c5.37,3.1,10.75,6.2,16.12,9.31"/>
	<line class="st1" x1="108.86" y1="224.48" x2="108.34" y2="224.78"/>
	<line class="st1" x1="52.17" y1="85.24" x2="54.08" y2="84.14"/>
	<path class="st1" d="M108.86,224.48c-1.66-4.7-3.32-9.4-4.98-14.11"/>
	<path class="st1" d="M148.52,211.12c-0.39-0.22-0.78-0.4-1.22-0.51"/>
	<line class="st1" x1="148.17" y1="209.17" x2="149.34" y2="208.5"/>
	<path class="st1" d="M133.66,56.29c0-1.85,0-3.71,0-5.56"/>
	<path class="st1" d="M226.71,297.13c0-0.87-0.19-1.76-0.47-2.58"/>
	<line class="st1" x1="55.76" y1="186.68" x2="56.93" y2="186.01"/>
	<path class="st1" d="M106.11,223.5c-1.62-4.6-3.25-9.2-4.87-13.8"/>
	<path class="st1" d="M43.82,191.54c-3.36-1.94-6.72-3.88-10.08-5.82"/>
	<path class="st1" d="M87.13,206.11c-6.73-1.71-13.45-3.42-20.18-5.12"/>
	<line class="st1" x1="39.58" y1="193.98" x2="48.2" y2="189"/>
	<line class="st1" x1="55.76" y1="184.64" x2="75.52" y2="173.23"/>
	<path class="st1" d="M39.55,194c0.41-0.24,0.92-0.01,1.24,0.23c0.36,0.26,0.66,0.62,0.87,1c0.22,0.38,0.38,0.82,0.43,1.26
		c0.04,0.4-0.01,0.95-0.43,1.19"/>
	<path class="st1" d="M293.87,250.38c1.51,1.6,2.76,4.09,2.76,6.38"/>
	<path class="st1" d="M215.26,170.44c0.85-0.49,1.87-0.3,2.69,0.06c0.84,0.38,1.6,1,2.23,1.66"/>
	<path class="st1" d="M215.23,171.4c1.12,0.28,2.15,1.07,2.91,1.87c0.8,0.84,1.47,1.84,1.95,2.89c0.47,1.03,0.82,2.22,0.85,3.37
		c0.03,1.08-0.24,2.44-1.31,3.07"/>
	<path class="st1" d="M146.52,219.19c-0.59-0.34-1.06-1-1.3-1.62c-0.13-0.34-0.21-0.67-0.2-1.03c0.01-0.33,0.11-0.72,0.44-0.91"/>
	<path class="st1" d="M145.46,215.63c0.41-0.24,0.92-0.01,1.24,0.23c0.36,0.26,0.66,0.62,0.87,1c0.22,0.38,0.38,0.82,0.43,1.26
		c0.04,0.4-0.01,0.95-0.43,1.19"/>
	<line class="st1" x1="59.19" y1="86.08" x2="119.12" y2="51.48"/>
	<line class="st1" x1="121.24" y1="55.15" x2="61.31" y2="89.75"/>
	<path class="st1" d="M124.55,44.94c1.94,0.81,3.51,2.87,4.31,4.68c0.43,0.97,0.74,2.06,0.79,3.13c0.04,1-0.14,2.25-1,2.98"/>
	<path class="st1" d="M121.99,44.93c0.81-0.47,1.77-0.32,2.56,0.01"/>
	<line class="st1" x1="50.76" y1="191.69" x2="197.82" y2="276.2"/>
	<line class="st1" x1="42.77" y1="196.3" x2="50.76" y2="191.69"/>
	<path class="st1" d="M191.27,284.16c-0.59-0.34-1.06-1-1.3-1.62c-0.13-0.34-0.21-0.67-0.2-1.03c0.01-0.33,0.11-0.72,0.44-0.91"/>
	<line class="st1" x1="190.25" y1="280.57" x2="201" y2="274.37"/>
	<line class="st1" x1="279.78" y1="228.88" x2="287.43" y2="224.46"/>
	<path class="st1" d="M190.21,280.59c0.41-0.24,0.92-0.01,1.24,0.23c0.36,0.26,0.66,0.62,0.87,1c0.22,0.38,0.38,0.82,0.43,1.26
		c0.04,0.4-0.01,0.95-0.43,1.19"/>
	<path class="st1" d="M89.04,201.3c0.41-0.24,0.92-0.01,1.24,0.23c0.36,0.26,0.66,0.62,0.87,1c0.22,0.38,0.38,0.82,0.43,1.26
		c0.04,0.4-0.01,0.95-0.43,1.19"/>
	<path class="st1" d="M219.22,169.09c-18.51-4.7-37.02-9.4-55.53-14.1"/>
	<path class="st1" d="M217.22,170.25c-17.63-4.48-35.26-8.95-52.89-13.43"/>
	<path class="st1" d="M224.93,177.2c-0.05-1.71-0.78-3.5-1.71-4.89c-0.88-1.31-2.34-2.81-3.99-3.23"/>
	<path class="st1" d="M127.18,51.53c12.6,35.7,25.2,71.41,37.81,107.11"/>
	<path class="st1" d="M118,47.24c0.76-0.44,1.65-0.34,2.41-0.05c0.77,0.29,1.49,0.8,2.08,1.35c1.19,1.11,2.15,2.62,2.69,4.15"/>
	<path class="st1" d="M120,46.08c0.76-0.44,1.65-0.34,2.41-0.05c0.77,0.29,1.49,0.8,2.08,1.35c1.19,1.11,2.15,2.62,2.69,4.15"/>
	<path class="st1" d="M48.24,92.41c0.42-0.21,0.92,0.02,1.23,0.26c0.37,0.27,0.64,0.6,0.86,1c0.21,0.37,0.38,0.81,0.42,1.25
		c0.04,0.39-0.02,0.94-0.43,1.18"/>
	<path class="st1" d="M226.24,294.55c0.82,0.47,1.64,0.95,2.47,1.42"/>
	<path class="st1" d="M103.1,221.76C87.82,178.48,72.54,135.19,57.26,91.9"/>
	<path class="st1" d="M100.08,220.03C85.14,177.71,70.2,135.38,55.26,93.05"/>
	<path class="st1" d="M57.26,91.9c-0.54-1.53-1.49-3.04-2.69-4.15c-0.59-0.55-1.31-1.06-2.08-1.35c-0.76-0.29-1.65-0.39-2.41,0.05"
		/>
	<path class="st1" d="M55.76,117.23c11.41,32.33,22.82,64.67,34.24,97"/>
	<path class="st1" d="M147.31,210.61c-0.72-0.18-1.5-0.15-2.14,0.31"/>
	<path class="st1" d="M44.77,188.24c0-32.19,0-64.38,0-96.58"/>
	<path class="st1" d="M53.76,96.86c0,32.18,0,64.37,0,96.55"/>
	<path class="st1" d="M55.76,95.7c0,32.19,0,64.38,0,96.58"/>
	<path class="st1" d="M46.08,88.76c0.97-0.56,2.15-0.24,3.03,0.23c0.92,0.5,1.74,1.26,2.38,2.06c1.25,1.54,2.26,3.75,2.26,5.81"/>
	<path class="st1" d="M48.08,87.6c0.97-0.56,2.15-0.24,3.03,0.23c0.92,0.5,1.74,1.26,2.38,2.06c1.25,1.54,2.26,3.75,2.26,5.81"/>
	<path class="st1" d="M129.17,50.38c12.39,35.09,24.77,70.19,37.16,105.28"/>
	<path class="st1" d="M131.17,49.23c12.6,35.7,25.2,71.41,37.81,107.11"/>
	<path class="st1" d="M54.64,85.31c-0.79-0.33-1.75-0.47-2.56-0.01"/>
	<path class="st1" d="M58.74,96.09c0.86-0.72,1.05-1.98,1-2.98c-0.05-1.07-0.36-2.17-0.79-3.13c-0.8-1.81-2.37-3.87-4.31-4.68"/>
	<path class="st1" d="M55.76,187.37c9.06,2.3,18.13,4.6,27.19,6.9"/>
	<path class="st1" d="M94.42,197.19c17.63,4.48,35.26,8.95,52.89,13.43"/>
	<path class="st1" d="M56.93,186.01c8.46,2.15,16.92,4.29,25.38,6.44"/>
	<path class="st1" d="M93.78,195.36c18.51,4.7,37.02,9.4,55.53,14.1"/>
	<path class="st1" d="M144.24,220.61c-15.21-3.86-30.43-7.72-45.64-11.59"/>
	<path class="st1" d="M35.06,182.81c0.61-0.35,1.32-0.36,1.97-0.19"/>
	<path class="st1" d="M226.72,297.13c0-2.28-1.25-4.77-2.76-6.38"/>
	<path class="st1" d="M224.72,298.29c0-2.28-1.25-4.77-2.76-6.38"/>
	<path class="st1" d="M223.96,290.75c-24.56-26.07-49.13-52.15-73.69-78.22"/>
	<path class="st1" d="M221.96,291.91c-24.56-26.07-49.13-52.15-73.69-78.22"/>
	<path class="st1" d="M150.27,212.53c-0.62-0.66-1.39-1.28-2.23-1.66c-0.82-0.37-1.83-0.56-2.69-0.06"/>
	<path class="st1" d="M148.27,213.69c-0.62-0.66-1.39-1.28-2.23-1.66c-0.82-0.37-1.83-0.56-2.69-0.06"/>
	<path class="st1" d="M199.99,279.84c2.87,3.05,5.74,6.09,8.61,9.14"/>
	<line class="st1" x1="143.45" y1="211.91" x2="145.35" y2="210.81"/>
	<path class="st1" d="M143.35,211.96c-0.8,0.46-1.15,1.34-1.27,2.18c-0.12,0.85-0.01,1.77,0.2,2.59c0.42,1.65,1.34,3.29,2.51,4.52"
		/>
	<path class="st1" d="M153.3,207.15c-18.51-4.7-37.02-9.4-55.53-14.1"/>
	<path class="st1" d="M151.3,208.31c-17.63-4.48-35.26-8.95-52.89-13.43"/>
	<path class="st1" d="M99.06,196.7C86.46,161,73.86,125.3,61.25,89.59"/>
	<path class="st1" d="M96.42,196.03c-12.39-35.09-24.77-70.19-37.16-105.28"/>
	<path class="st1" d="M61.25,89.59c-0.54-1.53-1.49-3.04-2.69-4.15c-0.59-0.55-1.31-1.06-2.08-1.35c-0.76-0.29-1.65-0.39-2.41,0.05"
		/>
</g>
<g>
	<path class="st0" d="M329.51,109.86c-0.86-0.5-1.72-1-2.59-1.49"/>
	<path class="st0" d="M393.51,149.06c-0.47-0.36-0.94-0.71-1.42-1.07"/>
	<path class="st0" d="M397.38,149.83c-0.63,0.36-1.36,0.36-2.02,0.18c-0.67-0.18-1.3-0.54-1.84-0.95"/>
	<path class="st0" d="M335.35,106.48c0.41-0.24,0.92-0.01,1.24,0.23c0.36,0.26,0.66,0.62,0.87,1c0.22,0.38,0.38,0.82,0.43,1.26
		c0.04,0.4-0.01,0.95-0.43,1.19"/>
	<path class="st0" d="M392.69,142.75c0.41-0.24,0.92-0.01,1.24,0.23c0.36,0.26,0.66,0.62,0.87,1c0.22,0.38,0.38,0.82,0.43,1.26
		c0.04,0.4-0.01,0.95-0.43,1.19"/>
	<line class="st0" x1="394.81" y1="146.42" x2="347.87" y2="173.52"/>
	<line class="st0" x1="343.63" y1="171.07" x2="392.69" y2="142.75"/>
	<line class="st0" x1="284.38" y1="135.91" x2="335.35" y2="106.48"/>
	<path class="st0" d="M390.46,144.03c0.41-0.24,0.92-0.01,1.24,0.23c0.36,0.26,0.66,0.62,0.87,1c0.22,0.38,0.38,0.82,0.43,1.26
		c0.04,0.4-0.01,0.95-0.43,1.19"/>
	<path class="st0" d="M335.61,105.24c-0.46-0.35-0.87-0.74-1.25-1.17"/>
	<path class="st0" d="M388.43,145.21c-8.58-6.5-17.17-12.99-25.75-19.49"/>
	<path class="st0" d="M336.93,106.24c-0.44-0.33-0.88-0.67-1.32-1"/>
	<line class="st0" x1="335.71" y1="110.03" x2="389.86" y2="144.38"/>
	<line class="st0" x1="335.71" y1="110.03" x2="286.84" y2="137.78"/>
	<line class="st0" x1="337.47" y1="110.15" x2="336.65" y2="110.63"/>
	<path class="st0" d="M333.19,107.73c0.29-0.17,0.64-0.1,0.92,0.03c0.3,0.14,0.53,0.34,0.75,0.58c0.42,0.45,0.74,1.08,0.85,1.69"/>
	<path class="st1" d="M333.66,99.58c0.41-0.24,0.92-0.01,1.24,0.23c0.36,0.26,0.66,0.62,0.87,1c0.22,0.38,0.38,0.82,0.43,1.26
		c0.04,0.4-0.01,0.95-0.43,1.19"/>
	<path class="st1" d="M405.46,156.56c-1.48-0.86-2.97-1.71-4.45-2.57"/>
	<path class="st1" d="M421.46,163.71c0.56-0.32,0.44-1.61,0.36-3.23c-0.11-2.26-0.02-4.9,0.38-8.69"/>
	<path class="st1" d="M364.66,185.01c0.42,4.1,1.11,5.5,1.22,7.76c0.08,1.62,0.2,2.91-0.36,3.23"/>
	<line class="st1" x1="421.46" y1="163.71" x2="365.52" y2="196"/>
	<line class="st1" x1="335.73" y1="176.81" x2="335.73" y2="176.93"/>
	<path class="st1" d="M360.29,192.43c0.24-0.1,0.72,1.12,1.5,1.78c0.38,0.32,0.75,0.81,1.2,1.11c0.75,0.52,1.67,0.6,2.54,0.68"/>
	<path class="st1" d="M420.45,147.91c0.41-0.24,0.92-0.01,1.24,0.23c0.36,0.26,0.66,0.62,0.87,1c0.22,0.38,0.38,0.82,0.43,1.26
		c0.04,0.4-0.01,0.95-0.43,1.19"/>
	<path class="st1" d="M362.55,181.34c0.41-0.24,0.92-0.01,1.24,0.23c0.36,0.26,0.66,0.62,0.87,1c0.22,0.38,0.38,0.82,0.43,1.26
		c0.04,0.4-0.01,0.95-0.43,1.19"/>
	<path class="st1" d="M401.01,153.99c-0.42-0.24-0.84-0.49-1.26-0.74c-0.39-0.24-0.78-0.48-1.17-0.75c-0.2-0.14-0.4-0.28-0.59-0.43
		c-0.16-0.12-0.32-0.25-0.47-0.39c-0.14-0.12-0.27-0.25-0.4-0.39c-0.11-0.12-0.22-0.25-0.32-0.39c-0.09-0.13-0.18-0.27-0.24-0.41
		c-0.07-0.14-0.12-0.29-0.16-0.44c-0.04-0.16-0.07-0.31-0.09-0.46c-0.02-0.16-0.03-0.32-0.03-0.48c0-0.22,0-0.44,0.01-0.65
		c0.02-0.36,0.05-0.72,0.05-1.09c0-0.17,0-0.35-0.01-0.53c-0.01-0.22-0.04-0.44-0.08-0.67c-0.05-0.27-0.13-0.55-0.24-0.83
		c-0.1-0.27-0.23-0.55-0.38-0.81c-0.15-0.26-0.32-0.52-0.5-0.75c-0.18-0.24-0.38-0.45-0.58-0.65c-0.18-0.18-0.37-0.33-0.56-0.48
		c-0.2-0.16-0.41-0.3-0.61-0.42c-0.22-0.14-0.44-0.26-0.66-0.38c-0.23-0.12-0.46-0.23-0.69-0.34c-0.49-0.22-0.98-0.42-1.47-0.61
		c-0.54-0.21-1.08-0.41-1.62-0.63c-0.28-0.11-0.57-0.23-0.86-0.35c-0.54-0.23-1.08-0.47-1.63-0.72c-1.08-0.51-2.17-1.06-3.26-1.65
		c-1.11-0.6-2.23-1.23-3.34-1.88c-1.16-0.67-2.32-1.36-3.48-2.05c-0.6-0.35-1.19-0.71-1.79-1.06c-0.66-0.39-1.32-0.78-1.98-1.16
		c-1.39-0.81-2.77-1.61-4.16-2.4c-2.83-1.62-5.65-3.22-8.48-4.85c-1.37-0.79-2.74-1.58-4.11-2.38c-1.31-0.77-2.62-1.54-3.93-2.34
		c-1.2-0.73-2.41-1.47-3.61-2.23c-1.05-0.67-2.1-1.36-3.15-2.08c-0.46-0.32-0.92-0.64-1.37-0.97c-0.42-0.3-0.84-0.62-1.25-0.94
		c-0.34-0.27-0.68-0.54-1.01-0.82c-0.43-0.37-0.86-0.75-1.27-1.17c-0.35-0.35-0.7-0.72-1.03-1.12c-0.29-0.36-0.58-0.73-0.84-1.12
		c-0.28-0.43-0.55-0.87-0.78-1.33c-0.22-0.43-0.43-0.86-0.62-1.3c-0.21-0.48-0.4-0.96-0.58-1.44c-0.21-0.54-0.41-1.09-0.55-1.69"/>
	<path class="st1" d="M362.67,125.72c-8.58-6.49-17.16-12.99-25.75-19.48"/>
	<line class="st1" x1="424.34" y1="150.55" x2="363.66" y2="185.59"/>
	<line class="st1" x1="361.54" y1="181.92" x2="422.22" y2="146.88"/>
	<path class="st1" d="M422.22,146.88c0.41-0.24,0.92-0.01,1.24,0.23c0.36,0.26,0.66,0.62,0.87,1c0.22,0.38,0.38,0.82,0.43,1.26
		c0.04,0.4-0.01,0.95-0.43,1.19"/>
	<path class="st1" d="M355.52,101.8c-3.72-2.81-7.43-5.62-11.15-8.44"/>
	<path class="st1" d="M344.64,93.21c27.63,15.96,55.25,31.91,82.88,47.87"/>
	<path class="st1" d="M346.64,92.06c27.63,15.96,55.25,31.91,82.88,47.87"/>
	<path class="st1" d="M329.77,82.32c4.21,2.43,8.42,4.86,12.63,7.3"/>
	<line class="st1" x1="272.42" y1="130.02" x2="345.82" y2="87.64"/>
	<line class="st1" x1="347.94" y1="91.31" x2="276.37" y2="132.63"/>
	<path class="st1" d="M345.82,87.64c0.41-0.24,0.92-0.01,1.24,0.23c0.36,0.26,0.66,0.62,0.87,1c0.22,0.38,0.38,0.82,0.43,1.26
		c0.04,0.4-0.01,0.95-0.43,1.19"/>
	<line class="st1" x1="265.7" y1="151.59" x2="256.61" y2="156.84"/>
	<line class="st1" x1="258.51" y1="138.05" x2="267.9" y2="132.62"/>
	<line class="st1" x1="270.02" y1="136.29" x2="260.6" y2="141.73"/>
	<path class="st1" d="M267.9,132.62c0.41-0.24,0.92-0.01,1.24,0.23c0.36,0.26,0.66,0.62,0.87,1c0.22,0.38,0.38,0.82,0.43,1.26
		c0.04,0.4-0.01,0.95-0.43,1.19"/>
	<path class="st1" d="M263.58,147.92c0.41-0.24,0.92-0.01,1.24,0.23c0.36,0.26,0.66,0.62,0.87,1c0.22,0.38,0.38,0.82,0.43,1.26
		c0.04,0.4-0.01,0.95-0.43,1.19"/>
	<path class="st1" d="M350.13,189c0.04-0.28,0.16-0.58,0.42-0.73"/>
	<path class="st1" d="M352.67,191.93c-0.34,0.2-0.76,0.07-1.06-0.11c-0.34-0.19-0.59-0.45-0.82-0.75c-0.41-0.54-0.76-1.36-0.67-2.08
		"/>
	<line class="st1" x1="362.78" y1="190.99" x2="360.79" y2="192.14"/>
	<path class="st1" d="M327.34,185.37c-0.29,0.17-0.65,0.1-0.92-0.03c-0.3-0.14-0.54-0.34-0.76-0.59"/>
	<path class="st1" d="M318.14,93.19c0.33,0.03,0.66,0.06,0.99,0.09"/>
	<line class="st1" x1="316.14" y1="94.35" x2="318.14" y2="93.19"/>
	<path class="st1" d="M316.14,94.35c1.79,0.17,3.58,0.33,5.36,0.5"/>
	<line class="st1" x1="405.37" y1="145.22" x2="403.37" y2="146.37"/>
	<path class="st1" d="M246.23,134.71c0.14,0.48,0.32,0.94,0.53,1.39"/>
	<line class="st1" x1="248.22" y1="133.56" x2="246.23" y2="134.71"/>
	<path class="st1" d="M258.05,138.91c0.02-0.31,0.13-0.67,0.43-0.85"/>
	<path class="st1" d="M355.7,81.94c0.41-0.24,0.92-0.01,1.24,0.23c0.36,0.26,0.66,0.62,0.87,1c0.22,0.38,0.38,0.82,0.43,1.26
		c0.04,0.4-0.01,0.95-0.43,1.19"/>
	<path class="st1" d="M272.48,129.98c-0.34-0.2-0.68-0.39-1.02-0.59"/>
	<line class="st1" x1="360.78" y1="192.14" x2="358.88" y2="193.24"/>
	<path class="st1" d="M361.85,190.79c0.61-1.68,0.01-3.83-0.7-5.29c-0.75-1.55-2.01-3.17-3.55-4.06"/>
	<path class="st1" d="M325.22,181.7c0.41-0.24,0.92-0.01,1.24,0.23c0.36,0.26,0.66,0.62,0.87,1c0.22,0.38,0.38,0.82,0.43,1.26
		c0.04,0.4-0.01,0.95-0.43,1.19"/>
	<path class="st1" d="M360.78,192.14c0.52-0.3,0.87-0.8,1.07-1.35"/>
	<line class="st1" x1="357.82" y1="85.61" x2="354.27" y2="87.65"/>
	<line class="st1" x1="428.7" y1="152.93" x2="428.7" y2="152.93"/>
	<path class="st1" d="M230.27,113.47c-6.42-7.08-12.84-14.16-19.25-21.24"/>
	<path class="st1" d="M211.02,92.23c0.21-0.41,0.51-0.76,0.91-0.99"/>
	<path class="st1" d="M215.8,92.01c4.77,3.61,9.55,7.23,14.32,10.84"/>
	<line class="st1" x1="230.12" y1="102.85" x2="232.12" y2="101.69"/>
	<path class="st1" d="M217.79,90.85c4.77,3.61,9.55,7.23,14.32,10.84"/>
	<path class="st1" d="M230.12,102.85c0.07,0.79,0.14,1.57,0.21,2.36"/>
	<path class="st1" d="M232.12,101.69c0.07,0.79,0.14,1.57,0.21,2.36"/>
	<path class="st1" d="M230.32,105.2c0.06,0.65,0.39,1.33,0.8,1.82c0.22,0.26,0.46,0.48,0.78,0.64c0.28,0.14,0.66,0.23,0.97,0.06"/>
	<line class="st1" x1="234.17" y1="105.91" x2="236.17" y2="104.76"/>
	<path class="st1" d="M213.93,90.08c0.63-0.36,1.36-0.36,2.02-0.18c0.67,0.18,1.3,0.54,1.84,0.95"/>
	<path class="st1" d="M232.87,107.71c0.1-0.06,0.18-0.14,0.25-0.24"/>
	<line class="st1" x1="212.02" y1="91.18" x2="213.93" y2="90.08"/>
	<line class="st1" x1="323.65" y1="85.7" x2="325.64" y2="84.55"/>
	<path class="st1" d="M426.7,154.09c-1.03,0.59-2.28,0.2-3.18-0.32"/>
	<path class="st1" d="M348.43,83.79c-0.94-0.62-2.35-1.18-3.51-0.52"/>
	<path class="st1" d="M434.7,149.47c0.94-0.55,1.26-1.67,1.31-2.64c0.05-1.01-0.18-2.07-0.52-3.01c-0.67-1.83-1.98-3.74-3.64-4.84"
		/>
	<path class="st1" d="M342.93,84.42c-0.82,0.47-1.17,1.39-1.28,2.25c-0.11,0.88,0.02,1.81,0.25,2.65"/>
	<line class="st1" x1="343.02" y1="84.37" x2="344.92" y2="83.27"/>
	<path class="st1" d="M346.43,84.94c-0.94-0.62-2.35-1.18-3.51-0.52"/>
	<line class="st1" x1="434.7" y1="149.47" x2="432.7" y2="150.63"/>
	<path class="st1" d="M254.97,153.07c0.4,0.04,0.78,0.3,1.05,0.56c0.3,0.29,0.52,0.61,0.71,0.98c0.18,0.37,0.3,0.74,0.32,1.16
		c0.02,0.37-0.06,0.85-0.44,1.07"/>
	<path class="st1" d="M256.61,156.84c-0.41,0.24-0.92,0.01-1.24-0.23c-0.36-0.26-0.66-0.62-0.87-1c-0.22-0.38-0.38-0.82-0.43-1.26
		c-0.04-0.4,0.01-0.95,0.43-1.19"/>
	<path class="st1" d="M423.52,153.77c-0.79-0.46-1.58-0.92-2.38-1.37"/>
	<line class="st1" x1="423.66" y1="141.16" x2="424.35" y2="140.76"/>
	<path class="st1" d="M323.65,85.7c4.25,2.46,8.51,4.91,12.76,7.37"/>
	<path class="st1" d="M325.64,84.55c4.25,2.46,8.51,4.91,12.76,7.37"/>
	<line class="st1" x1="331.41" y1="95.96" x2="331.41" y2="95.96"/>
	<path class="st1" d="M406.43,143.9c-0.2,0.54-0.54,1.02-1.06,1.32"/>
	<line class="st1" x1="350.32" y1="85.04" x2="355.7" y2="81.94"/>
	<path class="st1" d="M325.66,184.75c-0.37-0.41-0.67-0.95-0.8-1.49c-0.07-0.28-0.1-0.55-0.06-0.85c0.04-0.27,0.16-0.56,0.42-0.71"
		/>
	<path class="st1" d="M425.3,142.11c1.62,0.84,2.94,2.5,3.72,4.07c0.42,0.85,0.73,1.71,0.89,2.64c0.15,0.88,0.18,1.89-0.14,2.76"/>
	<line class="st1" x1="333.45" y1="186.74" x2="331.48" y2="187.88"/>
	<line class="st1" x1="428.7" y1="152.93" x2="426.7" y2="154.09"/>
	<path class="st1" d="M354.79,195.61c-1.15,0.66-2.56,0.11-3.51-0.52"/>
	<line class="st1" x1="356.79" y1="194.45" x2="354.79" y2="195.61"/>
	<line class="st1" x1="255.73" y1="124.92" x2="253.73" y2="126.07"/>
	<line class="st1" x1="358.78" y1="193.3" x2="356.88" y2="194.4"/>
	<path class="st1" d="M267.76,140.93c-0.44-0.48-0.78-1.16-0.86-1.81"/>
	<path class="st1" d="M269.44,141.55c-0.29,0.17-0.65,0.1-0.92-0.03c-0.3-0.14-0.54-0.34-0.76-0.59"/>
	<line class="st1" x1="306.09" y1="64.39" x2="304.09" y2="65.55"/>
	<path class="st1" d="M303.04,67.11c-0.07,0.1-0.14,0.18-0.25,0.24"/>
	<path class="st1" d="M302.24,63.68c-0.07-0.79-0.14-1.57-0.21-2.36"/>
	<line class="st1" x1="302.03" y1="61.33" x2="300.04" y2="62.48"/>
	<path class="st1" d="M300.24,64.84c-0.07-0.79-0.14-1.57-0.21-2.36"/>
	<path class="st1" d="M302.03,61.33c-4.77-3.61-9.55-7.23-14.32-10.84"/>
	<path class="st1" d="M300.04,62.48c-4.77-3.61-9.55-7.23-14.32-10.84"/>
	<path class="st1" d="M287.71,50.49c-0.54-0.41-1.18-0.77-1.84-0.95c-0.67-0.18-1.4-0.19-2.02,0.18"/>
	<path class="st1" d="M280.93,51.86c6.42,7.08,12.84,14.16,19.25,21.24"/>
	<path class="st1" d="M403.37,146.37c1.21-0.7,1.4-2.32,1.29-3.49"/>
	<path class="st1" d="M302.79,67.35c-0.31,0.18-0.68,0.09-0.97-0.06c-0.31-0.16-0.55-0.37-0.78-0.64c-0.42-0.49-0.75-1.17-0.81-1.82
		"/>
	<path class="st1" d="M281.85,50.87c-0.4,0.23-0.7,0.58-0.91,0.99"/>
	<line class="st1" x1="281.94" y1="50.81" x2="283.84" y2="49.71"/>
	<line class="st1" x1="336.24" y1="185.13" x2="335.47" y2="185.57"/>
	<path class="st1" d="M263.72,131.84c-3.33-1.92-6.66-3.85-9.99-5.77"/>
	<path class="st1" d="M269.77,141.15c-0.07,0.17-0.17,0.3-0.34,0.4"/>
	<path class="st1" d="M303.73,66.09c-0.79-0.46-1.41-1.51-1.49-2.41"/>
	<path class="st1" d="M427.52,141.09c1.54,0.89,2.8,2.5,3.55,4.05c0.7,1.45,1.31,3.61,0.7,5.29"/>
	<path class="st1" d="M242.23,137.02c0.63,2.11,2.17,4.43,4.15,5.58"/>
	<line class="st1" x1="244.23" y1="135.86" x2="242.23" y2="137.02"/>
	<path class="st1" d="M246.37,142.59c4.4,2.54,8.81,5.09,13.21,7.63"/>
	<path class="st1" d="M326.28,188.73c0.9,0.52,2.15,0.91,3.18,0.31"/>
	<line class="st1" x1="327.01" y1="98.04" x2="327.02" y2="98.03"/>
	<line class="st1" x1="312.15" y1="96.65" x2="314.14" y2="95.5"/>
	<path class="st1" d="M327.01,98.04c0.13,0.08,0.27,0.15,0.4,0.23"/>
	<path class="st1" d="M316.29,102.23c-1.98-1.14-3.51-3.47-4.15-5.58"/>
	<path class="st1" d="M322.68,105.92c-0.01,0-0.02-0.01-0.02-0.01"/>
	<path class="st1" d="M353.91,183.94c-0.1-0.06-0.2-0.13-0.3-0.19"/>
	<path class="st1" d="M300.19,73.1c7.11,5.38,14.23,10.77,21.34,16.15"/>
	<line class="st1" x1="401.37" y1="147.52" x2="399.38" y2="148.68"/>
	<line class="st1" x1="353.74" y1="181.53" x2="354.43" y2="181.13"/>
	<path class="st1" d="M316.67,95.73c-0.21-0.45-0.39-0.91-0.53-1.39"/>
	<path class="st1" d="M269.35,128.17c-3.17-1.83-6.33-3.66-9.5-5.49"/>
	<line class="st1" x1="432.97" y1="143.79" x2="432.97" y2="143.79"/>
	<path class="st1" d="M331.68,100.72c-0.01,0-0.02-0.01-0.02-0.01"/>
	<line class="st1" x1="432.7" y1="150.63" x2="432.7" y2="150.63"/>
	<path class="st1" d="M251.59,135.21c-1.79-0.17-3.58-0.33-5.36-0.5"/>
	<path class="st1" d="M249.21,133.65c-0.33-0.03-0.66-0.06-0.99-0.09"/>
	<line class="st1" x1="398.57" y1="139.35" x2="398.57" y2="139.35"/>
	<path class="st1" d="M282.94,153.33c-0.01-0.01-0.02-0.01-0.03-0.02"/>
	<path class="st1" d="M251.61,129.62c-7.11-5.38-14.23-10.77-21.34-16.15"/>
	<path class="st1" d="M429.82,140.12c-27.8-18.39-55.59-36.78-83.39-55.18"/>
	<path class="st1" d="M332.24,100.4c0-0.01-0.01-0.02-0.01-0.02"/>
	<path class="st1" d="M263.83,152.67c20.82,12.02,41.64,24.04,62.45,36.06"/>
	<path class="st1" d="M331.65,100.71c0.01,0,0.02,0.01,0.02,0.01"/>
	<line class="st1" x1="257.11" y1="138.4" x2="257.1" y2="138.4"/>
	<path class="st1" d="M318.42,103.46c-0.71-0.41-1.42-0.82-2.13-1.23"/>
	<path class="st1" d="M264.41,129.93c-2.89-1.67-5.79-3.34-8.68-5.01"/>
	<path class="st1" d="M338.71,91.75c-11.54-8.73-23.08-17.47-34.62-26.2"/>
	<path class="st1" d="M258.05,138.95c-0.32-0.18-0.63-0.37-0.95-0.55"/>
	<line class="st1" x1="399.65" y1="141.84" x2="399.65" y2="141.84"/>
	<path class="st1" d="M350.55,188.26c0.41-0.24,0.92-0.01,1.24,0.23c0.36,0.26,0.66,0.62,0.87,1c0.22,0.38,0.38,0.82,0.43,1.26
		c0.04,0.4-0.01,0.95-0.43,1.19"/>
	<path class="st1" d="M359.6,180.3c-27.63-15.96-55.25-31.91-82.88-47.87"/>
	<path class="st1" d="M357.6,181.45c-19.57-11.3-39.14-22.6-58.7-33.91"/>
	<path class="st1" d="M362.78,190.99c0.97-0.56,1.28-1.74,1.31-2.74c0.03-1.04-0.22-2.13-0.59-3.1c-0.71-1.85-2.12-3.83-3.9-4.86"/>
	<path class="st1" d="M361.85,190.79c0.4-1.11,0.26-2.44-0.03-3.52c-0.31-1.14-0.84-2.25-1.51-3.22c-0.66-0.95-1.52-1.87-2.52-2.5
		c-0.93-0.58-2.27-1.07-3.37-0.43"/>
	<path class="st1" d="M359.85,191.95c0.32-0.87,0.3-1.88,0.14-2.76c-0.16-0.94-0.47-1.8-0.89-2.64c-0.78-1.57-2.1-3.23-3.72-4.07"/>
	<line class="st1" x1="335.45" y1="185.58" x2="333.45" y2="186.74"/>
	<path class="st1" d="M335.45,185.58c0.25-0.15,0.45-0.33,0.63-0.55"/>
	<path class="st1" d="M258.48,138.06c0.41-0.24,0.92-0.01,1.24,0.23c0.36,0.26,0.66,0.62,0.87,1c0.22,0.38,0.38,0.82,0.43,1.26
		c0.04,0.4-0.01,0.95-0.43,1.19"/>
	<path class="st1" d="M260.6,141.73c-0.33,0.19-0.74,0.07-1.04-0.09c-0.33-0.18-0.58-0.43-0.81-0.72c-0.41-0.53-0.76-1.31-0.71-2.01
		"/>
	<path class="st1" d="M431.77,150.43c-0.2,0.55-0.54,1.04-1.07,1.35"/>
	<line class="st1" x1="430.7" y1="151.77" x2="428.79" y2="152.88"/>
	<path class="st1" d="M424.35,140.76c1.1-0.64,2.44-0.15,3.37,0.43c1,0.62,1.86,1.54,2.52,2.5c0.67,0.97,1.2,2.08,1.51,3.22
		c0.29,1.08,0.43,2.41,0.03,3.52"/>
	<path class="st1" d="M213.01,91.07c0.21-0.41,0.51-0.76,0.91-0.99"/>
	<path class="st1" d="M232.32,104.05c0.08,0.9,0.7,1.95,1.49,2.41"/>
	<path class="st1" d="M233.12,107.48c0.35-0.52,0.7-1.04,1.05-1.56"/>
	<path class="st1" d="M234.17,105.91c10.32,7.81,20.64,15.62,30.96,23.43"/>
	<path class="st1" d="M236.17,104.76c10.32,7.81,20.64,15.62,30.96,23.43"/>
	<path class="st1" d="M334.76,184.16c-0.06,0.95-0.38,2.05-1.31,2.58"/>
	<path class="st1" d="M211.93,91.23c0.63-0.36,1.36-0.36,2.02-0.18c0.67,0.18,1.3,0.54,1.84,0.95"/>
	<path class="st1" d="M340.65,95.52c27.63,15.96,55.25,31.91,82.88,47.87"/>
	<path class="st1" d="M342.64,94.37c27.63,15.96,55.25,31.91,82.88,47.87"/>
	<path class="st1" d="M423.53,143.39c1.78,1.03,3.19,3.01,3.9,4.86c0.37,0.96,0.62,2.05,0.59,3.1c-0.03,0.99-0.34,2.17-1.31,2.74"/>
	<path class="st1" d="M425.52,142.24c1.78,1.03,3.18,3.01,3.9,4.86c0.37,0.96,0.62,2.05,0.59,3.09c-0.03,0.99-0.34,2.17-1.31,2.74"
		/>
	<path class="st1" d="M416.91,149.95c-6.78-3.92-13.56-7.83-20.33-11.75"/>
	<path class="st1" d="M327.42,98.26c-2.79-1.61-5.58-3.23-8.38-4.84"/>
	<path class="st1" d="M319.04,93.42c1.53-2.57,3.07-5.15,4.6-7.72"/>
	<path class="st1" d="M431.85,138.98c-27.81-18.4-55.61-36.8-83.42-55.2"/>
	<line class="st1" x1="254.52" y1="153.15" x2="263.58" y2="147.92"/>
	<path class="st1" d="M254.49,153.17c0.16-0.09,0.3-0.11,0.48-0.09"/>
	<path class="st1" d="M338.38,96.83c18.84,14.26,37.67,28.51,56.51,42.77"/>
	<path class="st1" d="M340.38,95.68c18.84,14.26,37.67,28.51,56.51,42.77"/>
	<path class="st1" d="M394.89,139.6c1.53,1.16,2.74,3,3.35,4.79c0.31,0.91,0.51,1.94,0.44,2.91c-0.06,0.94-0.39,2.01-1.3,2.53"/>
	<path class="st1" d="M396.89,138.44c1.53,1.16,2.74,3,3.35,4.79c0.31,0.91,0.51,1.94,0.44,2.91c-0.06,0.94-0.39,2.01-1.3,2.53"/>
	<line class="st1" x1="399.38" y1="148.68" x2="397.38" y2="149.83"/>
	<path class="st1" d="M267.87,139.9c-0.61-0.4-1.13-0.88-1.61-1.43"/>
	<path class="st1" d="M264.14,134.8c-0.3-0.91-0.49-1.92-0.42-2.89c0.07-0.93,0.4-1.98,1.3-2.5"/>
	<path class="st1" d="M270.52,128.77c27.81,18.4,55.61,36.8,83.42,55.2"/>
	<path class="st1" d="M351.94,185.12c1.66,1.1,2.97,3.01,3.64,4.84c0.34,0.94,0.57,2,0.52,3.01c-0.05,0.97-0.37,2.1-1.31,2.64"/>
	<path class="st1" d="M353.94,183.96c1.66,1.1,2.97,3.01,3.64,4.84c0.34,0.94,0.57,2,0.52,3.01c-0.05,0.97-0.37,2.1-1.31,2.64"/>
	<path class="st1" d="M351.29,195.09c-27.81-18.4-55.61-36.8-83.42-55.2"/>
	<line class="st1" x1="265.12" y1="129.35" x2="267.02" y2="128.25"/>
	<path class="st1" d="M265.02,129.4c1.15-0.66,2.56-0.11,3.51,0.52"/>
	<path class="st1" d="M267.02,128.25c1.15-0.66,2.56-0.11,3.51,0.52"/>
	<path class="st1" d="M253.73,126.07c-1.53,2.57-3.07,5.15-4.6,7.72"/>
	<path class="st1" d="M249.13,133.79c2.97,1.72,5.95,3.43,8.92,5.15"/>
	<path class="st1" d="M261.74,141.08c20.76,11.99,41.51,23.98,62.27,35.97"/>
	<path class="st1" d="M355.61,182.6c-9.76-5.64-19.51-11.27-29.27-16.91"/>
	<path class="st1" d="M358.78,193.3c0.97-0.56,1.28-1.74,1.31-2.74c0.03-1.04-0.22-2.13-0.59-3.1c-0.71-1.85-2.12-3.83-3.9-4.86"/>
	<line class="st1" x1="337.91" y1="102.02" x2="282.14" y2="134.22"/>
	<path class="st1" d="M289.6,139.86c-3.72-2.81-7.43-5.62-11.15-8.43"/>
	<path class="st1" d="M340.71,90.59c-11.54-8.73-23.08-17.47-34.62-26.2"/>
	<path class="st1" d="M304.09,65.55c-0.35,0.52-0.7,1.04-1.05,1.56"/>
	<path class="st1" d="M285.71,51.64c-0.54-0.41-1.18-0.77-1.84-0.95c-0.67-0.18-1.4-0.19-2.02,0.18"/>
	<line class="st1" x1="403.37" y1="146.37" x2="401.39" y2="147.51"/>
	<path class="st1" d="M283.84,49.71c-0.4,0.23-0.7,0.58-0.91,0.99"/>
	<path class="st1" d="M429.52,139.93c1.78,1.03,3.19,3.01,3.9,4.86c0.37,0.96,0.62,2.05,0.59,3.1c-0.03,0.99-0.34,2.17-1.31,2.74"/>
	<line class="st1" x1="432.7" y1="150.63" x2="430.7" y2="151.78"/>
	<path class="st1" d="M323.96,177.01c-20.74-11.97-41.48-23.95-62.22-35.92"/>
	<path class="st1" d="M254.35,136.81c-3.38-0.31-6.75-0.63-10.13-0.94"/>
	<path class="st1" d="M257.1,138.4c-4.96-0.46-9.91-0.92-14.87-1.39"/>
	<line class="st1" x1="331.46" y1="187.89" x2="329.46" y2="189.04"/>
	<path class="st1" d="M331.46,187.89c0.89-0.51,1.23-1.55,1.3-2.47c0.08-0.95-0.11-1.96-0.4-2.86"/>
	<path class="st1" d="M329.46,189.04c0.81-0.47,1.17-1.38,1.28-2.24c0.11-0.87-0.01-1.8-0.24-2.64c-0.45-1.67-1.42-3.35-2.64-4.58"
		/>
	<path class="st1" d="M312.15,96.65c4.96,0.46,9.91,0.92,14.87,1.39"/>
	<path class="st1" d="M314.14,95.5c3.38,0.31,6.75,0.63,10.13,0.94"/>
	<path class="st1" d="M401.94,141.3c0.44,1.01,0.75,2.16,0.75,3.27c0.01,1.05-0.28,2.35-1.32,2.95"/>
	<path class="st1" d="M335.73,98.36c0.42-0.23,0.92-0.04,1.27,0.19c0.37,0.25,0.68,0.62,0.9,1c0.22,0.38,0.39,0.83,0.44,1.27
		c0.04,0.4-0.01,0.96-0.43,1.21"/>
	<path class="st1" d="M268.52,129.92c27.81,18.4,55.61,36.8,83.42,55.2"/>
	<path class="st2" d="M279.05,133.61c0.04,0.02,0.08,0.05,0.12,0.07"/>
	<path class="st2" d="M279.17,133.68c-0.01-0.02-0.02-0.05-0.03-0.07"/>
</g>
</svg>
