<?xml version="1.0" encoding="utf-8"?>
<!-- Generator: Adobe Illustrator 27.9.6, SVG Export Plug-In . SVG Version: 9.03 Build 54986)  -->
<svg version="1.1" xmlns="http://www.w3.org/2000/svg" xmlns:xlink="http://www.w3.org/1999/xlink" x="0px" y="0px"
	 viewBox="0 0 224.67 224.95" style="enable-background:new 0 0 224.67 224.95;" xml:space="preserve">
<style type="text/css">
	.st0{fill:none;stroke:#000000;stroke-width:1.5;stroke-linecap:round;stroke-linejoin:round;}
	.st1{opacity:0.68;}
	.st2{fill:none;stroke:#000000;stroke-width:0.5;stroke-linecap:round;stroke-linejoin:round;}
	.st3{fill:none;stroke:#000000;stroke-width:0.5;stroke-linecap:round;stroke-linejoin:round;stroke-dasharray:5.0812,5.0812;}
	.st4{fill:none;stroke:#000000;stroke-width:0.5;stroke-linecap:round;stroke-linejoin:round;stroke-dasharray:7.1105,7.1105;}
	.st5{fill:none;stroke:#000000;stroke-width:0.5;stroke-linecap:round;stroke-linejoin:round;stroke-dasharray:6.066,6.066;}
	.st6{fill:none;stroke:#000000;stroke-width:0.5;stroke-linecap:round;stroke-linejoin:round;stroke-dasharray:5.6534,5.6534;}
	.st7{fill:none;stroke:#000000;stroke-width:0.5;stroke-linecap:round;stroke-linejoin:round;stroke-dasharray:4.2495,4.2495;}
	.st8{fill:none;stroke:#000000;stroke-width:0.5;stroke-linecap:round;stroke-linejoin:round;stroke-dasharray:4.2684,4.2684;}
	.st9{fill:none;stroke:#000000;stroke-width:0.5;stroke-linecap:round;stroke-linejoin:round;stroke-dasharray:5.4939,5.4939;}
	.st10{fill:none;stroke:#000000;stroke-width:0.5;stroke-linecap:round;stroke-linejoin:round;stroke-dasharray:3.7863,3.7863;}
	.st11{fill:none;stroke:#000000;stroke-width:0.5;stroke-linecap:round;stroke-linejoin:round;stroke-dasharray:5.859,5.859;}
	.st12{fill:none;stroke:#000000;stroke-width:0.5;stroke-linecap:round;stroke-linejoin:round;stroke-dasharray:3.4828,3.4828;}
	.st13{fill:none;stroke:#000000;stroke-width:0.5;stroke-linecap:round;stroke-linejoin:round;stroke-dasharray:5.6041,5.6041;}
	.st14{fill:none;stroke:#000000;stroke-width:0.5;stroke-linecap:round;stroke-linejoin:round;stroke-dasharray:5.9024,5.9024;}
	.st15{fill:none;stroke:#000000;stroke-width:0.5;stroke-linecap:round;stroke-linejoin:round;stroke-dasharray:5.7415,5.7415;}
	.st16{fill:none;stroke:#000000;stroke-width:0.5;stroke-linecap:round;stroke-linejoin:round;stroke-dasharray:5.7473,5.7473;}
	.st17{fill:none;stroke:#000000;stroke-width:0.5;stroke-linecap:round;stroke-linejoin:round;stroke-dasharray:5.9073,5.9073;}
	.st18{fill:none;stroke:#000000;stroke-width:0.5;stroke-linecap:round;stroke-linejoin:round;stroke-dasharray:5.6278,5.6278;}
	.st19{fill:none;stroke:#000000;stroke-width:0.5;stroke-linecap:round;stroke-linejoin:round;stroke-dasharray:5.8705,5.8705;}
	.st20{fill:none;stroke:#000000;stroke-width:0.5;stroke-linecap:round;stroke-linejoin:round;stroke-dasharray:5.7619,5.7619;}
	.st21{fill:none;stroke:#000000;stroke-width:0.5;stroke-linecap:round;stroke-linejoin:round;stroke-dasharray:5.4187,5.4187;}
	.st22{fill:none;stroke:#000000;stroke-width:0.5;stroke-linecap:round;stroke-linejoin:round;stroke-dasharray:5.6693,5.6693;}
	.st23{fill:none;stroke:#000000;stroke-width:2;stroke-linecap:round;stroke-linejoin:round;}
	.st24{fill:none;stroke:#000000;stroke-linecap:round;stroke-linejoin:round;}
	.st25{opacity:0.74;}
	.st26{stroke:#000000;stroke-width:0.25;stroke-miterlimit:10;}
	.st27{fill:none;stroke:#000000;stroke-width:0.25;stroke-miterlimit:10;}
	.st28{opacity:0.54;}
	.st29{fill:none;stroke:#FFFFFF;stroke-width:0.3;stroke-linecap:round;stroke-linejoin:round;}
	.st30{fill:#FFFFFF;}
	.st31{font-family:'TimesNewRomanPSMT';}
	.st32{font-size:8.1px;}
	.st33{opacity:0.6;}
	.st34{fill:none;stroke:#000000;stroke-width:0.25;stroke-linecap:round;stroke-linejoin:round;stroke-dasharray:2,2;}
	.st35{fill:none;stroke:#FFFFFF;stroke-width:0.5;stroke-linecap:round;stroke-linejoin:round;stroke-dasharray:2,2;}
	.st36{fill:none;stroke:#000000;stroke-width:0.5;stroke-miterlimit:10;}
	.st37{fill:none;stroke:#FFFFFF;stroke-width:0.5;stroke-miterlimit:10;}
	.st38{fill:none;stroke:#000000;stroke-miterlimit:10;}
	.st39{fill:none;stroke:#8AC643;stroke-linecap:round;stroke-linejoin:round;}
</style>
<g id="Layer_1">
</g>
<g id="CHAIR_DRAWING::OUTLINE">
</g>
<g id="CHAIR_DRAWING::HIDDEN" class="st1">
</g>
<g id="CHAIR_DRAWING::FABRIC">
</g>
<g id="CHAIR_DRAWING::SHOWN">
</g>
<g id="Dims">
	<line class="st29" x1="94.71" y1="49.66" x2="91.22" y2="41.46"/>
	<line class="st29" x1="107.52" y1="44.44" x2="103.92" y2="35.97"/>
	<line class="st29" x1="92.21" y1="43.78" x2="103.23" y2="39.1"/>
	<polyline class="st30" points="92.28,43.94 97.78,43.07 96.72,40.59 92.28,43.94 	"/>
	<polyline class="st30" points="104.98,38.45 99.48,39.32 100.54,41.81 104.98,38.45 	"/>
	<text transform="matrix(0.9202 -0.3913 0.3913 0.9202 89.7316 40.0152)" class="st30 st31 st32">0.75”</text>
	<line class="st29" x1="88.45" y1="33.04" x2="84.96" y2="24.83"/>
	<line class="st29" x1="139.13" y1="31.93" x2="128.27" y2="6.38"/>
	<line class="st29" x1="90.63" y1="25.5" x2="125.16" y2="10.81"/>
	<polyline class="st30" points="86.14,27.47 91.63,26.6 90.58,24.12 86.14,27.47 	"/>
	<polyline class="st30" points="129.43,9.11 123.93,9.98 124.99,12.46 129.43,9.11 	"/>
	<text transform="matrix(0.9202 -0.3913 0.3913 0.9202 98.2433 20.9131)" class="st30 st31 st32">3.00”</text>
	<line class="st29" x1="114.98" y1="78.58" x2="120.41" y2="92.68"/>
	<polyline class="st30" points="114.81,78 115.5,83.53 118.02,82.56 114.81,78 	"/>
	<polyline class="st30" points="121.8,96.82 121.12,91.29 118.6,92.26 121.8,96.82 	"/>
	<text transform="matrix(0.3598 0.933 -0.933 0.3598 117.7053 78.2033)" class="st30 st31 st32">1.10”</text>
	<line class="st29" x1="26.35" y1="111.79" x2="32.25" y2="127.1"/>
	<polyline class="st30" points="26.18,111.21 26.87,116.74 29.39,115.77 26.18,111.21 	"/>
	<polyline class="st30" points="34.14,132.16 33.45,126.64 30.93,127.61 34.14,132.16 	"/>
	<text transform="matrix(0.3598 0.933 -0.933 0.3598 28.1272 110.548)" class="st30 st31 st32">1.225”</text>
</g>
<g id="Grid">
</g>
<g id="Section_1::Hidden::Curves" class="st33">
	<line class="st35" x1="115.43" y1="101.19" x2="104.37" y2="105.38"/>
	<path class="st35" d="M107.22,80.25c-1.96,1-2.04,4.28-1.93,5.94c0.14,2.24,0.67,4.3,1.47,6.38c0.8,2.08,1.79,3.97,3.19,5.72
		c0.7,0.87,1.43,1.64,2.37,2.26c0.86,0.57,2.01,1.06,3.1,0.65"/>
	<line class="st35" x1="108.78" y1="80.48" x2="137.55" y2="69.66"/>
	<line class="st35" x1="144.78" y1="88.73" x2="116.22" y2="99.46"/>
	<path class="st35" d="M115.43,101.19c1.91-0.73,2.19-3.57,2.19-5.13"/>
	<path class="st35" d="M117.61,96.06c-0.01-3.29-1.17-7.01-2.67-9.87c-0.81-1.54-1.73-2.95-2.97-4.2c-1-1.01-2.85-2.48-4.53-1.84"/>
	<path class="st35" d="M95.58,108.68c-1.75-5.81-3.5-11.62-5.26-17.43"/>
	<path class="st35" d="M90.32,91.25c-0.42-1.39-0.81-2.79-1.16-4.2"/>
	<path class="st35" d="M144.78,88.73c-1.31,0.5-2.75-0.45-3.62-1.21"/>
	<path class="st35" d="M137.55,69.66c1-0.38,2.05,0.08,2.83,0.6c0.86,0.57,1.53,1.28,2.16,2.07c1.28,1.61,2.18,3.34,2.9,5.24
		c0.72,1.91,1.2,3.8,1.31,5.85c0.05,1.01,0.02,1.99-0.24,2.99c-0.24,0.91-0.72,1.95-1.72,2.33"/>
	<path class="st35" d="M141.16,87.53c-2.34-2.06-4.05-5.63-4.87-8.5c-0.46-1.61-0.75-3.2-0.73-4.89c0.01-1.33,0.28-3.63,1.78-4.39"
		/>
	<path class="st35" d="M116.22,99.46c-1.31,0.5-2.75-0.45-3.62-1.21"/>
	<path class="st35" d="M112.6,98.25c-2.34-2.06-4.05-5.63-4.87-8.5c-0.46-1.61-0.75-3.2-0.73-4.89c0.01-1.33,0.28-3.63,1.78-4.39"/>
	<line class="st35" x1="96.16" y1="84.43" x2="107.45" y2="80.15"/>
</g>
<g id="Section_1::Visible::Curves">
	<line class="st37" x1="115.43" y1="101.19" x2="24.71" y2="135.57"/>
	<path class="st37" d="M127.31,214.94c-0.03-0.46-0.06-0.92-0.09-1.38"/>
	<path class="st37" d="M132.5,90.04c12.56,41.64,25.12,83.27,37.68,124.91"/>
	<path class="st37" d="M141.9,86.47c12.92,42.82,25.83,85.65,38.75,128.47"/>
	<path class="st37" d="M127.63,214.94c-10.68-35.42-21.37-70.84-32.05-106.26"/>
	<path class="st37" d="M153.19,82.19c13.35,44.25,26.69,88.5,40.04,132.75"/>
	<path class="st37" d="M162.59,78.63c13.71,45.44,27.41,90.88,41.12,136.32"/>
	<path class="st37" d="M125.54,37.16c4.94-1.87,10.29,0.93,13.9,3.65c3.91,2.95,7.39,6.96,10.21,10.9
		c5.69,7.95,10.13,17.6,12.94,26.91"/>
	<path class="st37" d="M134.94,33.59c4.75-1.8,9.81,0.69,13.37,3.27c3.85,2.78,7.16,6.47,9.97,10.24c5.59,7.52,10,16.67,12.92,25.5
		c1.51,4.56,2.67,9.16,3.45,13.9c0.78,4.74,0.98,9.51,1.31,14.29c0.65,9.54,1.29,19.08,1.94,28.62"/>
	<line class="st37" x1="125.54" y1="37.16" x2="134.94" y2="33.59"/>
	<line class="st37" x1="95.45" y1="48.57" x2="104.86" y2="45"/>
	<path class="st37" d="M89.16,87.05c-1.65-6.55-2.73-13.87-2.39-20.68c0.09-1.74,0.27-3.47,0.58-5.19c0.31-1.72,0.74-3.39,1.38-5.03
		c1.22-3.14,3.31-6.29,6.73-7.58"/>
	<path class="st37" d="M103.8,105.57c0.12-0.02,0.23-0.06,0.35-0.1"/>
	<path class="st37" d="M95.45,48.57c4.94-1.87,10.29,0.93,13.9,3.65c3.91,2.95,7.39,6.96,10.21,10.9
		c5.69,7.95,10.13,17.6,12.94,26.91"/>
	<path class="st37" d="M104.86,45c4.94-1.87,10.29,0.93,13.9,3.65c3.91,2.95,7.39,6.96,10.21,10.9c5.69,7.95,10.13,17.6,12.94,26.91
		"/>
	<path class="st37" d="M117.61,96.06c-0.01-3.29-1.17-7.01-2.67-9.87c-0.81-1.54-1.73-2.95-2.97-4.2c-1-1.01-2.85-2.48-4.53-1.84"/>
	<path class="st37" d="M115.43,101.19c1.91-0.73,2.19-3.57,2.19-5.13"/>
	<line class="st37" x1="116.14" y1="40.73" x2="125.54" y2="37.16"/>
	<line class="st37" x1="106.91" y1="44.29" x2="116.31" y2="40.73"/>
	<path class="st37" d="M116.14,40.73c4.94-1.87,10.29,0.93,13.9,3.65c3.91,2.95,7.39,6.96,10.21,10.9
		c5.69,7.95,10.13,17.6,12.94,26.91c0.82,3.43,2.33,8.64,2.04,14.54c-0.08,1.71,0.28,4.05-2.04,9.52c-0.8,1.88-1.85,3.05-3.57,4.97"
		/>
	<line class="st37" x1="17.52" y1="114.27" x2="107.22" y2="80.25"/>
</g>
<g id="AG-PEOPLE">
</g>
<g id="unfolded_side::Layer_01">
</g>
</svg>
